<svg width="16" height="16" viewBox="0 0 16 16" fill="none" xmlns="http://www.w3.org/2000/svg">
<path fill-rule="evenodd" clip-rule="evenodd" d="M1 8.00014C1 7.86753 1.05268 7.74036 1.14645 7.64659C1.24021 7.55282 1.36739 7.50014 1.5 7.50014H13.293L10.146 4.35414C10.0521 4.26026 9.99937 4.13292 9.99937 4.00014C9.99937 3.86737 10.0521 3.74003 10.146 3.64614C10.2399 3.55226 10.3672 3.49951 10.5 3.49951C10.6328 3.49951 10.7601 3.55226 10.854 3.64614L14.854 7.64614C14.9006 7.69259 14.9375 7.74776 14.9627 7.80851C14.9879 7.86926 15.0009 7.93438 15.0009 8.00014C15.0009 8.06591 14.9879 8.13103 14.9627 8.19178C14.9375 8.25252 14.9006 8.3077 14.854 8.35414L10.854 12.3541C10.7601 12.448 10.6328 12.5008 10.5 12.5008C10.3672 12.5008 10.2399 12.448 10.146 12.3541C10.0521 12.2603 9.99937 12.1329 9.99937 12.0001C9.99937 11.8674 10.0521 11.74 10.146 11.6461L13.293 8.50014H1.5C1.36739 8.50014 1.24021 8.44746 1.14645 8.3537C1.05268 8.25993 1 8.13275 1 8.00014Z" fill="#222328"/>
</svg>
