<svg width="24" height="24" viewBox="0 0 24 24" fill="none" xmlns="http://www.w3.org/2000/svg">
<g clip-path="url(#clip0_3259_18725)">
<path d="M12.0495 0C10.164 0 8.35747 0.423894 6.67999 1.25992C6.28383 1.45743 6.12312 1.93788 6.32104 2.33313C6.51888 2.72831 7.0006 2.88854 7.39684 2.69119C14.1316 -0.80355 22.6021 4.41572 22.4745 11.9994C22.4746 17.7335 17.7979 22.3986 12.0494 22.3986C4.44804 22.5252 -0.785956 14.0766 2.71794 7.35866C2.91594 6.96349 2.75523 6.48296 2.359 6.28553C1.96268 6.08794 1.48112 6.24833 1.2832 6.64359C-2.76008 14.3961 3.27721 24.1447 12.0496 23.9984C27.9849 23.3958 27.982 0.600922 12.0495 0Z" fill="white"/>
<path d="M4.84046 8.65103L6.04801 16.914C6.10551 17.3071 6.44337 17.5986 6.84161 17.5986H17.2576C17.6559 17.5986 17.9938 17.3071 18.0512 16.914L19.2587 8.65103C19.3073 8.31801 19.1419 7.99028 18.8447 7.83101C18.5479 7.67174 18.1824 7.71501 17.9308 7.93916L14.7873 10.7415L12.7759 6.45989C12.497 5.85049 11.6023 5.85073 11.3236 6.45989L9.31221 10.7415L6.16862 7.93916C5.91713 7.71493 5.55185 7.67166 5.25474 7.83101C4.95722 7.99028 4.79178 8.31801 4.84046 8.65103ZM9.04661 12.6506C9.23546 12.819 9.49313 12.8887 9.74156 12.8379C9.98992 12.7873 10.1996 12.6225 10.3071 12.3936L12.0495 8.68447L13.7921 12.3936C13.8996 12.6225 14.1093 12.7873 14.3576 12.8379C14.606 12.8885 14.8636 12.8191 15.0526 12.6506L17.3531 10.5998L16.5641 15.9987H7.53504L6.74602 10.5998L9.04661 12.6506Z" fill="white"/>
<path d="M4.11039 4.88031C4.31576 4.88031 4.52114 4.80216 4.67775 4.64585C4.99091 4.33347 4.99091 3.82694 4.67775 3.51456C4.36452 3.20218 3.85689 3.20218 3.54358 3.51456L3.5431 3.51504C3.22994 3.82742 3.23018 4.33371 3.54334 4.64609C3.69996 4.80232 3.90509 4.88031 4.11039 4.88031Z" fill="white"/>
</g>
<defs>
<clipPath id="clip0_3259_18725">
<rect width="24" height="24" fill="white"/>
</clipPath>
</defs>
</svg>
