<svg width="24" height="24" viewBox="0 0 24 24" fill="none" xmlns="http://www.w3.org/2000/svg">
<path d="M9.89051 17.8693V24L14.1093 22.1213V17.8693L20.7285 11.25H3.27124L9.89051 17.8693Z" fill="#EF3737"/>
<path d="M12 3.51562C11.6121 3.51562 11.2969 3.83081 11.2969 4.21875C11.2969 4.60669 11.6121 4.92188 12 4.92188C13.1632 4.92188 14.1094 5.86809 14.1094 7.03125C14.1094 7.94672 13.5198 8.71988 12.7031 9.01111V9.84375H15.7178C16.879 8.80083 17.625 7.29769 17.625 5.625C17.625 2.7592 15.4741 0.349594 12.7031 0V2.23889C13.5198 2.53012 14.1094 3.30328 14.1094 4.21875H12.7031C12.7031 3.83081 12.3879 3.51562 12 3.51562Z" fill="#EF3737"/>
<path d="M6.375 5.625C6.375 7.29769 7.12106 8.80083 8.28225 9.84375H11.2969V9.01111C10.4802 8.71988 9.89062 7.94672 9.89062 7.03125H11.2969C11.2969 7.41919 11.6121 7.73438 12 7.73438C12.3879 7.73438 12.7031 7.41919 12.7031 7.03125C12.7031 6.64331 12.3879 6.32812 12 6.32812C10.8368 6.32812 9.89062 5.38191 9.89062 4.21875C9.89062 3.30328 10.4802 2.53012 11.2969 2.23889V0C8.52591 0.349594 6.375 2.7592 6.375 5.625Z" fill="#EF3737"/>
</svg>
