<svg width="24" height="25" viewBox="0 0 24 25" fill="none" xmlns="http://www.w3.org/2000/svg">
<g clip-path="url(#clip0_4507_342)">
<path d="M21.3334 2.7561H2.66671C2.31309 2.7561 1.97395 2.89658 1.7239 3.14663C1.47385 3.39668 1.33337 3.73581 1.33337 4.08944V20.0894C1.33337 20.4431 1.47385 20.7822 1.7239 21.0322C1.97395 21.2823 2.31309 21.4228 2.66671 21.4228H21.3334C21.687 21.4228 22.0261 21.2823 22.2762 21.0322C22.5262 20.7822 22.6667 20.4431 22.6667 20.0894V4.08944C22.6667 3.73581 22.5262 3.39668 22.2762 3.14663C22.0261 2.89658 21.687 2.7561 21.3334 2.7561ZM2.66671 20.0894V4.08944H21.3334V20.0894H2.66671Z" fill="white"/>
<path d="M5.94666 9.42285C6.34222 9.42285 6.7289 9.30555 7.0578 9.08579C7.38669 8.86603 7.64304 8.55367 7.79441 8.18822C7.94579 7.82277 7.9854 7.42063 7.90823 7.03267C7.83106 6.64471 7.64057 6.28834 7.36087 6.00864C7.08116 5.72893 6.7248 5.53845 6.33684 5.46128C5.94887 5.38411 5.54674 5.42372 5.18129 5.57509C4.81584 5.72647 4.50348 5.98281 4.28372 6.31171C4.06395 6.64061 3.94666 7.02729 3.94666 7.42285C3.94666 7.95329 4.15737 8.46199 4.53244 8.83707C4.90751 9.21214 5.41622 9.42285 5.94666 9.42285ZM5.94666 6.35619C6.1579 6.35487 6.36478 6.4163 6.54107 6.5327C6.71736 6.6491 6.85511 6.81523 6.93687 7.01002C7.01862 7.2048 7.0407 7.41948 7.0003 7.62683C6.9599 7.83418 6.85884 8.02487 6.70993 8.17471C6.56102 8.32455 6.37098 8.42681 6.16388 8.46851C5.95679 8.51021 5.74198 8.48948 5.54668 8.40895C5.35138 8.32841 5.1844 8.1917 5.06689 8.01615C4.94939 7.84059 4.88666 7.6341 4.88666 7.42285C4.8884 7.14226 5.00064 6.87366 5.19905 6.67525C5.39746 6.47684 5.66607 6.3646 5.94666 6.36285V6.35619Z" fill="white"/>
<path d="M15.1867 10.3362L11.5867 13.9362L8.91999 11.2695C8.79508 11.1454 8.62611 11.0757 8.44999 11.0757C8.27387 11.0757 8.1049 11.1454 7.97999 11.2695L3.94666 15.3562V17.2429L8.47332 12.7162L10.6667 14.8762L8.16666 17.3762H9.99999L15.6333 11.7429L20 16.0895V14.2095L16.1267 10.3362C16.0017 10.212 15.8328 10.1423 15.6567 10.1423C15.4805 10.1423 15.3116 10.212 15.1867 10.3362Z" fill="white"/>
</g>
<defs>
<clipPath id="clip0_4507_342">
<rect width="24" height="24" fill="white" transform="translate(0 0.0894775)"/>
</clipPath>
</defs>
</svg>
