<svg width="20" height="20" viewBox="0 0 20 20" fill="currentColor" xmlns="http://www.w3.org/2000/svg">
<path d="M8 3.25V3.5H12V3.25C12 2.71957 11.7893 2.21086 11.4142 1.83579C11.0391 1.46071 10.5304 1.25 10 1.25C9.46957 1.25 8.96086 1.46071 8.58579 1.83579C8.21071 2.21086 8 2.71957 8 3.25ZM6.75 3.5V3.25C6.75 2.38805 7.09241 1.5614 7.7019 0.951903C8.3114 0.34241 9.13805 0 10 0C10.862 0 11.6886 0.34241 12.2981 0.951903C12.9076 1.5614 13.25 2.38805 13.25 3.25V3.5H18.875C19.0408 3.5 19.1997 3.56585 19.3169 3.68306C19.4342 3.80027 19.5 3.95924 19.5 4.125C19.5 4.29076 19.4342 4.44973 19.3169 4.56694C19.1997 4.68415 19.0408 4.75 18.875 4.75H17.4165L16.4165 16.678C16.3405 17.5838 15.927 18.428 15.2579 19.0433C14.5888 19.6586 13.713 20 12.804 20H7.196C6.2871 19.9999 5.41139 19.6584 4.7424 19.0431C4.07341 18.4279 3.65997 17.5837 3.584 16.678L2.584 4.75H1.125C0.95924 4.75 0.800269 4.68415 0.683058 4.56694C0.565848 4.44973 0.5 4.29076 0.5 4.125C0.5 3.95924 0.565848 3.80027 0.683058 3.68306C0.800269 3.56585 0.95924 3.5 1.125 3.5H6.75ZM4.8295 16.5735C4.87927 17.1669 5.15015 17.72 5.58845 18.1231C6.02676 18.5262 6.60051 18.75 7.196 18.75H12.804C13.3996 18.7501 13.9735 18.5264 14.4119 18.1233C14.8503 17.7201 15.1212 17.167 15.171 16.5735L16.162 4.75H3.838L4.8295 16.5735ZM8.75 8.125C8.75 8.04292 8.73383 7.96165 8.70243 7.88582C8.67102 7.80999 8.62498 7.74109 8.56694 7.68306C8.50891 7.62502 8.44001 7.57898 8.36418 7.54757C8.28835 7.51617 8.20708 7.5 8.125 7.5C8.04292 7.5 7.96165 7.51617 7.88582 7.54757C7.80999 7.57898 7.74109 7.62502 7.68306 7.68306C7.62502 7.74109 7.57898 7.80999 7.54757 7.88582C7.51617 7.96165 7.5 8.04292 7.5 8.125V15.375C7.5 15.4571 7.51617 15.5383 7.54757 15.6142C7.57898 15.69 7.62502 15.7589 7.68306 15.8169C7.74109 15.875 7.80999 15.921 7.88582 15.9524C7.96165 15.9838 8.04292 16 8.125 16C8.20708 16 8.28835 15.9838 8.36418 15.9524C8.44001 15.921 8.50891 15.875 8.56694 15.8169C8.62498 15.7589 8.67102 15.69 8.70243 15.6142C8.73383 15.5383 8.75 15.4571 8.75 15.375V8.125ZM11.875 7.5C12.22 7.5 12.5 7.78 12.5 8.125V15.375C12.5 15.5408 12.4342 15.6997 12.3169 15.8169C12.1997 15.9342 12.0408 16 11.875 16C11.7092 16 11.5503 15.9342 11.4331 15.8169C11.3158 15.6997 11.25 15.5408 11.25 15.375V8.125C11.25 7.78 11.53 7.5 11.875 7.5Z" fill="currentColor"/>
</svg>
