<svg version="1.2" xmlns="http://www.w3.org/2000/svg" viewBox="0 0 24 24" width="24" height="24"><style>.a{fill:#fff}</style><path fill-rule="evenodd" class="a" d="m18 6.1h2.4q0.2 0 0.4 0.2 0.2 0.1 0.2 0.4 0 0.2-0.2 0.4-0.2 0.2-0.4 0.2h-2.4v2.4q0 0.2-0.2 0.4-0.2 0.2-0.4 0.2-0.2 0-0.4-0.2-0.2-0.2-0.2-0.4v-2.4h-2.4q-0.2 0-0.4-0.2-0.2-0.2-0.2-0.4 0-0.3 0.2-0.4 0.2-0.2 0.4-0.2h2.4v-2.4q0-0.3 0.2-0.4 0.2-0.2 0.4-0.2 0.2 0 0.4 0.2 0.2 0.1 0.2 0.4zm-12.6 14.4c-0.5 0-0.9-0.2-1.3-0.5-0.3-0.4-0.5-0.8-0.5-1.3v-13.2c0-0.5 0.2-0.9 0.5-1.3 0.4-0.3 0.8-0.5 1.3-0.5h5.4c0.5 0 0.9 0.2 1.3 0.5 0.3 0.4 0.5 0.8 0.5 1.3v6h6c0.5 0 0.9 0.2 1.3 0.5 0.3 0.4 0.5 0.8 0.5 1.3v5.4c0 0.5-0.2 0.9-0.5 1.3-0.4 0.3-0.8 0.5-1.3 0.5zm7.2-7.8v6.6h6q0.2 0 0.4-0.2 0.2-0.2 0.2-0.4v-5.4q0-0.3-0.2-0.4-0.2-0.2-0.4-0.2zm-1.2 6.6v-6.6h-6.6v6q0 0.2 0.2 0.4 0.2 0.2 0.4 0.2zm0-13.8q0-0.3-0.2-0.4-0.2-0.2-0.4-0.2h-5.4q-0.2 0-0.4 0.2-0.2 0.1-0.2 0.4v6h6.6z"/></svg>