<svg width="24" height="24" viewBox="0 0 24 24" fill="none" xmlns="http://www.w3.org/2000/svg">
<g clip-path="url(#clip0_3260_18742)">
<path d="M0.75 4.24252H12.169C12.5131 5.80903 13.9121 6.98508 15.5805 6.98508C17.2488 6.98508 18.6478 5.80908 18.9919 4.24252H23.25C23.6642 4.24252 24 3.9067 24 3.49252C24 3.07833 23.6642 2.74252 23.25 2.74252H18.9915C18.6467 1.1768 17.2459 0 15.5805 0C13.9141 0 12.5139 1.17661 12.1693 2.74252H0.75C0.335812 2.74252 0 3.07833 0 3.49252C0 3.9067 0.335812 4.24252 0.75 4.24252ZM13.588 3.49448C13.588 3.49181 13.588 3.48909 13.588 3.48642C13.5913 2.39109 14.4851 1.50005 15.5805 1.50005C16.6743 1.50005 17.5681 2.38988 17.5728 3.48469L17.573 3.4957C17.5712 4.59291 16.6781 5.48512 15.5805 5.48512C14.4833 5.48512 13.5904 4.5938 13.5879 3.49725L13.588 3.49448ZM23.25 19.7807H18.9915C18.6467 18.215 17.2459 17.0382 15.5805 17.0382C13.9141 17.0382 12.5139 18.2148 12.1693 19.7807H0.75C0.335812 19.7807 0 20.1165 0 20.5307C0 20.9449 0.335812 21.2807 0.75 21.2807H12.169C12.5131 22.8472 13.9121 24.0232 15.5805 24.0232C17.2488 24.0232 18.6478 22.8472 18.9919 21.2807H23.25C23.6642 21.2807 24 20.9449 24 20.5307C24 20.1165 23.6642 19.7807 23.25 19.7807ZM15.5805 22.5232C14.4833 22.5232 13.5904 21.6319 13.5879 20.5354L13.588 20.5327C13.588 20.5299 13.588 20.5273 13.588 20.5246C13.5913 19.4293 14.4851 18.5382 15.5805 18.5382C16.6743 18.5382 17.5681 19.428 17.5728 20.5228L17.573 20.5338C17.5714 21.6311 16.6782 22.5232 15.5805 22.5232ZM23.25 11.2616H11.831C11.4869 9.69511 10.0879 8.51911 8.41955 8.51911C6.75117 8.51911 5.35223 9.69511 5.00808 11.2616H0.75C0.335812 11.2616 0 11.5974 0 12.0116C0 12.4259 0.335812 12.7616 0.75 12.7616H5.00845C5.35331 14.3273 6.75413 15.5041 8.41955 15.5041C10.0859 15.5041 11.4861 14.3275 11.8307 12.7616H23.25C23.6642 12.7616 24 12.4259 24 12.0116C24 11.5974 23.6642 11.2616 23.25 11.2616ZM10.412 12.0097C10.412 12.0124 10.412 12.015 10.412 12.0177C10.4087 13.113 9.51492 14.0041 8.41955 14.0041C7.32572 14.0041 6.43191 13.1143 6.42717 12.0195L6.42703 12.0085C6.42867 10.9112 7.32188 10.0191 8.41955 10.0191C9.5167 10.0191 10.4096 10.9104 10.4121 12.007L10.412 12.0097Z" fill="white"/>
</g>
<defs>
<clipPath id="clip0_3260_18742">
<rect width="24" height="24" fill="white"/>
</clipPath>
</defs>
</svg>
