<svg width="24" height="24" viewBox="0 0 24 24" fill="none" xmlns="http://www.w3.org/2000/svg">
<g clip-path="url(#clip0_3259_18731)">
<path d="M9.81281 23.6704C9.57703 23.6704 9.3509 23.5767 9.18417 23.41C9.01745 23.2433 8.92378 23.0171 8.92378 22.7813V14.2333L0.682433 5.16957C0.358013 4.81207 0.144334 4.36809 0.06733 3.89151C-0.0096737 3.41493 0.0533084 2.92625 0.248632 2.48477C0.443956 2.04329 0.763224 1.668 1.16769 1.40444C1.57215 1.14088 2.04442 1.00038 2.52718 1H21.5436C22.0264 1.00038 22.4986 1.14088 22.9031 1.40444C23.3076 1.668 23.6268 2.04329 23.8222 2.48477C24.0175 2.92625 24.0805 3.41493 24.0035 3.89151C23.9265 4.36809 23.7128 4.81207 23.3884 5.16957L15.147 14.2333V19.2252C15.1469 19.3584 15.1169 19.4898 15.0592 19.6099C15.0015 19.7299 14.9176 19.8354 14.8136 19.9186L10.3685 23.4748C10.2109 23.6012 10.0149 23.6702 9.81281 23.6704ZM2.52718 2.77807C2.38884 2.77841 2.25356 2.81885 2.13772 2.89448C2.02188 2.97011 1.93044 3.07769 1.87448 3.20421C1.81851 3.33072 1.80041 3.47075 1.82237 3.60734C1.84433 3.74392 1.9054 3.87122 1.9982 3.97382L10.4707 13.3087C10.6159 13.4683 10.698 13.6753 10.7018 13.891V20.9321L13.369 18.7807V13.891C13.3684 13.6691 13.4509 13.4551 13.6001 13.2909L22.0726 3.95604C22.1599 3.85298 22.2162 3.72733 22.2351 3.59361C22.254 3.45989 22.2346 3.32356 22.1793 3.20036C22.124 3.07716 22.0349 2.97214 21.9225 2.89741C21.81 2.82268 21.6786 2.78131 21.5436 2.77807H2.52718Z" fill="white"/>
</g>
<defs>
<clipPath id="clip0_3259_18731">
<rect width="24" height="24" fill="white"/>
</clipPath>
</defs>
</svg>
