<svg width="18" height="19" viewBox="0 0 18 19" fill="none" xmlns="http://www.w3.org/2000/svg">
<path fill-rule="evenodd" clip-rule="evenodd" d="M10.4947 14.874C10.4947 15.04 10.558 15.1992 10.6706 15.3166C10.7832 15.434 10.936 15.5 11.0953 15.5H15.8995C16.0587 15.5 16.2115 15.434 16.3241 15.3166C16.4367 15.1992 16.5 15.04 16.5 14.874V9.86556C16.5 9.69952 16.4367 9.54028 16.3241 9.42287C16.2115 9.30547 16.0587 9.23951 15.8995 9.23951C15.7402 9.23951 15.5875 9.30547 15.4748 9.42287C15.3622 9.54028 15.2989 9.69952 15.2989 9.86556V13.121L10.9595 7.5905C10.9064 7.5229 10.8403 7.46765 10.7655 7.42829C10.6906 7.38894 10.6087 7.36635 10.525 7.36199C10.4413 7.35762 10.3576 7.37158 10.2794 7.40295C10.2011 7.43433 10.1301 7.48243 10.0708 7.54417L6.96363 10.7833L2.57257 4.48905C2.47651 4.36171 2.33685 4.27815 2.18293 4.25592C2.02901 4.2337 1.87282 4.27453 1.74717 4.36985C1.62153 4.46517 1.53622 4.60755 1.50917 4.76707C1.48212 4.92659 1.51544 5.09083 1.60212 5.22528L6.40634 12.1118C6.45733 12.1851 6.52295 12.2459 6.59866 12.2901C6.67438 12.3344 6.7584 12.361 6.84493 12.3681C6.93146 12.3753 7.01845 12.3628 7.0999 12.3315C7.18135 12.3002 7.25533 12.2509 7.31674 12.1869L10.4503 8.91897L14.6324 14.2479H11.0953C10.936 14.2479 10.7832 14.3139 10.6706 14.4313C10.558 14.5487 10.4947 14.7079 10.4947 14.874Z" fill="#EF3737"/>
</svg>
