<svg width="18" height="19" viewBox="0 0 18 19" fill="none" xmlns="http://www.w3.org/2000/svg">
<path fill-rule="evenodd" clip-rule="evenodd" d="M10.4947 4.12605C10.4947 3.96001 10.558 3.80077 10.6706 3.68337C10.7832 3.56596 10.936 3.5 11.0953 3.5H15.8995C16.0587 3.5 16.2115 3.56596 16.3241 3.68337C16.4367 3.80077 16.5 3.96001 16.5 4.12605V9.13444C16.5 9.30048 16.4367 9.45972 16.3241 9.57713C16.2115 9.69453 16.0587 9.76049 15.8995 9.76049C15.7402 9.76049 15.5875 9.69453 15.4748 9.57713C15.3622 9.45972 15.2989 9.30048 15.2989 9.13444V5.87899L10.9595 11.4095C10.9064 11.4771 10.8403 11.5324 10.7655 11.5717C10.6906 11.6111 10.6087 11.6337 10.525 11.638C10.4413 11.6424 10.3576 11.6284 10.2794 11.597C10.2011 11.5657 10.1301 11.5176 10.0708 11.4558L6.96363 8.21665L2.57257 14.511C2.47651 14.6383 2.33685 14.7218 2.18293 14.7441C2.02901 14.7663 1.87282 14.7255 1.74717 14.6301C1.62153 14.5348 1.53622 14.3924 1.50917 14.2329C1.48212 14.0734 1.51544 13.9092 1.60212 13.7747L6.40634 6.88818C6.45733 6.81495 6.52295 6.75411 6.59866 6.70986C6.67438 6.66561 6.7584 6.639 6.84493 6.63186C6.93146 6.62472 7.01845 6.63722 7.0999 6.6685C7.18135 6.69978 7.25533 6.7491 7.31674 6.81305L10.4503 10.081L14.6324 4.7521H11.0953C10.936 4.7521 10.7832 4.68614 10.6706 4.56873C10.558 4.45133 10.4947 4.29209 10.4947 4.12605Z" fill="#1AB394"/>
</svg>
