<svg version="1.2" xmlns="http://www.w3.org/2000/svg" viewBox="0 0 24 24" width="24" height="24"><defs><clipPath clipPathUnits="userSpaceOnUse" id="cp1"><path d="m0 0.09h24v24h-24z"/></clipPath></defs><style>.a{fill:#fff}</style><g clip-path="url(#cp1)"><path class="a" d="m21.8 9.8v11.2c0 1.2-1.1 2.3-2.3 2.3h-15c-1.2 0-2.3-1.1-2.3-2.3v-11.2c0-1.3 1.1-2.4 2.3-2.4h4.2c0.3 0 0.5 0.3 0.5 0.5 0 0.3-0.2 0.5-0.5 0.5h-4.2c-0.7 0-1.4 0.6-1.4 1.4v11.2c0 0.7 0.7 1.4 1.4 1.4h15c0.7 0 1.4-0.7 1.4-1.4v-11.2c0-0.8-0.7-1.4-1.4-1.4h-3.8c-0.2 0-0.4-0.2-0.4-0.5 0-0.2 0.2-0.5 0.4-0.5h3.8c1.2 0 2.3 1.1 2.3 2.4z"/><path class="a" d="m8.2 10.6l3.3 3.4v-13.4c0-0.3 0.2-0.5 0.5-0.5 0.3 0 0.5 0.2 0.5 0.5v13.4l3.3-3.4c0.2-0.2 0.5-0.2 0.6 0 0.2 0.2 0.2 0.5 0 0.7l-4.1 4.1q-0.1 0.1-0.3 0.1-0.2 0-0.3-0.1l-4.2-4.1c-0.1-0.2-0.1-0.5 0-0.7 0.2-0.2 0.5-0.2 0.7 0z"/></g></svg>