<svg width="260" height="57" viewBox="0 0 260 57" fill="none" xmlns="http://www.w3.org/2000/svg">
<path d="M37.8475 12.0864L34.2907 21.8129H41.6132L37.8475 12.0864ZM38.787 9.78522L46.214 28.9282H44.3311L42.0299 23.1747H33.7657L31.674 28.9282H30L36.9042 9.78467L38.787 9.78522Z" fill="white"/>
<path d="M54.7915 28.9282V9.78467H65.148V11.0397H56.5699V18.4672H62.3235V19.7223H56.5699V27.5698H65.7753V28.9282H54.7915Z" fill="white"/>
<path d="M74.4583 26.7305C75.1037 27.0205 75.7684 27.2651 76.4478 27.4628C77.3342 27.7118 78.2476 27.8523 79.1679 27.8811C80.4564 27.957 81.7364 27.6285 82.8292 26.9416C83.2199 26.6502 83.5369 26.2714 83.7549 25.8354C83.9728 25.3994 84.0856 24.9184 84.0842 24.431C84.0842 22.2342 82.3058 20.6653 78.854 19.7236C75.4022 18.7819 73.6216 16.8973 73.7266 13.9683C73.7287 13.3192 73.8808 12.6793 74.1711 12.0986C74.4614 11.5179 74.882 11.0122 75.4 10.621C76.6173 9.66223 78.1417 9.17884 79.6891 9.26093C80.5705 9.2558 81.449 9.36125 82.3042 9.57483C83.022 9.75551 83.7221 10.0006 84.3959 10.3071L83.7681 11.6671C83.2448 11.4577 82.722 11.2488 82.0942 11.0393C81.3103 10.8256 80.5009 10.72 79.6885 10.7254C78.5816 10.6787 77.4868 10.9705 76.55 11.5621C76.2082 11.8606 75.937 12.2313 75.756 12.6474C75.5751 13.0636 75.489 13.5148 75.5039 13.9683C75.5039 16.1651 77.2823 17.8368 80.7341 18.7802C84.1859 19.7236 85.9649 21.6048 85.8599 24.4288C85.8847 25.1084 85.7341 25.783 85.4226 26.3875C85.1111 26.9921 84.6493 27.5063 84.0815 27.8806C82.7402 28.831 81.1215 29.3094 79.479 29.2406C78.4251 29.2399 77.3738 29.1347 76.3406 28.9267C75.5664 28.7226 74.8262 28.4061 74.1438 27.9872L74.4583 26.7305Z" fill="white"/>
<path d="M97.5763 9.78467H95.7979V28.9282H97.5763V9.78467Z" fill="white"/>
<path d="M120.485 28.8253L115.987 20.6661C115.987 20.6661 115.048 20.7706 113.791 20.7706H110.966V28.7209H109.188V9.78678H114.106C115.832 9.72929 117.538 10.1646 119.025 11.0418C119.691 11.5064 120.225 12.1366 120.574 12.8702C120.923 13.6039 121.075 14.4158 121.014 15.2259C121.025 16.3429 120.698 17.437 120.075 18.3644C119.46 19.2436 118.581 19.9034 117.565 20.2472L122.483 28.8248L120.485 28.8253ZM114.104 11.2513H110.861V19.3061H113.79C115.097 19.3632 116.396 19.0746 117.556 18.4694C118.707 17.8416 119.23 16.7954 119.23 15.2264C119.23 13.6575 118.916 12.5069 117.87 11.9835C116.685 11.4607 115.398 11.2104 114.104 11.2513V11.2513Z" fill="white"/>
<path d="M129.448 1.75293V21.1242" stroke="white" stroke-width="2"/>
<path d="M124.436 5.81787L135 16.7906" stroke="white" stroke-width="2"/>
<path d="M31.0387 51.2471V41.7925H34.4087C35.1443 41.7925 35.7537 41.9264 36.2369 42.1942C36.7201 42.4619 37.0817 42.8282 37.3217 43.2929C37.5618 43.7545 37.6818 44.2747 37.6818 44.8532C37.6818 45.4349 37.5603 45.9581 37.3171 46.4229C37.0771 46.8845 36.7139 47.2507 36.2276 47.5216C35.7444 47.7893 35.1366 47.9232 34.4041 47.9232H32.0866V46.7137H34.2749C34.7396 46.7137 35.1166 46.6337 35.4059 46.4736C35.6952 46.3105 35.9076 46.0889 36.043 45.8089C36.1784 45.5288 36.2461 45.2103 36.2461 44.8532C36.2461 44.4962 36.1784 44.1792 36.043 43.9023C35.9076 43.6253 35.6937 43.4083 35.4013 43.2513C35.112 43.0944 34.7304 43.0159 34.2564 43.0159H32.4652V51.2471H31.0387ZM39.2433 51.2471V44.1562H40.5775V45.2826H40.6514C40.7806 44.901 41.0084 44.6009 41.3346 44.3824C41.6639 44.1608 42.0363 44.05 42.4518 44.05C42.538 44.05 42.6395 44.0531 42.7565 44.0592C42.8765 44.0654 42.9704 44.0731 43.0381 44.0823V45.4026C42.9827 45.3872 42.8842 45.3703 42.7426 45.3518C42.6011 45.3303 42.4595 45.3195 42.3179 45.3195C41.9917 45.3195 41.7008 45.3888 41.4454 45.5273C41.193 45.6627 40.993 45.8519 40.8453 46.0951C40.6975 46.3351 40.6237 46.609 40.6237 46.9168V51.2471H39.2433ZM46.9656 51.3902C46.3008 51.3902 45.7206 51.2378 45.2251 50.9331C44.7296 50.6285 44.3449 50.2022 44.071 49.6544C43.7971 49.1066 43.6602 48.4664 43.6602 47.7339C43.6602 46.9984 43.7971 46.3551 44.071 45.8042C44.3449 45.2533 44.7296 44.8256 45.2251 44.5209C45.7206 44.2162 46.3008 44.0638 46.9656 44.0638C47.6303 44.0638 48.2105 44.2162 48.706 44.5209C49.2015 44.8256 49.5862 45.2533 49.8601 45.8042C50.134 46.3551 50.271 46.9984 50.271 47.7339C50.271 48.4664 50.134 49.1066 49.8601 49.6544C49.5862 50.2022 49.2015 50.6285 48.706 50.9331C48.2105 51.2378 47.6303 51.3902 46.9656 51.3902ZM46.9702 50.2314C47.401 50.2314 47.758 50.1176 48.0412 49.8898C48.3243 49.6621 48.5336 49.3589 48.669 48.9804C48.8075 48.6018 48.8768 48.1848 48.8768 47.7293C48.8768 47.2769 48.8075 46.8614 48.669 46.4829C48.5336 46.1012 48.3243 45.795 48.0412 45.5642C47.758 45.3334 47.401 45.218 46.9702 45.218C46.5362 45.218 46.1761 45.3334 45.8899 45.5642C45.6068 45.795 45.396 46.1012 45.2575 46.4829C45.122 46.8614 45.0543 47.2769 45.0543 47.7293C45.0543 48.1848 45.122 48.6018 45.2575 48.9804C45.396 49.3589 45.6068 49.6621 45.8899 49.8898C46.1761 50.1176 46.5362 50.2314 46.9702 50.2314ZM54.4662 51.3856C53.8937 51.3856 53.3828 51.2394 52.9335 50.947C52.4872 50.6515 52.1364 50.2314 51.8809 49.6867C51.6286 49.1389 51.5024 48.4818 51.5024 47.7155C51.5024 46.9491 51.6301 46.2936 51.8856 45.7488C52.1441 45.2041 52.498 44.7871 52.9474 44.4978C53.3967 44.2085 53.906 44.0638 54.4754 44.0638C54.9155 44.0638 55.2694 44.1377 55.5372 44.2854C55.808 44.4301 56.0173 44.5993 56.165 44.7932C56.3158 44.9871 56.4328 45.1579 56.5159 45.3057H56.599V41.7925H57.9793V51.2471H56.6313V50.1437H56.5159C56.4328 50.2945 56.3128 50.4669 56.1558 50.6608C56.0019 50.8547 55.7896 51.0239 55.5187 51.1686C55.2479 51.3132 54.897 51.3856 54.4662 51.3856ZM54.7709 50.2084C55.1679 50.2084 55.5033 50.1037 55.7773 49.8944C56.0542 49.6821 56.2635 49.3882 56.4051 49.0127C56.5497 48.6372 56.6221 48.2002 56.6221 47.7016C56.6221 47.2092 56.5513 46.7783 56.4097 46.409C56.2681 46.0397 56.0604 45.7519 55.7865 45.5457C55.5126 45.3395 55.174 45.2364 54.7709 45.2364C54.3554 45.2364 54.0091 45.3441 53.7322 45.5596C53.4552 45.775 53.2459 46.0689 53.1043 46.4413C52.9658 46.8137 52.8966 47.2338 52.8966 47.7016C52.8966 48.1756 52.9674 48.6018 53.1089 48.9804C53.2505 49.3589 53.4598 49.659 53.7368 49.8806C54.0168 50.0991 54.3615 50.2084 54.7709 50.2084ZM64.4412 48.3064V44.1562H65.8262V51.2471H64.4689V50.0191H64.3951C64.2319 50.3976 63.9703 50.7131 63.6103 50.9655C63.2533 51.2148 62.8085 51.3394 62.2761 51.3394C61.8206 51.3394 61.4174 51.2394 61.0666 51.0393C60.7188 50.8362 60.4449 50.5361 60.2449 50.1391C60.0479 49.7421 59.9494 49.2512 59.9494 48.6665V44.1562H61.3297V48.5003C61.3297 48.9835 61.4636 49.3682 61.7314 49.6544C61.9991 49.9406 62.3469 50.0837 62.7747 50.0837C63.0332 50.0837 63.2902 50.0191 63.5456 49.8898C63.8042 49.7606 64.0181 49.5651 64.1873 49.3035C64.3597 49.0419 64.4443 48.7095 64.4412 48.3064ZM70.6677 51.3902C69.9814 51.3902 69.3905 51.2348 68.895 50.9239C68.4026 50.61 68.024 50.1776 67.7593 49.6267C67.4946 49.0758 67.3623 48.4449 67.3623 47.7339C67.3623 47.0138 67.4977 46.3782 67.7686 45.8273C68.0394 45.2733 68.421 44.8409 68.9134 44.5301C69.4059 44.2193 69.986 44.0638 70.6539 44.0638C71.1924 44.0638 71.6726 44.1639 72.0942 44.3639C72.5158 44.5609 72.8559 44.8379 73.1144 45.1949C73.376 45.5519 73.5315 45.9689 73.5807 46.4459H72.2373C72.1634 46.1135 71.9942 45.8273 71.7295 45.5873C71.4679 45.3472 71.117 45.2272 70.6769 45.2272C70.2922 45.2272 69.9552 45.3287 69.6659 45.5319C69.3797 45.7319 69.1566 46.0181 68.9965 46.3905C68.8365 46.7599 68.7565 47.1969 68.7565 47.7016C68.7565 48.2187 68.835 48.6649 68.9919 49.0404C69.1489 49.4159 69.3705 49.7067 69.6567 49.9129C69.946 50.1191 70.2861 50.2222 70.6769 50.2222C70.9385 50.2222 71.1755 50.1745 71.3879 50.0791C71.6033 49.9806 71.7834 49.8406 71.928 49.659C72.0757 49.4774 72.1788 49.2589 72.2373 49.0035H73.5807C73.5315 49.462 73.3822 49.8714 73.1329 50.2314C72.8836 50.5915 72.5497 50.8747 72.1311 51.0809C71.7156 51.2871 71.2278 51.3902 70.6677 51.3902ZM78.3668 44.1562V45.2641H74.4936V44.1562H78.3668ZM75.5323 42.4573H76.9126V49.165C76.9126 49.4328 76.9527 49.6344 77.0327 49.7698C77.1127 49.9021 77.2158 49.9929 77.342 50.0422C77.4712 50.0883 77.6113 50.1114 77.7621 50.1114C77.8729 50.1114 77.9698 50.1037 78.0529 50.0883C78.136 50.0729 78.2006 50.0606 78.2468 50.0514L78.4961 51.1917C78.4161 51.2224 78.3022 51.2532 78.1545 51.284C78.0067 51.3179 77.8221 51.3363 77.6005 51.3394C77.2373 51.3456 76.8988 51.2809 76.5849 51.1455C76.271 51.0101 76.017 50.8008 75.8232 50.5177C75.6293 50.2345 75.5323 49.8791 75.5323 49.4513V42.4573ZM84.8714 41.7925V51.2471H83.445V41.7925H84.8714ZM88.2184 47.0368V51.2471H86.8381V44.1562H88.163V45.3103H88.2507C88.4138 44.9348 88.6693 44.6332 89.017 44.4055C89.3679 44.1777 89.8095 44.0638 90.342 44.0638C90.8252 44.0638 91.2483 44.1654 91.6115 44.3685C91.9747 44.5686 92.2563 44.8671 92.4563 45.2641C92.6564 45.6611 92.7564 46.152 92.7564 46.7368V51.2471H91.3761V46.903C91.3761 46.389 91.2422 45.9874 90.9744 45.6981C90.7067 45.4057 90.3389 45.2595 89.8711 45.2595C89.551 45.2595 89.2663 45.3287 89.017 45.4672C88.7708 45.6057 88.5754 45.8089 88.4308 46.0766C88.2892 46.3413 88.2184 46.6614 88.2184 47.0368ZM97.9822 44.1562V45.2641H93.9751V44.1562H97.9822ZM95.0739 51.2471V43.3344C95.0739 42.8912 95.1708 42.5235 95.3647 42.2311C95.5586 41.9356 95.8156 41.7156 96.1357 41.5709C96.4557 41.4232 96.8035 41.3493 97.179 41.3493C97.456 41.3493 97.6929 41.3724 97.8899 41.4186C98.0869 41.4617 98.2331 41.5017 98.3285 41.5386L98.0053 42.6558C97.9407 42.6373 97.8576 42.6158 97.756 42.5912C97.6545 42.5635 97.5314 42.5496 97.3867 42.5496C97.0513 42.5496 96.8112 42.6327 96.6665 42.7989C96.525 42.9651 96.4542 43.2052 96.4542 43.5191V51.2471H95.0739ZM102.114 51.3902C101.449 51.3902 100.869 51.2378 100.374 50.9331C99.8781 50.6285 99.4934 50.2022 99.2195 49.6544C98.9455 49.1066 98.8086 48.4664 98.8086 47.7339C98.8086 46.9984 98.9455 46.3551 99.2195 45.8042C99.4934 45.2533 99.8781 44.8256 100.374 44.5209C100.869 44.2162 101.449 44.0638 102.114 44.0638C102.779 44.0638 103.359 44.2162 103.854 44.5209C104.35 44.8256 104.735 45.2533 105.009 45.8042C105.282 46.3551 105.419 46.9984 105.419 47.7339C105.419 48.4664 105.282 49.1066 105.009 49.6544C104.735 50.2022 104.35 50.6285 103.854 50.9331C103.359 51.2378 102.779 51.3902 102.114 51.3902ZM102.119 50.2314C102.549 50.2314 102.906 50.1176 103.19 49.8898C103.473 49.6621 103.682 49.3589 103.817 48.9804C103.956 48.6018 104.025 48.1848 104.025 47.7293C104.025 47.2769 103.956 46.8614 103.817 46.4829C103.682 46.1012 103.473 45.795 103.19 45.5642C102.906 45.3334 102.549 45.218 102.119 45.218C101.685 45.218 101.325 45.3334 101.038 45.5642C100.755 45.795 100.544 46.1012 100.406 46.4829C100.27 46.8614 100.203 47.2769 100.203 47.7293C100.203 48.1848 100.27 48.6018 100.406 48.9804C100.544 49.3589 100.755 49.6621 101.038 49.8898C101.325 50.1176 101.685 50.2314 102.119 50.2314ZM106.96 51.2471V44.1562H108.294V45.2826H108.368C108.497 44.901 108.725 44.6009 109.051 44.3824C109.381 44.1608 109.753 44.05 110.169 44.05C110.255 44.05 110.356 44.0531 110.473 44.0592C110.593 44.0654 110.687 44.0731 110.755 44.0823V45.4026C110.699 45.3872 110.601 45.3703 110.459 45.3518C110.318 45.3303 110.176 45.3195 110.035 45.3195C109.708 45.3195 109.418 45.3888 109.162 45.5273C108.91 45.6627 108.71 45.8519 108.562 46.0951C108.414 46.3351 108.34 46.609 108.34 46.9168V51.2471H106.96ZM111.949 51.2471V44.1562H113.274V45.3103H113.362C113.51 44.9194 113.751 44.6147 114.087 44.3962C114.422 44.1746 114.824 44.0638 115.292 44.0638C115.766 44.0638 116.163 44.1746 116.483 44.3962C116.806 44.6178 117.044 44.9225 117.198 45.3103H117.272C117.441 44.9317 117.711 44.6301 118.08 44.4055C118.449 44.1777 118.89 44.0638 119.4 44.0638C120.044 44.0638 120.568 44.2654 120.975 44.6686C121.384 45.0718 121.589 45.6796 121.589 46.4921V51.2471H120.208V46.6214C120.208 46.1412 120.077 45.7935 119.816 45.578C119.554 45.3626 119.242 45.2549 118.879 45.2549C118.429 45.2549 118.08 45.3934 117.831 45.6704C117.581 45.9443 117.457 46.2967 117.457 46.7275V51.2471H116.081V46.5336C116.081 46.1489 115.961 45.8396 115.721 45.6057C115.481 45.3718 115.169 45.2549 114.784 45.2549C114.522 45.2549 114.281 45.3241 114.059 45.4626C113.841 45.598 113.664 45.7873 113.528 46.0305C113.396 46.2736 113.33 46.5552 113.33 46.8753V51.2471H111.949ZM125.502 51.404C125.053 51.404 124.647 51.3209 124.283 51.1547C123.92 50.9855 123.633 50.7408 123.42 50.4207C123.211 50.1006 123.106 49.7082 123.106 49.2435C123.106 48.8434 123.183 48.5141 123.337 48.2556C123.491 47.9971 123.699 47.7924 123.96 47.6416C124.222 47.4908 124.514 47.3769 124.837 47.3C125.161 47.223 125.49 47.1646 125.825 47.1246C126.25 47.0753 126.595 47.0353 126.859 47.0045C127.124 46.9707 127.316 46.9168 127.437 46.843C127.557 46.7691 127.617 46.6491 127.617 46.4829V46.4506C127.617 46.0474 127.503 45.735 127.275 45.5134C127.05 45.2918 126.715 45.181 126.269 45.181C125.804 45.181 125.438 45.2841 125.17 45.4903C124.905 45.6934 124.722 45.9197 124.62 46.1689L123.323 45.8735C123.477 45.4426 123.702 45.0948 123.997 44.8302C124.296 44.5624 124.639 44.3685 125.027 44.2485C125.415 44.1254 125.822 44.0638 126.25 44.0638C126.533 44.0638 126.833 44.0977 127.15 44.1654C127.47 44.23 127.769 44.3501 128.046 44.5255C128.326 44.7009 128.555 44.9517 128.734 45.278C128.912 45.6011 129.002 46.0212 129.002 46.5383V51.2471H127.653V50.2776H127.598C127.509 50.4561 127.375 50.6315 127.196 50.8039C127.018 50.9762 126.789 51.1193 126.509 51.2332C126.229 51.3471 125.893 51.404 125.502 51.404ZM125.802 50.2961C126.184 50.2961 126.51 50.2207 126.781 50.0699C127.055 49.9191 127.263 49.7221 127.404 49.479C127.549 49.2327 127.621 48.9696 127.621 48.6895V47.7755C127.572 47.8247 127.477 47.8709 127.335 47.914C127.196 47.954 127.038 47.9894 126.859 48.0202C126.681 48.0479 126.507 48.074 126.338 48.0986C126.169 48.1202 126.027 48.1386 125.913 48.154C125.645 48.1879 125.401 48.2448 125.179 48.3248C124.961 48.4049 124.785 48.5203 124.653 48.6711C124.524 48.8188 124.459 49.0158 124.459 49.262C124.459 49.6036 124.585 49.8621 124.837 50.0376C125.09 50.2099 125.411 50.2961 125.802 50.2961ZM134.15 44.1562V45.2641H130.277V44.1562H134.15ZM131.316 42.4573H132.696V49.165C132.696 49.4328 132.736 49.6344 132.816 49.7698C132.896 49.9021 132.999 49.9929 133.125 50.0422C133.254 50.0883 133.394 50.1114 133.545 50.1114C133.656 50.1114 133.753 50.1037 133.836 50.0883C133.919 50.0729 133.984 50.0606 134.03 50.0514L134.279 51.1917C134.199 51.2224 134.085 51.2532 133.938 51.284C133.79 51.3179 133.605 51.3363 133.384 51.3394C133.021 51.3456 132.682 51.2809 132.368 51.1455C132.054 51.0101 131.8 50.8008 131.606 50.5177C131.412 50.2345 131.316 49.8791 131.316 49.4513V42.4573ZM135.677 51.2471V44.1562H137.057V51.2471H135.677ZM136.374 43.0621C136.134 43.0621 135.928 42.982 135.755 42.822C135.586 42.6589 135.502 42.465 135.502 42.2403C135.502 42.0126 135.586 41.8187 135.755 41.6586C135.928 41.4955 136.134 41.414 136.374 41.414C136.614 41.414 136.819 41.4955 136.988 41.6586C137.16 41.8187 137.247 42.0126 137.247 42.2403C137.247 42.465 137.16 42.6589 136.988 42.822C136.819 42.982 136.614 43.0621 136.374 43.0621ZM141.901 51.3902C141.236 51.3902 140.656 51.2378 140.161 50.9331C139.665 50.6285 139.28 50.2022 139.007 49.6544C138.733 49.1066 138.596 48.4664 138.596 47.7339C138.596 46.9984 138.733 46.3551 139.007 45.8042C139.28 45.2533 139.665 44.8256 140.161 44.5209C140.656 44.2162 141.236 44.0638 141.901 44.0638C142.566 44.0638 143.146 44.2162 143.642 44.5209C144.137 44.8256 144.522 45.2533 144.796 45.8042C145.07 46.3551 145.206 46.9984 145.206 47.7339C145.206 48.4664 145.07 49.1066 144.796 49.6544C144.522 50.2022 144.137 50.6285 143.642 50.9331C143.146 51.2378 142.566 51.3902 141.901 51.3902ZM141.906 50.2314C142.337 50.2314 142.694 50.1176 142.977 49.8898C143.26 49.6621 143.469 49.3589 143.605 48.9804C143.743 48.6018 143.812 48.1848 143.812 47.7293C143.812 47.2769 143.743 46.8614 143.605 46.4829C143.469 46.1012 143.26 45.795 142.977 45.5642C142.694 45.3334 142.337 45.218 141.906 45.218C141.472 45.218 141.112 45.3334 140.825 45.5642C140.542 45.795 140.331 46.1012 140.193 46.4829C140.058 46.8614 139.99 47.2769 139.99 47.7293C139.99 48.1848 140.058 48.6018 140.193 48.9804C140.331 49.3589 140.542 49.6621 140.825 49.8898C141.112 50.1176 141.472 50.2314 141.906 50.2314ZM148.128 47.0368V51.2471H146.747V44.1562H148.072V45.3103H148.16C148.323 44.9348 148.578 44.6332 148.926 44.4055C149.277 44.1777 149.719 44.0638 150.251 44.0638C150.734 44.0638 151.158 44.1654 151.521 44.3685C151.884 44.5686 152.165 44.8671 152.366 45.2641C152.566 45.6611 152.666 46.152 152.666 46.7368V51.2471H151.285V46.903C151.285 46.389 151.151 45.9874 150.884 45.6981C150.616 45.4057 150.248 45.2595 149.78 45.2595C149.46 45.2595 149.176 45.3287 148.926 45.4672C148.68 45.6057 148.485 45.8089 148.34 46.0766C148.198 46.3413 148.128 46.6614 148.128 47.0368ZM158.068 41.7925H159.799L162.809 49.142H162.92L165.93 41.7925H167.661V51.2471H166.304V44.4055H166.216L163.428 51.2332H162.301L159.513 44.4008H159.425V51.2471H158.068V41.7925ZM171.688 51.404C171.238 51.404 170.832 51.3209 170.469 51.1547C170.106 50.9855 169.818 50.7408 169.606 50.4207C169.396 50.1006 169.292 49.7082 169.292 49.2435C169.292 48.8434 169.369 48.5141 169.523 48.2556C169.677 47.9971 169.884 47.7924 170.146 47.6416C170.407 47.4908 170.7 47.3769 171.023 47.3C171.346 47.223 171.675 47.1646 172.011 47.1246C172.436 47.0753 172.78 47.0353 173.045 47.0045C173.31 46.9707 173.502 46.9168 173.622 46.843C173.742 46.7691 173.802 46.6491 173.802 46.4829V46.4506C173.802 46.0474 173.688 45.735 173.46 45.5134C173.236 45.2918 172.9 45.181 172.454 45.181C171.989 45.181 171.623 45.2841 171.355 45.4903C171.091 45.6934 170.908 45.9197 170.806 46.1689L169.509 45.8735C169.663 45.4426 169.887 45.0948 170.183 44.8302C170.481 44.5624 170.824 44.3685 171.212 44.2485C171.6 44.1254 172.008 44.0638 172.436 44.0638C172.719 44.0638 173.019 44.0977 173.336 44.1654C173.656 44.23 173.954 44.3501 174.231 44.5255C174.512 44.7009 174.741 44.9517 174.919 45.278C175.098 45.6011 175.187 46.0212 175.187 46.5383V51.2471H173.839V50.2776H173.784C173.694 50.4561 173.561 50.6315 173.382 50.8039C173.204 50.9762 172.974 51.1193 172.694 51.2332C172.414 51.3471 172.079 51.404 171.688 51.404ZM171.988 50.2961C172.369 50.2961 172.696 50.2207 172.967 50.0699C173.24 49.9191 173.448 49.7221 173.59 49.479C173.734 49.2327 173.807 48.9696 173.807 48.6895V47.7755C173.757 47.8247 173.662 47.8709 173.521 47.914C173.382 47.954 173.224 47.9894 173.045 48.0202C172.867 48.0479 172.693 48.074 172.523 48.0986C172.354 48.1202 172.213 48.1386 172.099 48.154C171.831 48.1879 171.586 48.2448 171.365 48.3248C171.146 48.4049 170.971 48.5203 170.838 48.6711C170.709 48.8188 170.644 49.0158 170.644 49.262C170.644 49.6036 170.771 49.8621 171.023 50.0376C171.275 50.2099 171.597 50.2961 171.988 50.2961ZM178.406 47.0368V51.2471H177.026V44.1562H178.35V45.3103H178.438C178.601 44.9348 178.857 44.6332 179.205 44.4055C179.555 44.1777 179.997 44.0638 180.529 44.0638C181.013 44.0638 181.436 44.1654 181.799 44.3685C182.162 44.5686 182.444 44.8671 182.644 45.2641C182.844 45.6611 182.944 46.152 182.944 46.7368V51.2471H181.564V46.903C181.564 46.389 181.43 45.9874 181.162 45.6981C180.894 45.4057 180.526 45.2595 180.059 45.2595C179.739 45.2595 179.454 45.3287 179.205 45.4672C178.958 45.6057 178.763 45.8089 178.618 46.0766C178.477 46.3413 178.406 46.6614 178.406 47.0368ZM186.859 51.404C186.409 51.404 186.003 51.3209 185.64 51.1547C185.277 50.9855 184.989 50.7408 184.777 50.4207C184.567 50.1006 184.463 49.7082 184.463 49.2435C184.463 48.8434 184.54 48.5141 184.694 48.2556C184.847 47.9971 185.055 47.7924 185.317 47.6416C185.578 47.4908 185.871 47.3769 186.194 47.3C186.517 47.223 186.846 47.1646 187.182 47.1246C187.607 47.0753 187.951 47.0353 188.216 47.0045C188.481 46.9707 188.673 46.9168 188.793 46.843C188.913 46.7691 188.973 46.6491 188.973 46.4829V46.4506C188.973 46.0474 188.859 45.735 188.631 45.5134C188.407 45.2918 188.071 45.181 187.625 45.181C187.16 45.181 186.794 45.2841 186.526 45.4903C186.262 45.6934 186.078 45.9197 185.977 46.1689L184.68 45.8735C184.834 45.4426 185.058 45.0948 185.354 44.8302C185.652 44.5624 185.995 44.3685 186.383 44.2485C186.771 44.1254 187.179 44.0638 187.607 44.0638C187.89 44.0638 188.19 44.0977 188.507 44.1654C188.827 44.23 189.125 44.3501 189.402 44.5255C189.682 44.7009 189.912 44.9517 190.09 45.278C190.269 45.6011 190.358 46.0212 190.358 46.5383V51.2471H189.01V50.2776H188.955C188.865 50.4561 188.731 50.6315 188.553 50.8039C188.374 50.9762 188.145 51.1193 187.865 51.2332C187.585 51.3471 187.25 51.404 186.859 51.404ZM187.159 50.2961C187.54 50.2961 187.867 50.2207 188.137 50.0699C188.411 49.9191 188.619 49.7221 188.761 49.479C188.905 49.2327 188.978 48.9696 188.978 48.6895V47.7755C188.928 47.8247 188.833 47.8709 188.691 47.914C188.553 47.954 188.394 47.9894 188.216 48.0202C188.037 48.0479 187.864 48.074 187.694 48.0986C187.525 48.1202 187.383 48.1386 187.27 48.154C187.002 48.1879 186.757 48.2448 186.536 48.3248C186.317 48.4049 186.142 48.5203 186.009 48.6711C185.88 48.8188 185.815 49.0158 185.815 49.262C185.815 49.6036 185.942 49.8621 186.194 50.0376C186.446 50.2099 186.768 50.2961 187.159 50.2961ZM195.169 54.0539C194.606 54.0539 194.122 53.98 193.715 53.8323C193.312 53.6846 192.983 53.4891 192.727 53.246C192.472 53.0029 192.281 52.7367 192.155 52.4474L193.341 51.958C193.424 52.0934 193.535 52.2365 193.674 52.3873C193.815 52.5412 194.006 52.672 194.246 52.7797C194.489 52.8875 194.802 52.9413 195.183 52.9413C195.707 52.9413 196.139 52.8136 196.481 52.5581C196.822 52.3058 196.993 51.9026 196.993 51.3486V49.9545H196.905C196.822 50.1053 196.702 50.273 196.545 50.4577C196.391 50.6423 196.179 50.8023 195.908 50.9378C195.637 51.0732 195.285 51.1409 194.851 51.1409C194.291 51.1409 193.786 51.0101 193.337 50.7485C192.89 50.4838 192.537 50.0945 192.275 49.5805C192.016 49.0635 191.887 48.4279 191.887 47.6739C191.887 46.9199 192.015 46.2736 192.27 45.735C192.529 45.1964 192.883 44.784 193.332 44.4978C193.781 44.2085 194.291 44.0638 194.86 44.0638C195.3 44.0638 195.656 44.1377 195.927 44.2854C196.197 44.4301 196.408 44.5993 196.559 44.7932C196.713 44.9871 196.831 45.1579 196.915 45.3057H197.016V44.1562H198.369V51.404C198.369 52.0134 198.227 52.5135 197.944 52.9044C197.661 53.2952 197.278 53.5845 196.794 53.7723C196.314 53.96 195.773 54.0539 195.169 54.0539ZM195.156 49.996C195.553 49.996 195.888 49.9037 196.162 49.719C196.439 49.5313 196.648 49.2635 196.79 48.9157C196.935 48.5649 197.007 48.1448 197.007 47.6555C197.007 47.1784 196.936 46.7583 196.794 46.3952C196.653 46.032 196.445 45.7488 196.171 45.5457C195.897 45.3395 195.559 45.2364 195.156 45.2364C194.74 45.2364 194.394 45.3441 194.117 45.5596C193.84 45.7719 193.631 46.0612 193.489 46.4275C193.351 46.7937 193.281 47.203 193.281 47.6555C193.281 48.1202 193.352 48.528 193.494 48.8788C193.635 49.2297 193.845 49.5036 194.122 49.7006C194.402 49.8975 194.746 49.996 195.156 49.996ZM203.276 51.3902C202.577 51.3902 201.976 51.2409 201.471 50.9424C200.969 50.6408 200.582 50.2176 200.308 49.6729C200.037 49.125 199.901 48.4833 199.901 47.7478C199.901 47.0215 200.037 46.3813 200.308 45.8273C200.582 45.2733 200.963 44.8409 201.453 44.5301C201.945 44.2193 202.52 44.0638 203.179 44.0638C203.579 44.0638 203.967 44.13 204.342 44.2623C204.718 44.3947 205.055 44.6024 205.353 44.8856C205.652 45.1687 205.887 45.5365 206.06 45.9889C206.232 46.4382 206.318 46.9845 206.318 47.6278V48.1171H200.682V47.083H204.966C204.966 46.7198 204.892 46.3982 204.744 46.1182C204.596 45.835 204.389 45.6119 204.121 45.4488C203.856 45.2857 203.545 45.2041 203.188 45.2041C202.801 45.2041 202.462 45.2995 202.173 45.4903C201.886 45.6781 201.665 45.9243 201.508 46.229C201.354 46.5306 201.277 46.8583 201.277 47.2123V48.0202C201.277 48.4941 201.36 48.8973 201.526 49.2297C201.696 49.5621 201.931 49.816 202.233 49.9914C202.534 50.1637 202.887 50.2499 203.29 50.2499C203.551 50.2499 203.79 50.213 204.005 50.1391C204.221 50.0622 204.407 49.9483 204.564 49.7975C204.721 49.6467 204.841 49.4605 204.924 49.2389L206.231 49.4743C206.126 49.859 205.938 50.1961 205.667 50.4854C205.4 50.7716 205.063 50.9947 204.656 51.1547C204.253 51.3117 203.793 51.3902 203.276 51.3902ZM207.85 51.2471V44.1562H209.175V45.3103H209.262C209.41 44.9194 209.652 44.6147 209.987 44.3962C210.323 44.1746 210.724 44.0638 211.192 44.0638C211.666 44.0638 212.063 44.1746 212.383 44.3962C212.706 44.6178 212.945 44.9225 213.099 45.3103H213.173C213.342 44.9317 213.611 44.6301 213.98 44.4055C214.35 44.1777 214.79 44.0638 215.301 44.0638C215.944 44.0638 216.469 44.2654 216.875 44.6686C217.284 45.0718 217.489 45.6796 217.489 46.4921V51.2471H216.109V46.6214C216.109 46.1412 215.978 45.7935 215.716 45.578C215.455 45.3626 215.142 45.2549 214.779 45.2549C214.33 45.2549 213.98 45.3934 213.731 45.6704C213.482 45.9443 213.357 46.2967 213.357 46.7275V51.2471H211.982V46.5336C211.982 46.1489 211.862 45.8396 211.621 45.6057C211.381 45.3718 211.069 45.2549 210.684 45.2549C210.423 45.2549 210.181 45.3241 209.96 45.4626C209.741 45.598 209.564 45.7873 209.429 46.0305C209.296 46.2736 209.23 46.5552 209.23 46.8753V51.2471H207.85ZM222.395 51.3902C221.697 51.3902 221.095 51.2409 220.59 50.9424C220.088 50.6408 219.701 50.2176 219.427 49.6729C219.156 49.125 219.021 48.4833 219.021 47.7478C219.021 47.0215 219.156 46.3813 219.427 45.8273C219.701 45.2733 220.082 44.8409 220.572 44.5301C221.064 44.2193 221.64 44.0638 222.298 44.0638C222.698 44.0638 223.086 44.13 223.462 44.2623C223.837 44.3947 224.174 44.6024 224.473 44.8856C224.771 45.1687 225.007 45.5365 225.179 45.9889C225.351 46.4382 225.437 46.9845 225.437 47.6278V48.1171H219.801V47.083H224.085C224.085 46.7198 224.011 46.3982 223.863 46.1182C223.715 45.835 223.508 45.6119 223.24 45.4488C222.975 45.2857 222.664 45.2041 222.307 45.2041C221.92 45.2041 221.581 45.2995 221.292 45.4903C221.006 45.6781 220.784 45.9243 220.627 46.229C220.473 46.5306 220.396 46.8583 220.396 47.2123V48.0202C220.396 48.4941 220.479 48.8973 220.646 49.2297C220.815 49.5621 221.05 49.816 221.352 49.9914C221.653 50.1637 222.006 50.2499 222.409 50.2499C222.671 50.2499 222.909 50.213 223.125 50.1391C223.34 50.0622 223.526 49.9483 223.683 49.7975C223.84 49.6467 223.96 49.4605 224.043 49.2389L225.35 49.4743C225.245 49.859 225.057 50.1961 224.786 50.4854C224.519 50.7716 224.182 50.9947 223.775 51.1547C223.372 51.3117 222.912 51.3902 222.395 51.3902ZM228.349 47.0368V51.2471H226.969V44.1562H228.294V45.3103H228.382C228.545 44.9348 228.8 44.6332 229.148 44.4055C229.499 44.1777 229.94 44.0638 230.473 44.0638C230.956 44.0638 231.379 44.1654 231.742 44.3685C232.106 44.5686 232.387 44.8671 232.587 45.2641C232.787 45.6611 232.887 46.152 232.887 46.7368V51.2471H231.507V46.903C231.507 46.389 231.373 45.9874 231.105 45.6981C230.838 45.4057 230.47 45.2595 230.002 45.2595C229.682 45.2595 229.397 45.3287 229.148 45.4672C228.902 45.6057 228.706 45.8089 228.562 46.0766C228.42 46.3413 228.349 46.6614 228.349 47.0368ZM238.048 44.1562V45.2641H234.175V44.1562H238.048ZM235.214 42.4573H236.594V49.165C236.594 49.4328 236.634 49.6344 236.714 49.7698C236.794 49.9021 236.897 49.9929 237.024 50.0422C237.153 50.0883 237.293 50.1114 237.444 50.1114C237.555 50.1114 237.651 50.1037 237.735 50.0883C237.818 50.0729 237.882 50.0606 237.928 50.0514L238.178 51.1917C238.098 51.2224 237.984 51.2532 237.836 51.284C237.688 51.3179 237.504 51.3363 237.282 51.3394C236.919 51.3456 236.58 51.2809 236.267 51.1455C235.953 51.0101 235.699 50.8008 235.505 50.5177C235.311 50.2345 235.214 49.8791 235.214 49.4513V42.4573Z" fill="white"/>
</svg>
