<svg width="24" height="24" viewBox="0 0 24 24" fill="none" xmlns="http://www.w3.org/2000/svg">
<g clip-path="url(#clip0_4435_15622)">
<path d="M24.0001 4.81863V4.21877C23.9981 2.5627 22.656 1.22061 20.9999 1.21863H2.99993C1.34385 1.22061 0.00197754 2.5627 0 4.21877V4.81863H24.0001Z" fill="#00A19C"/>
<path d="M0 6.0188V19.8187C0.00197754 21.4748 1.34385 22.8169 2.99993 22.8187H20.9999C22.656 22.8169 23.9981 21.4748 24.0001 19.8187V6.0188H0ZM3.6 10.2187C3.6 10.0596 3.66306 9.90686 3.77556 9.79436C3.88828 9.68186 4.04077 9.61858 4.20007 9.6188H9C9.15908 9.61858 9.31179 9.68186 9.42429 9.79436C9.53701 9.90686 9.60007 10.0596 9.60007 10.2187V13.8187C9.60007 13.978 9.53701 14.1304 9.42429 14.2432C9.31179 14.3557 9.15908 14.4187 9 14.4187H4.20007C4.04077 14.4187 3.88828 14.3557 3.77556 14.2432C3.66306 14.1304 3.6 13.978 3.6 13.8187V10.2187ZM19.8 18.0187H4.20007C3.86873 18.0187 3.6 17.75 3.6 17.4187C3.6 17.0873 3.86873 16.8188 4.20007 16.8188H19.8C20.1313 16.8188 20.4001 17.0873 20.4001 17.4187C20.4001 17.75 20.1313 18.0187 19.8 18.0187ZM19.8 14.4187H12.6C12.2687 14.4187 11.9999 14.15 11.9999 13.8187C11.9999 13.4873 12.2687 13.2188 12.6 13.2188H19.8C20.1313 13.2188 20.4001 13.4873 20.4001 13.8187C20.4001 14.15 20.1313 14.4187 19.8 14.4187ZM19.8 10.8187H12.6C12.2687 10.8187 11.9999 10.55 11.9999 10.2187C11.9999 9.8873 12.2687 9.6188 12.6 9.6188H19.8C20.1313 9.6188 20.4001 9.8873 20.4001 10.2187C20.4001 10.55 20.1313 10.8187 19.8 10.8187Z" fill="#00A19C"/>
<path d="M4.79993 10.8187H8.39993V13.2188H4.79993V10.8187Z" fill="#00A19C"/>
</g>
<defs>
<clipPath id="clip0_4435_15622">
<rect width="24" height="24" fill="white"/>
</clipPath>
</defs>
</svg>
