<svg width="24" height="24" viewBox="0 0 24 24" fill="none" xmlns="http://www.w3.org/2000/svg">
<path d="M2.64706 0C1.18513 0 0 1.15127 0 2.57143V11.5238C0 12.944 1.18513 14.0952 2.64706 14.0952H17.3529C18.8149 14.0952 20 12.944 20 11.5238V2.57143C20 1.15127 18.8149 0 17.3529 0H2.64706ZM1.76471 2.57143C1.76471 2.09804 2.15975 1.71429 2.64706 1.71429H17.3529C17.8403 1.71429 18.2353 2.09804 18.2353 2.57143V11.5238C18.2353 11.9972 17.8403 12.381 17.3529 12.381H2.64706C2.15975 12.381 1.76471 11.9972 1.76471 11.5238V2.57143ZM1.66667 15.8095C1.17936 15.8095 0.784314 16.1933 0.784314 16.6667C0.784314 17.1401 1.17936 17.5238 1.66667 17.5238H18.1373C18.6246 17.5238 19.0196 17.1401 19.0196 16.6667C19.0196 16.1933 18.6246 15.8095 18.1373 15.8095H1.66667ZM1.66667 22.2857C1.17936 22.2857 0.784314 22.6695 0.784314 23.1429C0.784314 23.6162 1.17936 24 1.66667 24H10.6863C11.1736 24 11.5686 23.6162 11.5686 23.1429C11.5686 22.6695 11.1736 22.2857 10.6863 22.2857H1.66667Z" fill="white"/>
<path d="M0.784314 19.7143C0.784314 19.2409 1.17936 18.8571 1.66667 18.8571H18.1373C18.6246 18.8571 19.0196 19.2409 19.0196 19.7143C19.0196 20.1877 18.6246 20.5714 18.1373 20.5714H1.66667C1.17936 20.5714 0.784314 20.1877 0.784314 19.7143Z" fill="white"/>
</svg>
