<svg width="24" height="25" viewBox="0 0 24 25" fill="none" xmlns="http://www.w3.org/2000/svg">
<path d="M12.0004 2.08923C10.454 2.08923 9.20044 3.34284 9.20044 4.88924C9.20044 6.43565 10.454 7.68925 12.0004 7.68925C13.5461 7.68745 14.7987 6.4349 14.8005 4.88924C14.8005 3.34284 13.5469 2.08923 12.0004 2.08923ZM12.0004 6.88925C10.8959 6.88925 10.0004 5.9938 10.0004 4.88924C10.0004 3.78469 10.8959 2.88924 12.0004 2.88924C13.105 2.88924 14.0005 3.78469 14.0005 4.88924C13.9992 5.9933 13.1045 6.88795 12.0004 6.88925Z" fill="white" stroke="white" stroke-width="0.2"/>
<mask id="path-2-inside-1_4507_351" fill="white">
<path d="M23.9939 23.62L21.5939 10.02C21.5603 9.82881 21.3943 9.68941 21.2002 9.68951H15.1569L16.2771 7.21625C17.0234 5.7135 16.968 3.93694 16.1295 2.48364C15.3627 1.10253 13.9471 0.20538 12.3709 0.101579C12.2541 0.0935795 12.1185 0.0894794 12.0002 0.0894794C11.5409 0.0890794 11.0838 0.15163 10.6416 0.27543C9.2975 0.653181 8.19355 1.61348 7.63335 2.89224C7.02519 4.24539 7.05439 5.79965 7.71305 7.12895L8.86415 9.68951H3.20013C3.01028 9.68951 2.84663 9.82291 2.80833 10.0089L0.00832052 23.6089C-0.0362796 23.8252 0.102871 24.0367 0.319122 24.0813C0.345772 24.0868 0.372922 24.0896 0.400122 24.0896H23.6002C23.8211 24.0894 24.0002 23.9102 24 23.6892C24 23.666 23.998 23.6429 23.9939 23.62ZM8.4361 6.78675C7.87875 5.66815 7.85235 4.35854 8.36425 3.21839C8.82725 2.15794 9.74125 1.36088 10.8549 1.04648C11.2277 0.942082 11.613 0.889232 12.0002 0.889432C12.1013 0.889432 12.2166 0.892732 12.3166 0.899582C13.6255 0.987482 14.8002 1.73393 15.4357 2.88164C16.1422 4.10799 16.1868 5.60685 15.5545 6.87305L12.0014 14.717L8.4361 6.78675ZM8.40015 14.4897C8.40015 14.4897 8.40015 14.4896 8.40015 14.4895V10.4895H9.22385L11.6353 15.8536C11.6999 15.997 11.8425 16.0893 11.9998 16.0895H12.0002C12.1573 16.0896 12.2998 15.9977 12.3646 15.8546L14.7946 10.4895H20.8646L22.3468 18.8895H18.8002V17.2895C18.8002 17.0687 18.6212 16.8896 18.4004 16.8895C18.4003 16.8895 18.4002 16.8895 18.4002 16.8895H6.40014V14.8895H8.00015C8.221 14.8896 8.4001 14.7106 8.40015 14.4897ZM3.52628 10.4895H7.60015V14.0895H2.78508L3.52628 10.4895ZM14.8002 19.2893C14.8002 19.2894 14.8002 19.2895 14.8002 19.2895V23.2896H0.890773L2.62038 14.8895H5.60019V17.2895C5.60014 17.5104 5.77914 17.6895 5.99999 17.6895C6.00004 17.6895 6.00014 17.6895 6.00019 17.6895H18.0002V18.8895H15.2002C14.9793 18.8895 14.8002 19.0685 14.8002 19.2893ZM15.6002 23.2896V19.6895H22.488L23.1232 23.2896H15.6002Z"/>
</mask>
<path d="M23.9939 23.62L21.5939 10.02C21.5603 9.82881 21.3943 9.68941 21.2002 9.68951H15.1569L16.2771 7.21625C17.0234 5.7135 16.968 3.93694 16.1295 2.48364C15.3627 1.10253 13.9471 0.20538 12.3709 0.101579C12.2541 0.0935795 12.1185 0.0894794 12.0002 0.0894794C11.5409 0.0890794 11.0838 0.15163 10.6416 0.27543C9.2975 0.653181 8.19355 1.61348 7.63335 2.89224C7.02519 4.24539 7.05439 5.79965 7.71305 7.12895L8.86415 9.68951H3.20013C3.01028 9.68951 2.84663 9.82291 2.80833 10.0089L0.00832052 23.6089C-0.0362796 23.8252 0.102871 24.0367 0.319122 24.0813C0.345772 24.0868 0.372922 24.0896 0.400122 24.0896H23.6002C23.8211 24.0894 24.0002 23.9102 24 23.6892C24 23.666 23.998 23.6429 23.9939 23.62ZM8.4361 6.78675C7.87875 5.66815 7.85235 4.35854 8.36425 3.21839C8.82725 2.15794 9.74125 1.36088 10.8549 1.04648C11.2277 0.942082 11.613 0.889232 12.0002 0.889432C12.1013 0.889432 12.2166 0.892732 12.3166 0.899582C13.6255 0.987482 14.8002 1.73393 15.4357 2.88164C16.1422 4.10799 16.1868 5.60685 15.5545 6.87305L12.0014 14.717L8.4361 6.78675ZM8.40015 14.4897C8.40015 14.4897 8.40015 14.4896 8.40015 14.4895V10.4895H9.22385L11.6353 15.8536C11.6999 15.997 11.8425 16.0893 11.9998 16.0895H12.0002C12.1573 16.0896 12.2998 15.9977 12.3646 15.8546L14.7946 10.4895H20.8646L22.3468 18.8895H18.8002V17.2895C18.8002 17.0687 18.6212 16.8896 18.4004 16.8895C18.4003 16.8895 18.4002 16.8895 18.4002 16.8895H6.40014V14.8895H8.00015C8.221 14.8896 8.4001 14.7106 8.40015 14.4897ZM3.52628 10.4895H7.60015V14.0895H2.78508L3.52628 10.4895ZM14.8002 19.2893C14.8002 19.2894 14.8002 19.2895 14.8002 19.2895V23.2896H0.890773L2.62038 14.8895H5.60019V17.2895C5.60014 17.5104 5.77914 17.6895 5.99999 17.6895C6.00004 17.6895 6.00014 17.6895 6.00019 17.6895H18.0002V18.8895H15.2002C14.9793 18.8895 14.8002 19.0685 14.8002 19.2893ZM15.6002 23.2896V19.6895H22.488L23.1232 23.2896H15.6002Z" fill="white"/>
<path d="M23.9939 23.62L23.0092 23.7938L23.0093 23.7945L23.9939 23.62ZM21.5939 10.02L20.609 10.1931L20.6092 10.1937L21.5939 10.02ZM21.2002 9.68951V10.6895H21.2007L21.2002 9.68951ZM15.1569 9.68951L14.246 9.27693L13.6062 10.6895H15.1569V9.68951ZM16.2771 7.21625L15.3815 6.77146L15.3736 6.78743L15.3662 6.80367L16.2771 7.21625ZM16.1295 2.48364L15.2552 2.96902L15.2592 2.97625L15.2633 2.98341L16.1295 2.48364ZM12.3709 0.101579L12.3025 1.09925L12.3052 1.09942L12.3709 0.101579ZM12.0002 0.0894794L11.9993 1.08948H12.0002V0.0894794ZM10.6416 0.27543L10.372 -0.687551L10.371 -0.68727L10.6416 0.27543ZM7.63335 2.89224L8.5455 3.30219L8.54931 3.29351L7.63335 2.89224ZM7.71305 7.12895L8.62512 6.71893L8.61742 6.7018L8.60909 6.68498L7.71305 7.12895ZM8.86415 9.68951V10.6895H10.4101L9.77622 9.27949L8.86415 9.68951ZM2.80833 10.0089L1.82889 9.80713L1.82887 9.80721L2.80833 10.0089ZM0.00832052 23.6089L0.987717 23.8109L0.987778 23.8106L0.00832052 23.6089ZM0.319122 24.0813L0.521241 23.1019L0.521113 23.1019L0.319122 24.0813ZM23.6002 24.0896V25.0896H23.6009L23.6002 24.0896ZM24 23.6892H23V23.6901L24 23.6892ZM8.4361 6.78675L9.34816 6.37671L9.34001 6.35858L9.33115 6.34079L8.4361 6.78675ZM8.36425 3.21839L9.27657 3.628L9.28071 3.61852L8.36425 3.21839ZM10.8549 1.04648L10.5852 0.0835271L10.5831 0.0841024L10.8549 1.04648ZM12.0002 0.889432L11.9996 1.88943H12.0002V0.889432ZM12.3166 0.899582L12.2482 1.89725L12.2496 1.89733L12.3166 0.899582ZM15.4357 2.88164L14.5609 3.36605L14.565 3.37347L14.5692 3.38083L15.4357 2.88164ZM15.5545 6.87305L14.6598 6.42626L14.6514 6.44319L14.6436 6.46044L15.5545 6.87305ZM12.0014 14.717L11.0893 15.1271L11.9979 17.1482L12.9123 15.1296L12.0014 14.717ZM8.40015 14.4897L9.40015 14.49V14.4897H8.40015ZM8.40015 10.4895V9.48951H7.40015V10.4895H8.40015ZM9.22385 10.4895L10.1359 10.0795L9.8707 9.48951H9.22385V10.4895ZM11.6353 15.8536L10.7232 16.2636L10.7234 16.2639L11.6353 15.8536ZM11.9998 16.0895L11.9985 17.0895H11.9998V16.0895ZM12.0002 16.0895L12.0005 15.0895H12.0002V16.0895ZM12.3646 15.8546L11.4537 15.442L11.4537 15.4421L12.3646 15.8546ZM14.7946 10.4895V9.48951H14.1497L13.8836 10.0769L14.7946 10.4895ZM20.8646 10.4895L21.8494 10.3157L21.7036 9.48951H20.8646V10.4895ZM22.3468 18.8895V19.8895H23.5387L23.3316 18.7158L22.3468 18.8895ZM18.8002 18.8895H17.8002V19.8895H18.8002V18.8895ZM18.8002 17.2895L17.8002 17.2893V17.2895H18.8002ZM18.4004 16.8895L18.4006 15.8895H18.4004V16.8895ZM6.40014 16.8895H5.40014V17.8895H6.40014V16.8895ZM6.40014 14.8895V13.8895H5.40014V14.8895H6.40014ZM8.00015 14.8895L8.00037 13.8895H8.00015V14.8895ZM3.52628 10.4895V9.48951H2.7112L2.54683 10.2879L3.52628 10.4895ZM7.60015 10.4895H8.60015V9.48951H7.60015V10.4895ZM7.60015 14.0895V15.0895H8.60015V14.0895H7.60015ZM2.78508 14.0895L1.80562 13.8879L1.55822 15.0895H2.78508V14.0895ZM14.8002 19.2893L13.8002 19.2891V19.2893H14.8002ZM14.8002 23.2896V24.2896H15.8002V23.2896H14.8002ZM0.890773 23.2896L-0.0886792 23.0879L-0.33611 24.2896H0.890773V23.2896ZM2.62038 14.8895V13.8895H1.80531L1.64093 14.6879L2.62038 14.8895ZM5.60019 14.8895H6.60019V13.8895H5.60019V14.8895ZM5.60019 17.2895L6.60019 17.2898V17.2895H5.60019ZM5.99999 17.6895L5.99976 18.6895H5.99999V17.6895ZM18.0002 17.6895H19.0002V16.6895H18.0002V17.6895ZM18.0002 18.8895V19.8895H19.0002V18.8895H18.0002ZM15.2002 18.8895L15.2 19.8895H15.2002V18.8895ZM15.6002 23.2896H14.6002V24.2896H15.6002V23.2896ZM15.6002 19.6895V18.6895H14.6002V19.6895H15.6002ZM22.488 19.6895L23.4728 19.5158L23.327 18.6895H22.488V19.6895ZM23.1232 23.2896V24.2896H24.3152L24.108 23.1158L23.1232 23.2896ZM24.9787 23.4462L22.5787 9.84618L20.6092 10.1937L23.0092 23.7938L24.9787 23.4462ZM22.5788 9.84684C22.4612 9.17754 21.8797 8.68916 21.1997 8.68951L21.2007 10.6895C20.9089 10.6897 20.6595 10.4801 20.609 10.1931L22.5788 9.84684ZM21.2002 8.68951H15.1569V10.6895H21.2002V8.68951ZM16.0678 10.1021L17.188 7.62883L15.3662 6.80367L14.246 9.27693L16.0678 10.1021ZM17.1728 7.66105C18.068 5.85838 18.0016 3.72724 16.9956 1.98387L15.2633 2.98341C15.9345 4.14664 15.9788 5.56862 15.3815 6.77146L17.1728 7.66105ZM17.0038 1.99825C16.0721 0.320034 14.3519 -0.770129 12.4366 -0.896259L12.3052 1.09942C13.5423 1.18089 14.6534 1.88503 15.2552 2.96902L17.0038 1.99825ZM12.4392 -0.896083C12.2968 -0.905835 12.1383 -0.910521 12.0002 -0.910521V1.08948C12.0987 1.08948 12.2113 1.09299 12.3025 1.09924L12.4392 -0.896083ZM12.001 -0.91052C11.4504 -0.911 10.9023 -0.836002 10.372 -0.687551L10.9111 1.23841C11.2653 1.13926 11.6314 1.08916 11.9993 1.08948L12.001 -0.91052ZM10.371 -0.68727C8.7386 -0.228481 7.39779 0.937841 6.71738 2.49097L8.54931 3.29351C8.98931 2.28913 9.85641 1.53484 10.9121 1.23813L10.371 -0.68727ZM6.72123 2.4823C5.99052 4.10816 6.02559 5.97568 6.81701 7.57293L8.60909 6.68498C8.0832 5.62362 8.05987 4.38263 8.54546 3.30217L6.72123 2.4823ZM6.80097 7.53898L7.95208 10.0995L9.77622 9.27949L8.62512 6.71893L6.80097 7.53898ZM8.86415 8.68951H3.20013V10.6895H8.86415V8.68951ZM3.20013 8.68951C2.53567 8.68951 1.9629 9.15649 1.82889 9.80713L3.78777 10.2106C3.73036 10.4893 3.48489 10.6895 3.20013 10.6895V8.68951ZM1.82887 9.80721L-0.971137 23.4073L0.987778 23.8106L3.78779 10.2105L1.82887 9.80721ZM-0.971076 23.407C-1.12716 24.1639 -0.640205 24.9045 0.11713 25.0607L0.521113 23.1019C0.845946 23.1689 1.0546 23.4865 0.987717 23.8109L-0.971076 23.407ZM0.117002 25.0607C0.210662 25.08 0.305548 25.0896 0.400122 25.0896V23.0896C0.440296 23.0896 0.480881 23.0936 0.521241 23.1019L0.117002 25.0607ZM0.400122 25.0896H23.6002V23.0896H0.400122V25.0896ZM23.6009 25.0896C24.374 25.089 25.0007 24.4618 25 23.6883L23 23.6901C22.9997 23.3585 23.2683 23.0898 23.5995 23.0896L23.6009 25.0896ZM25 23.6892C25 23.6085 24.993 23.5269 24.9786 23.4455L23.0093 23.7945C23.003 23.7588 23 23.7236 23 23.6892H25ZM9.33115 6.34079C8.90742 5.49037 8.88736 4.49475 9.27652 3.62798L7.45198 2.8088C6.81733 4.22233 6.85007 5.84593 7.54105 7.23272L9.33115 6.34079ZM9.28071 3.61852C9.62385 2.83259 10.3012 2.24187 11.1266 2.00886L10.5831 0.0841024C9.18126 0.479893 8.03065 1.48328 7.44779 2.81826L9.28071 3.61852ZM11.1245 2.00944C11.4094 1.92966 11.7038 1.88928 11.9996 1.88943L12.0007 -0.110568C11.5222 -0.110815 11.0459 -0.0454946 10.5852 0.0835293L11.1245 2.00944ZM12.0002 1.88943C12.0828 1.88943 12.1748 1.89222 12.2482 1.89724L12.3849 -0.09808C12.2583 -0.106754 12.1199 -0.110568 12.0002 -0.110568V1.88943ZM12.2496 1.89733C13.2195 1.96247 14.09 2.5156 14.5609 3.36605L16.3106 2.39723C15.5105 0.952269 14.0315 0.0124944 12.3836 -0.0981706L12.2496 1.89733ZM14.5692 3.38083C15.1083 4.31653 15.1423 5.46015 14.6598 6.42626L16.4491 7.31984C17.2313 5.75355 17.1762 3.89945 16.3022 2.38245L14.5692 3.38083ZM14.6436 6.46044L11.0905 14.3044L12.9123 15.1296L16.4654 7.28567L14.6436 6.46044ZM12.9134 14.307L9.34816 6.37671L7.52403 7.19679L11.0893 15.1271L12.9134 14.307ZM9.40015 14.4897C9.40015 14.4897 9.40015 14.4897 9.40015 14.4897C9.40015 14.4897 9.40015 14.4897 9.40015 14.4897C9.40015 14.4897 9.40015 14.4897 9.40015 14.4897C9.40015 14.4897 9.40015 14.4897 9.40015 14.4897C9.40015 14.4897 9.40015 14.4897 9.40015 14.4897C9.40015 14.4897 9.40015 14.4897 9.40015 14.4897V14.4897V14.4897C9.40015 14.4897 9.40015 14.4897 9.40015 14.4897C9.40015 14.4897 9.40015 14.4897 9.40015 14.4897C9.40015 14.4897 9.40015 14.4897 9.40015 14.4897C9.40015 14.4897 9.40015 14.4897 9.40015 14.4897C9.40015 14.4897 9.40015 14.4897 9.40015 14.4897C9.40015 14.4897 9.40015 14.4897 9.40015 14.4897V14.4897V14.4897C9.40015 14.4897 9.40015 14.4897 9.40015 14.4897C9.40015 14.4897 9.40015 14.4897 9.40015 14.4897C9.40015 14.4897 9.40015 14.4897 9.40015 14.4897V14.4897C9.40015 14.4897 9.40015 14.4897 9.40015 14.4897C9.40015 14.4897 9.40015 14.4897 9.40015 14.4897V14.4897C9.40015 14.4897 9.40015 14.4897 9.40015 14.4897C9.40015 14.4897 9.40015 14.4897 9.40015 14.4897V14.4897C9.40015 14.4897 9.40015 14.4897 9.40015 14.4897V14.4897C9.40015 14.4897 9.40015 14.4897 9.40015 14.4897V14.4897C9.40015 14.4897 9.40015 14.4897 9.40015 14.4897C9.40015 14.4897 9.40015 14.4897 9.40015 14.4897C9.40015 14.4897 9.40015 14.4897 9.40015 14.4897C9.40015 14.4897 9.40015 14.4897 9.40015 14.4897C9.40015 14.4897 9.40015 14.4897 9.40015 14.4897C9.40015 14.4897 9.40015 14.4897 9.40015 14.4897C9.40015 14.4897 9.40015 14.4897 9.40015 14.4897C9.40015 14.4897 9.40015 14.4897 9.40015 14.4897C9.40015 14.4897 9.40015 14.4897 9.40015 14.4897V14.4897C9.40015 14.4897 9.40015 14.4897 9.40015 14.4897V14.4897C9.40015 14.4897 9.40015 14.4897 9.40015 14.4897C9.40015 14.4897 9.40015 14.4897 9.40015 14.4897V14.4897C9.40015 14.4897 9.40015 14.4897 9.40015 14.4897V14.4897C9.40015 14.4897 9.40015 14.4897 9.40015 14.4897C9.40015 14.4897 9.40015 14.4897 9.40015 14.4897V14.4897C9.40015 14.4897 9.40015 14.4897 9.40015 14.4897C9.40015 14.4897 9.40015 14.4897 9.40015 14.4897V14.4897C9.40015 14.4897 9.40015 14.4897 9.40015 14.4897C9.40015 14.4897 9.40015 14.4897 9.40015 14.4897V14.4897C9.40015 14.4897 9.40015 14.4897 9.40015 14.4897C9.40015 14.4897 9.40015 14.4897 9.40015 14.4897V14.4897C9.40015 14.4897 9.40015 14.4897 9.40015 14.4897C9.40015 14.4897 9.40015 14.4897 9.40015 14.4897C9.40015 14.4897 9.40015 14.4897 9.40015 14.4897V14.4897C9.40015 14.4897 9.40015 14.4897 9.40015 14.4897C9.40015 14.4897 9.40015 14.4897 9.40015 14.4897C9.40015 14.4897 9.40015 14.4897 9.40015 14.4897V14.4897C9.40015 14.4897 9.40015 14.4897 9.40015 14.4897C9.40015 14.4897 9.40015 14.4897 9.40015 14.4897C9.40015 14.4897 9.40015 14.4897 9.40015 14.4897V14.4897C9.40015 14.4897 9.40015 14.4897 9.40015 14.4897C9.40015 14.4897 9.40015 14.4897 9.40015 14.4897C9.40015 14.4897 9.40015 14.4897 9.40015 14.4897V14.4897V14.4897C9.40015 14.4897 9.40015 14.4897 9.40015 14.4897C9.40015 14.4897 9.40015 14.4897 9.40015 14.4897C9.40015 14.4897 9.40015 14.4897 9.40015 14.4897V14.4896C9.40015 14.4896 9.40015 14.4896 9.40015 14.4896C9.40015 14.4896 9.40015 14.4896 9.40015 14.4896C9.40015 14.4896 9.40015 14.4896 9.40015 14.4896C9.40015 14.4896 9.40015 14.4896 9.40015 14.4896V14.4896C9.40015 14.4896 9.40015 14.4896 9.40015 14.4896C9.40015 14.4896 9.40015 14.4896 9.40015 14.4896C9.40015 14.4896 9.40015 14.4896 9.40015 14.4896C9.40015 14.4896 9.40015 14.4896 9.40015 14.4896V14.4896V14.4896C9.40015 14.4896 9.40015 14.4896 9.40015 14.4896C9.40015 14.4896 9.40015 14.4896 9.40015 14.4896C9.40015 14.4896 9.40015 14.4896 9.40015 14.4896C9.40015 14.4896 9.40015 14.4896 9.40015 14.4896V14.4896C9.40015 14.4896 9.40015 14.4896 9.40015 14.4896C9.40015 14.4896 9.40015 14.4896 9.40015 14.4896C9.40015 14.4896 9.40015 14.4896 9.40015 14.4896C9.40015 14.4896 9.40015 14.4896 9.40015 14.4896V14.4896V14.4896C9.40015 14.4896 9.40015 14.4896 9.40015 14.4896C9.40015 14.4896 9.40015 14.4896 9.40015 14.4896C9.40015 14.4896 9.40015 14.4896 9.40015 14.4896C9.40015 14.4896 9.40015 14.4896 9.40015 14.4896V14.4896V14.4896C9.40015 14.4896 9.40015 14.4896 9.40015 14.4896C9.40015 14.4896 9.40015 14.4896 9.40015 14.4896C9.40015 14.4896 9.40015 14.4896 9.40015 14.4896C9.40015 14.4896 9.40015 14.4896 9.40015 14.4896V14.4896V14.4896C9.40015 14.4896 9.40015 14.4896 9.40015 14.4896C9.40015 14.4896 9.40015 14.4896 9.40015 14.4896C9.40015 14.4896 9.40015 14.4896 9.40015 14.4896C9.40015 14.4896 9.40015 14.4896 9.40015 14.4896V14.4896C9.40015 14.4896 9.40015 14.4896 9.40015 14.4896C9.40015 14.4896 9.40015 14.4896 9.40015 14.4896C9.40015 14.4896 9.40015 14.4896 9.40015 14.4896C9.40015 14.4896 9.40015 14.4896 9.40015 14.4896V14.4896V14.4896C9.40015 14.4896 9.40015 14.4896 9.40015 14.4896C9.40015 14.4896 9.40015 14.4896 9.40015 14.4896C9.40015 14.4896 9.40015 14.4896 9.40015 14.4896V14.4896V14.4896C9.40015 14.4896 9.40015 14.4896 9.40015 14.4896C9.40015 14.4896 9.40015 14.4896 9.40015 14.4896C9.40015 14.4896 9.40015 14.4896 9.40015 14.4896V14.4896C9.40015 14.4896 9.40015 14.4896 9.40015 14.4896C9.40015 14.4896 9.40015 14.4896 9.40015 14.4896C9.40015 14.4896 9.40015 14.4896 9.40015 14.4896V14.4896V14.4896C9.40015 14.4896 9.40015 14.4896 9.40015 14.4896C9.40015 14.4896 9.40015 14.4896 9.40015 14.4896C9.40015 14.4896 9.40015 14.4896 9.40015 14.4896V14.4896C9.40015 14.4896 9.40015 14.4896 9.40015 14.4896C9.40015 14.4896 9.40015 14.4896 9.40015 14.4896V14.4896V14.4896C9.40015 14.4896 9.40015 14.4896 9.40015 14.4896C9.40015 14.4896 9.40015 14.4896 9.40015 14.4896V14.4896C9.40015 14.4896 9.40015 14.4896 9.40015 14.4896C9.40015 14.4896 9.40015 14.4896 9.40015 14.4896C9.40015 14.4896 9.40015 14.4896 9.40015 14.4896V14.4896C9.40015 14.4896 9.40015 14.4896 9.40015 14.4896C9.40015 14.4896 9.40015 14.4896 9.40015 14.4896V14.4896C9.40015 14.4896 9.40015 14.4896 9.40015 14.4896C9.40015 14.4896 9.40015 14.4896 9.40015 14.4896V14.4896C9.40015 14.4896 9.40015 14.4896 9.40015 14.4896V14.4896C9.40015 14.4896 9.40015 14.4896 9.40015 14.4896C9.40015 14.4896 9.40015 14.4896 9.40015 14.4896V14.4896C9.40015 14.4896 9.40015 14.4896 9.40015 14.4896C9.40015 14.4896 9.40015 14.4896 9.40015 14.4896C9.40015 14.4896 9.40015 14.4896 9.40015 14.4896C9.40015 14.4896 9.40015 14.4896 9.40015 14.4896V14.4896C9.40015 14.4896 9.40015 14.4896 9.40015 14.4896V14.4896C9.40015 14.4896 9.40015 14.4896 9.40015 14.4896V14.4896C9.40015 14.4896 9.40015 14.4896 9.40015 14.4896V14.4896C9.40015 14.4896 9.40015 14.4896 9.40015 14.4896V14.4896C9.40015 14.4896 9.40015 14.4896 9.40015 14.4896V14.4896C9.40015 14.4896 9.40015 14.4896 9.40015 14.4896V14.4896C9.40015 14.4896 9.40015 14.4896 9.40015 14.4896C9.40015 14.4896 9.40015 14.4896 9.40015 14.4896V14.4895C9.40015 14.4895 9.40015 14.4895 9.40015 14.4895C9.40015 14.4895 9.40015 14.4895 9.40015 14.4895V14.4895C9.40015 14.4895 9.40015 14.4895 9.40015 14.4895C9.40015 14.4895 9.40015 14.4895 9.40015 14.4895V14.4895C9.40015 14.4895 9.40015 14.4895 9.40015 14.4895C9.40015 14.4895 9.40015 14.4895 9.40015 14.4895C9.40015 14.4895 9.40015 14.4895 9.40015 14.4895V14.4895V14.4895C9.40015 14.4895 9.40015 14.4895 9.40015 14.4895C9.40015 14.4895 9.40015 14.4895 9.40015 14.4895C9.40015 14.4895 9.40015 14.4895 9.40015 14.4895C9.40015 14.4895 9.40015 14.4895 9.40015 14.4895C9.40015 14.4895 9.40015 14.4895 9.40015 14.4895C9.40015 14.4895 9.40015 14.4895 9.40015 14.4895C9.40015 14.4895 9.40015 14.4895 9.40015 14.4895C9.40015 14.4895 9.40015 14.4895 9.40015 14.4895C9.40015 14.4895 9.40015 14.4895 9.40015 14.4895C9.40015 14.4895 9.40015 14.4895 9.40015 14.4895C9.40015 14.4895 9.40015 14.4895 9.40015 14.4895C9.40015 14.4895 9.40015 14.4895 9.40015 14.4895V14.4895H7.40015V14.4895C7.40015 14.4895 7.40015 14.4895 7.40015 14.4895C7.40015 14.4895 7.40015 14.4895 7.40015 14.4895C7.40015 14.4895 7.40015 14.4895 7.40015 14.4895C7.40015 14.4895 7.40015 14.4895 7.40015 14.4895C7.40015 14.4895 7.40015 14.4895 7.40015 14.4895C7.40015 14.4895 7.40015 14.4895 7.40015 14.4895C7.40015 14.4895 7.40015 14.4895 7.40015 14.4895C7.40015 14.4895 7.40015 14.4895 7.40015 14.4895C7.40015 14.4895 7.40015 14.4895 7.40015 14.4895C7.40015 14.4895 7.40015 14.4895 7.40015 14.4895C7.40015 14.4895 7.40015 14.4895 7.40015 14.4895C7.40015 14.4895 7.40015 14.4895 7.40015 14.4895V14.4895V14.4895C7.40015 14.4895 7.40015 14.4895 7.40015 14.4895C7.40015 14.4895 7.40015 14.4895 7.40015 14.4895C7.40015 14.4895 7.40015 14.4895 7.40015 14.4895V14.4895C7.40015 14.4895 7.40015 14.4895 7.40015 14.4895C7.40015 14.4895 7.40015 14.4895 7.40015 14.4895V14.4895C7.40015 14.4895 7.40015 14.4895 7.40015 14.4895C7.40015 14.4895 7.40015 14.4895 7.40015 14.4895V14.4896C7.40015 14.4896 7.40015 14.4896 7.40015 14.4896C7.40015 14.4896 7.40015 14.4896 7.40015 14.4896V14.4896C7.40015 14.4896 7.40015 14.4896 7.40015 14.4896V14.4896C7.40015 14.4896 7.40015 14.4896 7.40015 14.4896V14.4896C7.40015 14.4896 7.40015 14.4896 7.40015 14.4896V14.4896C7.40015 14.4896 7.40015 14.4896 7.40015 14.4896V14.4896C7.40015 14.4896 7.40015 14.4896 7.40015 14.4896V14.4896C7.40015 14.4896 7.40015 14.4896 7.40015 14.4896V14.4896C7.40015 14.4896 7.40015 14.4896 7.40015 14.4896C7.40015 14.4896 7.40015 14.4896 7.40015 14.4896C7.40015 14.4896 7.40015 14.4896 7.40015 14.4896C7.40015 14.4896 7.40015 14.4896 7.40015 14.4896V14.4896C7.40015 14.4896 7.40015 14.4896 7.40015 14.4896C7.40015 14.4896 7.40015 14.4896 7.40015 14.4896V14.4896C7.40015 14.4896 7.40015 14.4896 7.40015 14.4896V14.4896C7.40015 14.4896 7.40015 14.4896 7.40015 14.4896C7.40015 14.4896 7.40015 14.4896 7.40015 14.4896V14.4896C7.40015 14.4896 7.40015 14.4896 7.40015 14.4896C7.40015 14.4896 7.40015 14.4896 7.40015 14.4896V14.4896C7.40015 14.4896 7.40015 14.4896 7.40015 14.4896C7.40015 14.4896 7.40015 14.4896 7.40015 14.4896C7.40015 14.4896 7.40015 14.4896 7.40015 14.4896V14.4896C7.40015 14.4896 7.40015 14.4896 7.40015 14.4896C7.40015 14.4896 7.40015 14.4896 7.40015 14.4896V14.4896V14.4896C7.40015 14.4896 7.40015 14.4896 7.40015 14.4896C7.40015 14.4896 7.40015 14.4896 7.40015 14.4896V14.4896C7.40015 14.4896 7.40015 14.4896 7.40015 14.4896C7.40015 14.4896 7.40015 14.4896 7.40015 14.4896C7.40015 14.4896 7.40015 14.4896 7.40015 14.4896V14.4896V14.4896C7.40015 14.4896 7.40015 14.4896 7.40015 14.4896C7.40015 14.4896 7.40015 14.4896 7.40015 14.4896C7.40015 14.4896 7.40015 14.4896 7.40015 14.4896V14.4896C7.40015 14.4896 7.40015 14.4896 7.40015 14.4896C7.40015 14.4896 7.40015 14.4896 7.40015 14.4896C7.40015 14.4896 7.40015 14.4896 7.40015 14.4896V14.4896V14.4896C7.40015 14.4896 7.40015 14.4896 7.40015 14.4896C7.40015 14.4896 7.40015 14.4896 7.40015 14.4896C7.40015 14.4896 7.40015 14.4896 7.40015 14.4896V14.4896V14.4896C7.40015 14.4896 7.40015 14.4896 7.40015 14.4896C7.40015 14.4896 7.40015 14.4896 7.40015 14.4896C7.40015 14.4896 7.40015 14.4896 7.40015 14.4896C7.40015 14.4896 7.40015 14.4896 7.40015 14.4896V14.4896C7.40015 14.4896 7.40015 14.4896 7.40015 14.4896C7.40015 14.4896 7.40015 14.4896 7.40015 14.4896C7.40015 14.4896 7.40015 14.4896 7.40015 14.4896C7.40015 14.4896 7.40015 14.4896 7.40015 14.4896V14.4896V14.4896C7.40015 14.4896 7.40015 14.4896 7.40015 14.4896C7.40015 14.4896 7.40015 14.4896 7.40015 14.4896C7.40015 14.4896 7.40015 14.4896 7.40015 14.4896C7.40015 14.4896 7.40015 14.4896 7.40015 14.4896V14.4896V14.4896C7.40015 14.4896 7.40015 14.4896 7.40015 14.4896C7.40015 14.4896 7.40015 14.4896 7.40015 14.4896C7.40015 14.4896 7.40015 14.4896 7.40015 14.4896C7.40015 14.4896 7.40015 14.4896 7.40015 14.4896V14.4896V14.4896C7.40015 14.4896 7.40015 14.4896 7.40015 14.4896C7.40015 14.4896 7.40015 14.4896 7.40015 14.4896C7.40015 14.4896 7.40015 14.4896 7.40015 14.4896C7.40015 14.4896 7.40015 14.4896 7.40015 14.4896V14.4896C7.40015 14.4896 7.40015 14.4896 7.40015 14.4896C7.40015 14.4896 7.40015 14.4896 7.40015 14.4896C7.40015 14.4896 7.40015 14.4896 7.40015 14.4896C7.40015 14.4896 7.40015 14.4896 7.40015 14.4896V14.4896V14.4896C7.40015 14.4896 7.40015 14.4896 7.40015 14.4896C7.40015 14.4896 7.40015 14.4896 7.40015 14.4896C7.40015 14.4896 7.40015 14.4896 7.40015 14.4896C7.40015 14.4896 7.40015 14.4896 7.40015 14.4896V14.4896C7.40015 14.4896 7.40015 14.4896 7.40015 14.4896C7.40015 14.4896 7.40015 14.4896 7.40015 14.4896C7.40015 14.4896 7.40015 14.4896 7.40015 14.4896C7.40015 14.4896 7.40015 14.4896 7.40015 14.4896V14.4897C7.40015 14.4897 7.40015 14.4897 7.40015 14.4897C7.40015 14.4897 7.40015 14.4897 7.40015 14.4897C7.40015 14.4897 7.40015 14.4897 7.40015 14.4897V14.4897V14.4897C7.40015 14.4897 7.40015 14.4897 7.40015 14.4897C7.40015 14.4897 7.40015 14.4897 7.40015 14.4897C7.40015 14.4897 7.40015 14.4897 7.40015 14.4897V14.4897C7.40015 14.4897 7.40015 14.4897 7.40015 14.4897C7.40015 14.4897 7.40015 14.4897 7.40015 14.4897C7.40015 14.4897 7.40015 14.4897 7.40015 14.4897V14.4897C7.40015 14.4897 7.40015 14.4897 7.40015 14.4897C7.40015 14.4897 7.40015 14.4897 7.40015 14.4897C7.40015 14.4897 7.40015 14.4897 7.40015 14.4897V14.4897C7.40015 14.4897 7.40015 14.4897 7.40015 14.4897C7.40015 14.4897 7.40015 14.4897 7.40015 14.4897C7.40015 14.4897 7.40015 14.4897 7.40015 14.4897V14.4897C7.40015 14.4897 7.40015 14.4897 7.40015 14.4897C7.40015 14.4897 7.40015 14.4897 7.40015 14.4897V14.4897C7.40015 14.4897 7.40015 14.4897 7.40015 14.4897C7.40015 14.4897 7.40015 14.4897 7.40015 14.4897V14.4897C7.40015 14.4897 7.40015 14.4897 7.40015 14.4897C7.40015 14.4897 7.40015 14.4897 7.40015 14.4897V14.4897C7.40015 14.4897 7.40015 14.4897 7.40015 14.4897C7.40015 14.4897 7.40015 14.4897 7.40015 14.4897V14.4897C7.40015 14.4897 7.40015 14.4897 7.40015 14.4897V14.4897C7.40015 14.4897 7.40015 14.4897 7.40015 14.4897C7.40015 14.4897 7.40015 14.4897 7.40015 14.4897V14.4897C7.40015 14.4897 7.40015 14.4897 7.40015 14.4897V14.4897C7.40015 14.4897 7.40015 14.4897 7.40015 14.4897C7.40015 14.4897 7.40015 14.4897 7.40015 14.4897C7.40015 14.4897 7.40015 14.4897 7.40015 14.4897C7.40015 14.4897 7.40015 14.4897 7.40015 14.4897C7.40015 14.4897 7.40015 14.4897 7.40015 14.4897C7.40015 14.4897 7.40015 14.4897 7.40015 14.4897C7.40015 14.4897 7.40015 14.4897 7.40015 14.4897C7.40015 14.4897 7.40015 14.4897 7.40015 14.4897C7.40015 14.4897 7.40015 14.4897 7.40015 14.4897V14.4897C7.40015 14.4897 7.40015 14.4897 7.40015 14.4897V14.4897C7.40015 14.4897 7.40015 14.4897 7.40015 14.4897V14.4897C7.40015 14.4897 7.40015 14.4897 7.40015 14.4897C7.40015 14.4897 7.40015 14.4897 7.40015 14.4897V14.4897C7.40015 14.4897 7.40015 14.4897 7.40015 14.4897C7.40015 14.4897 7.40015 14.4897 7.40015 14.4897V14.4897C7.40015 14.4897 7.40015 14.4897 7.40015 14.4897C7.40015 14.4897 7.40015 14.4897 7.40015 14.4897C7.40015 14.4897 7.40015 14.4897 7.40015 14.4897V14.4897V14.4897C7.40015 14.4897 7.40015 14.4897 7.40015 14.4897C7.40015 14.4897 7.40015 14.4897 7.40015 14.4897C7.40015 14.4897 7.40015 14.4897 7.40015 14.4897C7.40015 14.4897 7.40015 14.4897 7.40015 14.4897C7.40015 14.4897 7.40015 14.4897 7.40015 14.4897C7.40015 14.4897 7.40015 14.4897 7.40015 14.4897V14.4897V14.4897C7.40015 14.4897 7.40015 14.4897 7.40015 14.4897C7.40015 14.4897 7.40015 14.4897 7.40015 14.4897C7.40015 14.4897 7.40015 14.4897 7.40015 14.4897C7.40015 14.4897 7.40015 14.4897 7.40015 14.4897C7.40015 14.4897 7.40015 14.4897 7.40015 14.4897C7.40015 14.4897 7.40015 14.4897 7.40015 14.4897H9.40015ZM9.40015 14.4895V10.4895H7.40015V14.4895H9.40015ZM8.40015 11.4895H9.22385V9.48951H8.40015V11.4895ZM8.31178 10.8995L10.7232 16.2636L12.5474 15.4436L10.1359 10.0795L8.31178 10.8995ZM10.7234 16.2639C10.9493 16.766 11.4483 17.0888 11.9985 17.0895L12.001 15.0895C12.2366 15.0898 12.4504 15.2281 12.5472 15.4432L10.7234 16.2639ZM11.9998 17.0895H12.0002V15.0895H11.9998V17.0895ZM11.9998 17.0895C12.5497 17.0897 13.0487 16.768 13.2756 16.2671L11.4537 15.4421C11.5509 15.2274 11.7648 15.0895 12.0005 15.0895L11.9998 17.0895ZM13.2755 16.2672L15.7055 10.9021L13.8836 10.0769L11.4537 15.442L13.2755 16.2672ZM14.7946 11.4895H20.8646V9.48951H14.7946V11.4895ZM19.8799 10.6633L21.3621 19.0633L23.3316 18.7158L21.8494 10.3157L19.8799 10.6633ZM22.3468 17.8895H18.8002V19.8895H22.3468V17.8895ZM19.8002 18.8895V17.2895H17.8002V18.8895H19.8002ZM19.8002 17.2898C19.8004 16.5167 19.1738 15.8897 18.4006 15.8895L18.4002 17.8895C18.0687 17.8895 17.8001 17.6207 17.8002 17.2893L19.8002 17.2898ZM18.4004 15.8895C18.4004 15.8895 18.4004 15.8895 18.4004 15.8895H18.4004H18.4004C18.4004 15.8895 18.4004 15.8895 18.4004 15.8895H18.4004H18.4004C18.4004 15.8895 18.4004 15.8895 18.4004 15.8895C18.4004 15.8895 18.4004 15.8895 18.4004 15.8895H18.4004C18.4004 15.8895 18.4004 15.8895 18.4004 15.8895H18.4004C18.4004 15.8895 18.4004 15.8895 18.4004 15.8895C18.4004 15.8895 18.4004 15.8895 18.4004 15.8895C18.4004 15.8895 18.4004 15.8895 18.4004 15.8895H18.4004H18.4004H18.4003H18.4003H18.4003H18.4003C18.4003 15.8895 18.4003 15.8895 18.4003 15.8895C18.4003 15.8895 18.4003 15.8895 18.4003 15.8895C18.4003 15.8895 18.4003 15.8895 18.4003 15.8895C18.4003 15.8895 18.4003 15.8895 18.4003 15.8895H18.4003C18.4003 15.8895 18.4003 15.8895 18.4003 15.8895C18.4003 15.8895 18.4003 15.8895 18.4003 15.8895H18.4003C18.4003 15.8895 18.4003 15.8895 18.4003 15.8895H18.4003C18.4003 15.8895 18.4003 15.8895 18.4003 15.8895C18.4003 15.8895 18.4003 15.8895 18.4003 15.8895C18.4003 15.8895 18.4003 15.8895 18.4003 15.8895C18.4003 15.8895 18.4003 15.8895 18.4003 15.8895C18.4003 15.8895 18.4003 15.8895 18.4003 15.8895C18.4003 15.8895 18.4003 15.8895 18.4003 15.8895C18.4003 15.8895 18.4003 15.8895 18.4003 15.8895C18.4003 15.8895 18.4003 15.8895 18.4003 15.8895C18.4003 15.8895 18.4003 15.8895 18.4003 15.8895H18.4003C18.4003 15.8895 18.4003 15.8895 18.4003 15.8895H18.4003C18.4003 15.8895 18.4003 15.8895 18.4003 15.8895C18.4003 15.8895 18.4003 15.8895 18.4003 15.8895H18.4003C18.4003 15.8895 18.4003 15.8895 18.4003 15.8895C18.4003 15.8895 18.4003 15.8895 18.4003 15.8895H18.4003C18.4003 15.8895 18.4003 15.8895 18.4003 15.8895C18.4003 15.8895 18.4003 15.8895 18.4003 15.8895H18.4003C18.4003 15.8895 18.4003 15.8895 18.4003 15.8895C18.4003 15.8895 18.4003 15.8895 18.4003 15.8895H18.4003C18.4003 15.8895 18.4003 15.8895 18.4003 15.8895H18.4003C18.4003 15.8895 18.4003 15.8895 18.4003 15.8895C18.4003 15.8895 18.4003 15.8895 18.4003 15.8895H18.4003C18.4003 15.8895 18.4003 15.8895 18.4003 15.8895C18.4003 15.8895 18.4003 15.8895 18.4003 15.8895H18.4003C18.4003 15.8895 18.4003 15.8895 18.4003 15.8895C18.4003 15.8895 18.4003 15.8895 18.4003 15.8895C18.4003 15.8895 18.4003 15.8895 18.4003 15.8895C18.4003 15.8895 18.4003 15.8895 18.4003 15.8895H18.4003C18.4003 15.8895 18.4003 15.8895 18.4003 15.8895H18.4002C18.4002 15.8895 18.4002 15.8895 18.4002 15.8895C18.4002 15.8895 18.4002 15.8895 18.4002 15.8895C18.4002 15.8895 18.4002 15.8895 18.4002 15.8895H18.4002C18.4002 15.8895 18.4002 15.8895 18.4002 15.8895H18.4002C18.4002 15.8895 18.4002 15.8895 18.4002 15.8895H18.4002C18.4002 15.8895 18.4002 15.8895 18.4002 15.8895C18.4002 15.8895 18.4002 15.8895 18.4002 15.8895H18.4002C18.4002 15.8895 18.4002 15.8895 18.4002 15.8895C18.4002 15.8895 18.4002 15.8895 18.4002 15.8895C18.4002 15.8895 18.4002 15.8895 18.4002 15.8895H18.4002H18.4002C18.4002 15.8895 18.4002 15.8895 18.4002 15.8895C18.4002 15.8895 18.4002 15.8895 18.4002 15.8895C18.4002 15.8895 18.4002 15.8895 18.4002 15.8895C18.4002 15.8895 18.4002 15.8895 18.4002 15.8895C18.4002 15.8895 18.4002 15.8895 18.4002 15.8895C18.4002 15.8895 18.4002 15.8895 18.4002 15.8895H18.4002C18.4002 15.8895 18.4002 15.8895 18.4002 15.8895C18.4002 15.8895 18.4002 15.8895 18.4002 15.8895H18.4002C18.4002 15.8895 18.4002 15.8895 18.4002 15.8895C18.4002 15.8895 18.4002 15.8895 18.4002 15.8895C18.4002 15.8895 18.4002 15.8895 18.4002 15.8895H18.4002C18.4002 15.8895 18.4002 15.8895 18.4002 15.8895C18.4002 15.8895 18.4002 15.8895 18.4002 15.8895C18.4002 15.8895 18.4002 15.8895 18.4002 15.8895C18.4002 15.8895 18.4002 15.8895 18.4002 15.8895H18.4002C18.4002 15.8895 18.4002 15.8895 18.4002 15.8895V17.8895C18.4002 17.8895 18.4002 17.8895 18.4002 17.8895H18.4002C18.4002 17.8895 18.4002 17.8895 18.4002 17.8895C18.4002 17.8895 18.4002 17.8895 18.4002 17.8895C18.4002 17.8895 18.4002 17.8895 18.4002 17.8895C18.4002 17.8895 18.4002 17.8895 18.4002 17.8895H18.4002C18.4002 17.8895 18.4002 17.8895 18.4002 17.8895C18.4002 17.8895 18.4002 17.8895 18.4002 17.8895C18.4002 17.8895 18.4002 17.8895 18.4002 17.8895H18.4002C18.4002 17.8895 18.4002 17.8895 18.4002 17.8895C18.4002 17.8895 18.4002 17.8895 18.4002 17.8895H18.4002C18.4002 17.8895 18.4002 17.8895 18.4002 17.8895C18.4002 17.8895 18.4002 17.8895 18.4002 17.8895C18.4002 17.8895 18.4002 17.8895 18.4002 17.8895C18.4002 17.8895 18.4002 17.8895 18.4002 17.8895C18.4002 17.8895 18.4002 17.8895 18.4002 17.8895C18.4002 17.8895 18.4002 17.8895 18.4002 17.8895H18.4002H18.4002C18.4002 17.8895 18.4002 17.8895 18.4002 17.8895C18.4002 17.8895 18.4002 17.8895 18.4002 17.8895C18.4002 17.8895 18.4002 17.8895 18.4002 17.8895H18.4002C18.4002 17.8895 18.4002 17.8895 18.4002 17.8895C18.4002 17.8895 18.4002 17.8895 18.4002 17.8895H18.4002C18.4002 17.8895 18.4002 17.8895 18.4002 17.8895H18.4002C18.4002 17.8895 18.4002 17.8895 18.4002 17.8895H18.4002C18.4002 17.8895 18.4002 17.8895 18.4002 17.8895C18.4002 17.8895 18.4002 17.8895 18.4002 17.8895C18.4002 17.8895 18.4002 17.8895 18.4002 17.8895H18.4003C18.4003 17.8895 18.4003 17.8895 18.4003 17.8895H18.4003C18.4003 17.8895 18.4003 17.8895 18.4003 17.8895C18.4003 17.8895 18.4003 17.8895 18.4003 17.8895C18.4003 17.8895 18.4003 17.8895 18.4003 17.8895C18.4003 17.8895 18.4003 17.8895 18.4003 17.8895H18.4003C18.4003 17.8895 18.4003 17.8895 18.4003 17.8895C18.4003 17.8895 18.4003 17.8895 18.4003 17.8895H18.4003C18.4003 17.8895 18.4003 17.8895 18.4003 17.8895C18.4003 17.8895 18.4003 17.8895 18.4003 17.8895H18.4003C18.4003 17.8895 18.4003 17.8895 18.4003 17.8895H18.4003C18.4003 17.8895 18.4003 17.8895 18.4003 17.8895C18.4003 17.8895 18.4003 17.8895 18.4003 17.8895H18.4003C18.4003 17.8895 18.4003 17.8895 18.4003 17.8895C18.4003 17.8895 18.4003 17.8895 18.4003 17.8895H18.4003C18.4003 17.8895 18.4003 17.8895 18.4003 17.8895C18.4003 17.8895 18.4003 17.8895 18.4003 17.8895H18.4003C18.4003 17.8895 18.4003 17.8895 18.4003 17.8895C18.4003 17.8895 18.4003 17.8895 18.4003 17.8895H18.4003C18.4003 17.8895 18.4003 17.8895 18.4003 17.8895H18.4003C18.4003 17.8895 18.4003 17.8895 18.4003 17.8895C18.4003 17.8895 18.4003 17.8895 18.4003 17.8895C18.4003 17.8895 18.4003 17.8895 18.4003 17.8895C18.4003 17.8895 18.4003 17.8895 18.4003 17.8895C18.4003 17.8895 18.4003 17.8895 18.4003 17.8895C18.4003 17.8895 18.4003 17.8895 18.4003 17.8895C18.4003 17.8895 18.4003 17.8895 18.4003 17.8895C18.4003 17.8895 18.4003 17.8895 18.4003 17.8895C18.4003 17.8895 18.4003 17.8895 18.4003 17.8895H18.4003C18.4003 17.8895 18.4003 17.8895 18.4003 17.8895H18.4003C18.4003 17.8895 18.4003 17.8895 18.4003 17.8895C18.4003 17.8895 18.4003 17.8895 18.4003 17.8895H18.4003C18.4003 17.8895 18.4003 17.8895 18.4003 17.8895C18.4003 17.8895 18.4003 17.8895 18.4003 17.8895C18.4003 17.8895 18.4003 17.8895 18.4003 17.8895C18.4003 17.8895 18.4003 17.8895 18.4003 17.8895H18.4003H18.4003H18.4003H18.4004H18.4004H18.4004C18.4004 17.8895 18.4004 17.8895 18.4004 17.8895C18.4004 17.8895 18.4004 17.8895 18.4004 17.8895C18.4004 17.8895 18.4004 17.8895 18.4004 17.8895H18.4004C18.4004 17.8895 18.4004 17.8895 18.4004 17.8895H18.4004C18.4004 17.8895 18.4004 17.8895 18.4004 17.8895C18.4004 17.8895 18.4004 17.8895 18.4004 17.8895H18.4004H18.4004C18.4004 17.8895 18.4004 17.8895 18.4004 17.8895H18.4004H18.4004C18.4004 17.8895 18.4004 17.8895 18.4004 17.8895V15.8895ZM18.4002 15.8895H6.40014V17.8895H18.4002V15.8895ZM7.40014 16.8895V14.8895H5.40014V16.8895H7.40014ZM6.40014 15.8895H8.00015V13.8895H6.40014V15.8895ZM7.99992 15.8895C8.77299 15.8897 9.39997 15.2631 9.40015 14.49L7.40015 14.4895C7.40022 14.158 7.669 13.8895 8.00037 13.8895L7.99992 15.8895ZM3.52628 11.4895H7.60015V9.48951H3.52628V11.4895ZM6.60015 10.4895V14.0895H8.60015V10.4895H6.60015ZM7.60015 13.0895H2.78508V15.0895H7.60015V13.0895ZM3.76454 14.2912L4.50574 10.6912L2.54683 10.2879L1.80562 13.8879L3.76454 14.2912ZM13.8002 19.2893C13.8002 19.2893 13.8002 19.2893 13.8002 19.2893C13.8002 19.2893 13.8002 19.2893 13.8002 19.2893V19.2893V19.2894C13.8002 19.2894 13.8002 19.2894 13.8002 19.2894C13.8002 19.2894 13.8002 19.2894 13.8002 19.2894C13.8002 19.2894 13.8002 19.2894 13.8002 19.2894V19.2894C13.8002 19.2894 13.8002 19.2894 13.8002 19.2894V19.2894C13.8002 19.2894 13.8002 19.2894 13.8002 19.2894C13.8002 19.2894 13.8002 19.2894 13.8002 19.2894V19.2894C13.8002 19.2894 13.8002 19.2894 13.8002 19.2894C13.8002 19.2894 13.8002 19.2894 13.8002 19.2894C13.8002 19.2894 13.8002 19.2894 13.8002 19.2894C13.8002 19.2894 13.8002 19.2894 13.8002 19.2894C13.8002 19.2894 13.8002 19.2894 13.8002 19.2894C13.8002 19.2894 13.8002 19.2894 13.8002 19.2894C13.8002 19.2894 13.8002 19.2894 13.8002 19.2894V19.2894V19.2894C13.8002 19.2894 13.8002 19.2894 13.8002 19.2894C13.8002 19.2894 13.8002 19.2894 13.8002 19.2894C13.8002 19.2894 13.8002 19.2894 13.8002 19.2894V19.2894C13.8002 19.2894 13.8002 19.2894 13.8002 19.2894C13.8002 19.2894 13.8002 19.2894 13.8002 19.2894V19.2894C13.8002 19.2894 13.8002 19.2894 13.8002 19.2894V19.2894C13.8002 19.2894 13.8002 19.2894 13.8002 19.2894V19.2894C13.8002 19.2894 13.8002 19.2894 13.8002 19.2894V19.2894C13.8002 19.2894 13.8002 19.2894 13.8002 19.2894V19.2894C13.8002 19.2894 13.8002 19.2894 13.8002 19.2894V19.2894C13.8002 19.2894 13.8002 19.2894 13.8002 19.2894C13.8002 19.2894 13.8002 19.2894 13.8002 19.2894V19.2894C13.8002 19.2894 13.8002 19.2894 13.8002 19.2894V19.2894C13.8002 19.2894 13.8002 19.2894 13.8002 19.2894C13.8002 19.2894 13.8002 19.2894 13.8002 19.2894V19.2894C13.8002 19.2894 13.8002 19.2894 13.8002 19.2894C13.8002 19.2894 13.8002 19.2894 13.8002 19.2894V19.2894C13.8002 19.2894 13.8002 19.2894 13.8002 19.2894C13.8002 19.2894 13.8002 19.2894 13.8002 19.2894V19.2894C13.8002 19.2894 13.8002 19.2894 13.8002 19.2894C13.8002 19.2894 13.8002 19.2894 13.8002 19.2894V19.2894C13.8002 19.2894 13.8002 19.2894 13.8002 19.2895C13.8002 19.2895 13.8002 19.2895 13.8002 19.2895V19.2895C13.8002 19.2895 13.8002 19.2895 13.8002 19.2895V19.2895C13.8002 19.2895 13.8002 19.2895 13.8002 19.2895C13.8002 19.2895 13.8002 19.2895 13.8002 19.2895V19.2895C13.8002 19.2895 13.8002 19.2895 13.8002 19.2895C13.8002 19.2895 13.8002 19.2895 13.8002 19.2895C13.8002 19.2895 13.8002 19.2895 13.8002 19.2895C13.8002 19.2895 13.8002 19.2895 13.8002 19.2895V19.2895C13.8002 19.2895 13.8002 19.2895 13.8002 19.2895V19.2895C13.8002 19.2895 13.8002 19.2895 13.8002 19.2895V19.2895C13.8002 19.2895 13.8002 19.2895 13.8002 19.2895C13.8002 19.2895 13.8002 19.2895 13.8002 19.2895C13.8002 19.2895 13.8002 19.2895 13.8002 19.2895C13.8002 19.2895 13.8002 19.2895 13.8002 19.2895V19.2895C13.8002 19.2895 13.8002 19.2895 13.8002 19.2895C13.8002 19.2895 13.8002 19.2895 13.8002 19.2895V19.2895C13.8002 19.2895 13.8002 19.2895 13.8002 19.2895C13.8002 19.2895 13.8002 19.2895 13.8002 19.2895C13.8002 19.2895 13.8002 19.2895 13.8002 19.2895C13.8002 19.2895 13.8002 19.2895 13.8002 19.2895V19.2895V19.2895V19.2895V19.2895V19.2895C13.8002 19.2895 13.8002 19.2895 13.8002 19.2895C13.8002 19.2895 13.8002 19.2895 13.8002 19.2895C13.8002 19.2895 13.8002 19.2895 13.8002 19.2895V19.2895C13.8002 19.2895 13.8002 19.2895 13.8002 19.2895C13.8002 19.2895 13.8002 19.2895 13.8002 19.2895C13.8002 19.2895 13.8002 19.2895 13.8002 19.2895V19.2895C13.8002 19.2895 13.8002 19.2895 13.8002 19.2895C13.8002 19.2895 13.8002 19.2895 13.8002 19.2895C13.8002 19.2895 13.8002 19.2895 13.8002 19.2895C13.8002 19.2895 13.8002 19.2895 13.8002 19.2895C13.8002 19.2895 13.8002 19.2895 13.8002 19.2895C13.8002 19.2895 13.8002 19.2895 13.8002 19.2895C13.8002 19.2895 13.8002 19.2895 13.8002 19.2895H15.8002C15.8002 19.2895 15.8002 19.2895 15.8002 19.2895C15.8002 19.2895 15.8002 19.2895 15.8002 19.2895C15.8002 19.2895 15.8002 19.2895 15.8002 19.2895C15.8002 19.2895 15.8002 19.2895 15.8002 19.2895C15.8002 19.2895 15.8002 19.2895 15.8002 19.2895C15.8002 19.2895 15.8002 19.2895 15.8002 19.2895C15.8002 19.2895 15.8002 19.2895 15.8002 19.2895V19.2895C15.8002 19.2895 15.8002 19.2895 15.8002 19.2895C15.8002 19.2895 15.8002 19.2895 15.8002 19.2895C15.8002 19.2895 15.8002 19.2895 15.8002 19.2895V19.2895C15.8002 19.2895 15.8002 19.2895 15.8002 19.2895C15.8002 19.2895 15.8002 19.2895 15.8002 19.2895C15.8002 19.2895 15.8002 19.2895 15.8002 19.2895V19.2895V19.2895V19.2895V19.2895V19.2895C15.8002 19.2895 15.8002 19.2895 15.8002 19.2895C15.8002 19.2895 15.8002 19.2895 15.8002 19.2895C15.8002 19.2895 15.8002 19.2895 15.8002 19.2895C15.8002 19.2895 15.8002 19.2895 15.8002 19.2895V19.2895C15.8002 19.2895 15.8002 19.2895 15.8002 19.2895C15.8002 19.2895 15.8002 19.2895 15.8002 19.2895V19.2895C15.8002 19.2895 15.8002 19.2895 15.8002 19.2895C15.8002 19.2895 15.8002 19.2895 15.8002 19.2895C15.8002 19.2895 15.8002 19.2895 15.8002 19.2895C15.8002 19.2895 15.8002 19.2895 15.8002 19.2895V19.2895C15.8002 19.2895 15.8002 19.2895 15.8002 19.2895V19.2895C15.8002 19.2895 15.8002 19.2895 15.8002 19.2895V19.2895C15.8002 19.2895 15.8002 19.2895 15.8002 19.2895C15.8002 19.2895 15.8002 19.2895 15.8002 19.2895C15.8002 19.2895 15.8002 19.2895 15.8002 19.2895C15.8002 19.2895 15.8002 19.2895 15.8002 19.2895V19.2895C15.8002 19.2895 15.8002 19.2895 15.8002 19.2895C15.8002 19.2895 15.8002 19.2895 15.8002 19.2895V19.2895C15.8002 19.2895 15.8002 19.2895 15.8002 19.2895V19.2895C15.8002 19.2895 15.8002 19.2895 15.8002 19.2895C15.8002 19.2894 15.8002 19.2894 15.8002 19.2894V19.2894C15.8002 19.2894 15.8002 19.2894 15.8002 19.2894C15.8002 19.2894 15.8002 19.2894 15.8002 19.2894V19.2894C15.8002 19.2894 15.8002 19.2894 15.8002 19.2894C15.8002 19.2894 15.8002 19.2894 15.8002 19.2894V19.2894C15.8002 19.2894 15.8002 19.2894 15.8002 19.2894C15.8002 19.2894 15.8002 19.2894 15.8002 19.2894V19.2894C15.8002 19.2894 15.8002 19.2894 15.8002 19.2894C15.8002 19.2894 15.8002 19.2894 15.8002 19.2894V19.2894C15.8002 19.2894 15.8002 19.2894 15.8002 19.2894V19.2894C15.8002 19.2894 15.8002 19.2894 15.8002 19.2894C15.8002 19.2894 15.8002 19.2894 15.8002 19.2894V19.2894C15.8002 19.2894 15.8002 19.2894 15.8002 19.2894V19.2894C15.8002 19.2894 15.8002 19.2894 15.8002 19.2894V19.2894C15.8002 19.2894 15.8002 19.2894 15.8002 19.2894V19.2894C15.8002 19.2894 15.8002 19.2894 15.8002 19.2894V19.2894C15.8002 19.2894 15.8002 19.2894 15.8002 19.2894V19.2894C15.8002 19.2894 15.8002 19.2894 15.8002 19.2894C15.8002 19.2894 15.8002 19.2894 15.8002 19.2894V19.2894C15.8002 19.2894 15.8002 19.2894 15.8002 19.2894C15.8002 19.2894 15.8002 19.2894 15.8002 19.2894C15.8002 19.2894 15.8002 19.2894 15.8002 19.2894V19.2894V19.2894C15.8002 19.2894 15.8002 19.2894 15.8002 19.2894C15.8002 19.2894 15.8002 19.2894 15.8002 19.2894C15.8002 19.2894 15.8002 19.2894 15.8002 19.2894C15.8002 19.2894 15.8002 19.2894 15.8002 19.2894C15.8002 19.2894 15.8002 19.2894 15.8002 19.2894C15.8002 19.2894 15.8002 19.2894 15.8002 19.2894C15.8002 19.2894 15.8002 19.2894 15.8002 19.2894V19.2894C15.8002 19.2894 15.8002 19.2894 15.8002 19.2894C15.8002 19.2894 15.8002 19.2894 15.8002 19.2894V19.2894C15.8002 19.2894 15.8002 19.2894 15.8002 19.2894V19.2894C15.8002 19.2894 15.8002 19.2894 15.8002 19.2894C15.8002 19.2894 15.8002 19.2894 15.8002 19.2894C15.8002 19.2894 15.8002 19.2894 15.8002 19.2894V19.2893V19.2893C15.8002 19.2893 15.8002 19.2893 15.8002 19.2893C15.8002 19.2893 15.8002 19.2893 15.8002 19.2893H13.8002ZM13.8002 19.2895V23.2896H15.8002V19.2895H13.8002ZM14.8002 22.2896H0.890773V24.2896H14.8002V22.2896ZM1.87023 23.4912L3.59983 15.0912L1.64093 14.6879L-0.0886792 23.0879L1.87023 23.4912ZM2.62038 15.8895H5.60019V13.8895H2.62038V15.8895ZM4.60019 14.8895V17.2895H6.60019V14.8895H4.60019ZM4.60019 17.2893C4.60001 18.0624 5.22657 18.6894 5.99976 18.6895L6.00022 16.6895C6.33171 16.6896 6.60026 16.9584 6.60019 17.2898L4.60019 17.2893ZM5.99999 18.6895C5.99999 18.6895 5.99999 18.6895 5.99999 18.6895C5.99999 18.6895 5.99999 18.6895 5.99999 18.6895C5.99999 18.6895 5.99999 18.6895 5.99999 18.6895C5.99999 18.6895 5.99999 18.6895 5.99999 18.6895H5.99999C5.99999 18.6895 5.99999 18.6895 5.99999 18.6895H5.99999C5.99999 18.6895 5.99999 18.6895 5.99999 18.6895C5.99999 18.6895 5.99999 18.6895 5.99999 18.6895C6 18.6895 6 18.6895 6 18.6895C6 18.6895 6 18.6895 6 18.6895H6C6 18.6895 6 18.6895 6 18.6895H6C6 18.6895 6 18.6895 6 18.6895H6C6 18.6895 6 18.6895 6 18.6895H6C6 18.6895 6 18.6895 6 18.6895C6 18.6895 6 18.6895 6 18.6895C6 18.6895 6 18.6895 6 18.6895C6 18.6895 6 18.6895 6 18.6895H6C6 18.6895 6 18.6895 6 18.6895H6C6 18.6895 6 18.6895 6 18.6895H6C6 18.6895 6 18.6895 6 18.6895C6 18.6895 6 18.6895 6 18.6895H6C6.00001 18.6895 6.00001 18.6895 6.00001 18.6895H6.00001C6.00001 18.6895 6.00001 18.6895 6.00001 18.6895C6.00001 18.6895 6.00001 18.6895 6.00001 18.6895H6.00001C6.00001 18.6895 6.00001 18.6895 6.00001 18.6895C6.00001 18.6895 6.00001 18.6895 6.00001 18.6895C6.00001 18.6895 6.00001 18.6895 6.00001 18.6895C6.00001 18.6895 6.00001 18.6895 6.00001 18.6895H6.00001C6.00001 18.6895 6.00001 18.6895 6.00001 18.6895C6.00001 18.6895 6.00001 18.6895 6.00001 18.6895H6.00001C6.00001 18.6895 6.00001 18.6895 6.00001 18.6895C6.00001 18.6895 6.00001 18.6895 6.00001 18.6895H6.00001C6.00001 18.6895 6.00001 18.6895 6.00001 18.6895C6.00001 18.6895 6.00001 18.6895 6.00001 18.6895H6.00001C6.00001 18.6895 6.00001 18.6895 6.00001 18.6895C6.00001 18.6895 6.00001 18.6895 6.00001 18.6895H6.00002H6.00002C6.00002 18.6895 6.00002 18.6895 6.00002 18.6895C6.00002 18.6895 6.00002 18.6895 6.00002 18.6895H6.00002C6.00002 18.6895 6.00002 18.6895 6.00002 18.6895C6.00002 18.6895 6.00002 18.6895 6.00002 18.6895H6.00002C6.00002 18.6895 6.00002 18.6895 6.00002 18.6895C6.00002 18.6895 6.00002 18.6895 6.00002 18.6895C6.00002 18.6895 6.00002 18.6895 6.00002 18.6895H6.00002C6.00002 18.6895 6.00002 18.6895 6.00002 18.6895C6.00002 18.6895 6.00002 18.6895 6.00002 18.6895C6.00002 18.6895 6.00002 18.6895 6.00002 18.6895H6.00002C6.00002 18.6895 6.00002 18.6895 6.00002 18.6895C6.00002 18.6895 6.00002 18.6895 6.00002 18.6895C6.00002 18.6895 6.00002 18.6895 6.00002 18.6895H6.00002C6.00002 18.6895 6.00002 18.6895 6.00002 18.6895C6.00003 18.6895 6.00003 18.6895 6.00003 18.6895C6.00003 18.6895 6.00003 18.6895 6.00003 18.6895H6.00003C6.00003 18.6895 6.00003 18.6895 6.00003 18.6895C6.00003 18.6895 6.00003 18.6895 6.00003 18.6895C6.00003 18.6895 6.00003 18.6895 6.00003 18.6895H6.00003H6.00003C6.00003 18.6895 6.00003 18.6895 6.00003 18.6895C6.00003 18.6895 6.00003 18.6895 6.00003 18.6895C6.00003 18.6895 6.00003 18.6895 6.00003 18.6895H6.00003H6.00003C6.00003 18.6895 6.00003 18.6895 6.00003 18.6895C6.00003 18.6895 6.00003 18.6895 6.00003 18.6895C6.00003 18.6895 6.00003 18.6895 6.00003 18.6895H6.00003H6.00003C6.00003 18.6895 6.00003 18.6895 6.00003 18.6895C6.00003 18.6895 6.00003 18.6895 6.00003 18.6895C6.00003 18.6895 6.00003 18.6895 6.00003 18.6895H6.00004H6.00004C6.00004 18.6895 6.00004 18.6895 6.00004 18.6895C6.00004 18.6895 6.00004 18.6895 6.00004 18.6895C6.00004 18.6895 6.00004 18.6895 6.00004 18.6895H6.00004H6.00004C6.00004 18.6895 6.00004 18.6895 6.00004 18.6895C6.00004 18.6895 6.00004 18.6895 6.00004 18.6895C6.00004 18.6895 6.00004 18.6895 6.00004 18.6895C6.00004 18.6895 6.00004 18.6895 6.00004 18.6895H6.00004H6.00004C6.00004 18.6895 6.00004 18.6895 6.00004 18.6895C6.00004 18.6895 6.00004 18.6895 6.00004 18.6895C6.00004 18.6895 6.00004 18.6895 6.00004 18.6895C6.00004 18.6895 6.00004 18.6895 6.00004 18.6895H6.00004H6.00004H6.00004C6.00004 18.6895 6.00004 18.6895 6.00004 18.6895C6.00004 18.6895 6.00004 18.6895 6.00005 18.6895C6.00005 18.6895 6.00005 18.6895 6.00005 18.6895C6.00005 18.6895 6.00005 18.6895 6.00005 18.6895H6.00005H6.00005C6.00005 18.6895 6.00005 18.6895 6.00005 18.6895C6.00005 18.6895 6.00005 18.6895 6.00005 18.6895C6.00005 18.6895 6.00005 18.6895 6.00005 18.6895C6.00005 18.6895 6.00005 18.6895 6.00005 18.6895C6.00005 18.6895 6.00005 18.6895 6.00005 18.6895H6.00005H6.00005H6.00005C6.00005 18.6895 6.00005 18.6895 6.00005 18.6895C6.00005 18.6895 6.00005 18.6895 6.00005 18.6895C6.00005 18.6895 6.00005 18.6895 6.00005 18.6895C6.00005 18.6895 6.00005 18.6895 6.00005 18.6895C6.00005 18.6895 6.00005 18.6895 6.00005 18.6895H6.00005H6.00005C6.00005 18.6895 6.00005 18.6895 6.00005 18.6895C6.00005 18.6895 6.00005 18.6895 6.00006 18.6895C6.00006 18.6895 6.00006 18.6895 6.00006 18.6895C6.00006 18.6895 6.00006 18.6895 6.00006 18.6895C6.00006 18.6895 6.00006 18.6895 6.00006 18.6895C6.00006 18.6895 6.00006 18.6895 6.00006 18.6895H6.00006H6.00006H6.00006C6.00006 18.6895 6.00006 18.6895 6.00006 18.6895C6.00006 18.6895 6.00006 18.6895 6.00006 18.6895C6.00006 18.6895 6.00006 18.6895 6.00006 18.6895C6.00006 18.6895 6.00006 18.6895 6.00006 18.6895C6.00006 18.6895 6.00006 18.6895 6.00006 18.6895C6.00006 18.6895 6.00006 18.6895 6.00006 18.6895H6.00006H6.00006H6.00006C6.00006 18.6895 6.00006 18.6895 6.00006 18.6895C6.00006 18.6895 6.00006 18.6895 6.00006 18.6895C6.00006 18.6895 6.00006 18.6895 6.00006 18.6895C6.00006 18.6895 6.00006 18.6895 6.00006 18.6895C6.00007 18.6895 6.00007 18.6895 6.00007 18.6895C6.00007 18.6895 6.00007 18.6895 6.00007 18.6895H6.00007H6.00007H6.00007C6.00007 18.6895 6.00007 18.6895 6.00007 18.6895C6.00007 18.6895 6.00007 18.6895 6.00007 18.6895C6.00007 18.6895 6.00007 18.6895 6.00007 18.6895C6.00007 18.6895 6.00007 18.6895 6.00007 18.6895C6.00007 18.6895 6.00007 18.6895 6.00007 18.6895C6.00007 18.6895 6.00007 18.6895 6.00007 18.6895C6.00007 18.6895 6.00007 18.6895 6.00007 18.6895H6.00007H6.00007H6.00007C6.00007 18.6895 6.00007 18.6895 6.00007 18.6895C6.00007 18.6895 6.00007 18.6895 6.00007 18.6895C6.00007 18.6895 6.00007 18.6895 6.00007 18.6895C6.00007 18.6895 6.00007 18.6895 6.00007 18.6895C6.00007 18.6895 6.00007 18.6895 6.00007 18.6895C6.00007 18.6895 6.00007 18.6895 6.00007 18.6895C6.00008 18.6895 6.00008 18.6895 6.00008 18.6895H6.00008H6.00008H6.00008H6.00008C6.00008 18.6895 6.00008 18.6895 6.00008 18.6895C6.00008 18.6895 6.00008 18.6895 6.00008 18.6895C6.00008 18.6895 6.00008 18.6895 6.00008 18.6895C6.00008 18.6895 6.00008 18.6895 6.00008 18.6895C6.00008 18.6895 6.00008 18.6895 6.00008 18.6895C6.00008 18.6895 6.00008 18.6895 6.00008 18.6895C6.00008 18.6895 6.00008 18.6895 6.00008 18.6895C6.00008 18.6895 6.00008 18.6895 6.00008 18.6895H6.00008H6.00008H6.00008C6.00008 18.6895 6.00008 18.6895 6.00008 18.6895C6.00008 18.6895 6.00008 18.6895 6.00008 18.6895C6.00008 18.6895 6.00008 18.6895 6.00008 18.6895C6.00008 18.6895 6.00008 18.6895 6.00008 18.6895C6.00008 18.6895 6.00008 18.6895 6.00008 18.6895C6.00009 18.6895 6.00009 18.6895 6.00009 18.6895C6.00009 18.6895 6.00009 18.6895 6.00009 18.6895C6.00009 18.6895 6.00009 18.6895 6.00009 18.6895H6.00009H6.00009H6.00009H6.00009C6.00009 18.6895 6.00009 18.6895 6.00009 18.6895C6.00009 18.6895 6.00009 18.6895 6.00009 18.6895C6.00009 18.6895 6.00009 18.6895 6.00009 18.6895C6.00009 18.6895 6.00009 18.6895 6.00009 18.6895C6.00009 18.6895 6.00009 18.6895 6.00009 18.6895C6.00009 18.6895 6.00009 18.6895 6.00009 18.6895C6.00009 18.6895 6.00009 18.6895 6.00009 18.6895C6.00009 18.6895 6.00009 18.6895 6.00009 18.6895H6.00009H6.00009H6.00009C6.00009 18.6895 6.00009 18.6895 6.00009 18.6895C6.00009 18.6895 6.00009 18.6895 6.00009 18.6895C6.00009 18.6895 6.00009 18.6895 6.00009 18.6895C6.00009 18.6895 6.00009 18.6895 6.0001 18.6895C6.0001 18.6895 6.0001 18.6895 6.0001 18.6895C6.0001 18.6895 6.0001 18.6895 6.0001 18.6895C6.0001 18.6895 6.0001 18.6895 6.0001 18.6895C6.0001 18.6895 6.0001 18.6895 6.0001 18.6895H6.0001H6.0001H6.0001H6.0001C6.0001 18.6895 6.0001 18.6895 6.0001 18.6895C6.0001 18.6895 6.0001 18.6895 6.0001 18.6895C6.0001 18.6895 6.0001 18.6895 6.0001 18.6895C6.0001 18.6895 6.0001 18.6895 6.0001 18.6895C6.0001 18.6895 6.0001 18.6895 6.0001 18.6895C6.0001 18.6895 6.0001 18.6895 6.0001 18.6895C6.0001 18.6895 6.0001 18.6895 6.0001 18.6895H6.0001H6.0001H6.0001H6.0001C6.0001 18.6895 6.0001 18.6895 6.0001 18.6895C6.0001 18.6895 6.0001 18.6895 6.00011 18.6895C6.00011 18.6895 6.00011 18.6895 6.00011 18.6895C6.00011 18.6895 6.00011 18.6895 6.00011 18.6895C6.00011 18.6895 6.00011 18.6895 6.00011 18.6895C6.00011 18.6895 6.00011 18.6895 6.00011 18.6895C6.00011 18.6895 6.00011 18.6895 6.00011 18.6895H6.00011H6.00011H6.00011H6.00011C6.00011 18.6895 6.00011 18.6895 6.00011 18.6895C6.00011 18.6895 6.00011 18.6895 6.00011 18.6895C6.00011 18.6895 6.00011 18.6895 6.00011 18.6895C6.00011 18.6895 6.00011 18.6895 6.00011 18.6895C6.00011 18.6895 6.00011 18.6895 6.00011 18.6895C6.00011 18.6895 6.00011 18.6895 6.00011 18.6895C6.00011 18.6895 6.00011 18.6895 6.00011 18.6895H6.00011H6.00011H6.00011C6.00011 18.6895 6.00011 18.6895 6.00011 18.6895C6.00011 18.6895 6.00011 18.6895 6.00012 18.6895C6.00012 18.6895 6.00012 18.6895 6.00012 18.6895C6.00012 18.6895 6.00012 18.6895 6.00012 18.6895C6.00012 18.6895 6.00012 18.6895 6.00012 18.6895C6.00012 18.6895 6.00012 18.6895 6.00012 18.6895H6.00012H6.00012H6.00012C6.00012 18.6895 6.00012 18.6895 6.00012 18.6895C6.00012 18.6895 6.00012 18.6895 6.00012 18.6895C6.00012 18.6895 6.00012 18.6895 6.00012 18.6895C6.00012 18.6895 6.00012 18.6895 6.00012 18.6895C6.00012 18.6895 6.00012 18.6895 6.00012 18.6895C6.00012 18.6895 6.00012 18.6895 6.00012 18.6895H6.00012H6.00012H6.00012C6.00012 18.6895 6.00012 18.6895 6.00012 18.6895C6.00012 18.6895 6.00012 18.6895 6.00012 18.6895C6.00012 18.6895 6.00012 18.6895 6.00012 18.6895C6.00012 18.6895 6.00012 18.6895 6.00012 18.6895C6.00013 18.6895 6.00013 18.6895 6.00013 18.6895C6.00013 18.6895 6.00013 18.6895 6.00013 18.6895H6.00013H6.00013C6.00013 18.6895 6.00013 18.6895 6.00013 18.6895C6.00013 18.6895 6.00013 18.6895 6.00013 18.6895C6.00013 18.6895 6.00013 18.6895 6.00013 18.6895C6.00013 18.6895 6.00013 18.6895 6.00013 18.6895C6.00013 18.6895 6.00013 18.6895 6.00013 18.6895H6.00013H6.00013H6.00013C6.00013 18.6895 6.00013 18.6895 6.00013 18.6895C6.00013 18.6895 6.00013 18.6895 6.00013 18.6895C6.00013 18.6895 6.00013 18.6895 6.00013 18.6895C6.00013 18.6895 6.00013 18.6895 6.00013 18.6895C6.00013 18.6895 6.00013 18.6895 6.00013 18.6895H6.00013H6.00013C6.00013 18.6895 6.00013 18.6895 6.00013 18.6895C6.00013 18.6895 6.00013 18.6895 6.00013 18.6895C6.00014 18.6895 6.00014 18.6895 6.00014 18.6895C6.00014 18.6895 6.00014 18.6895 6.00014 18.6895H6.00014H6.00014H6.00014C6.00014 18.6895 6.00014 18.6895 6.00014 18.6895C6.00014 18.6895 6.00014 18.6895 6.00014 18.6895C6.00014 18.6895 6.00014 18.6895 6.00014 18.6895C6.00014 18.6895 6.00014 18.6895 6.00014 18.6895H6.00014H6.00014C6.00014 18.6895 6.00014 18.6895 6.00014 18.6895C6.00014 18.6895 6.00014 18.6895 6.00014 18.6895C6.00014 18.6895 6.00014 18.6895 6.00014 18.6895C6.00014 18.6895 6.00014 18.6895 6.00014 18.6895H6.00014H6.00014C6.00014 18.6895 6.00014 18.6895 6.00014 18.6895C6.00014 18.6895 6.00014 18.6895 6.00014 18.6895C6.00014 18.6895 6.00014 18.6895 6.00014 18.6895H6.00014H6.00015C6.00015 18.6895 6.00015 18.6895 6.00015 18.6895C6.00015 18.6895 6.00015 18.6895 6.00015 18.6895C6.00015 18.6895 6.00015 18.6895 6.00015 18.6895C6.00015 18.6895 6.00015 18.6895 6.00015 18.6895H6.00015C6.00015 18.6895 6.00015 18.6895 6.00015 18.6895C6.00015 18.6895 6.00015 18.6895 6.00015 18.6895C6.00015 18.6895 6.00015 18.6895 6.00015 18.6895C6.00015 18.6895 6.00015 18.6895 6.00015 18.6895H6.00015C6.00015 18.6895 6.00015 18.6895 6.00015 18.6895C6.00015 18.6895 6.00015 18.6895 6.00015 18.6895C6.00015 18.6895 6.00015 18.6895 6.00015 18.6895H6.00015H6.00015C6.00015 18.6895 6.00015 18.6895 6.00015 18.6895C6.00015 18.6895 6.00015 18.6895 6.00015 18.6895C6.00015 18.6895 6.00015 18.6895 6.00015 18.6895H6.00015C6.00015 18.6895 6.00015 18.6895 6.00015 18.6895C6.00015 18.6895 6.00015 18.6895 6.00016 18.6895C6.00016 18.6895 6.00016 18.6895 6.00016 18.6895H6.00016H6.00016C6.00016 18.6895 6.00016 18.6895 6.00016 18.6895C6.00016 18.6895 6.00016 18.6895 6.00016 18.6895H6.00016H6.00016C6.00016 18.6895 6.00016 18.6895 6.00016 18.6895C6.00016 18.6895 6.00016 18.6895 6.00016 18.6895H6.00016C6.00016 18.6895 6.00016 18.6895 6.00016 18.6895C6.00016 18.6895 6.00016 18.6895 6.00016 18.6895C6.00016 18.6895 6.00016 18.6895 6.00016 18.6895H6.00016C6.00016 18.6895 6.00016 18.6895 6.00016 18.6895C6.00016 18.6895 6.00016 18.6895 6.00016 18.6895C6.00016 18.6895 6.00016 18.6895 6.00016 18.6895H6.00016C6.00016 18.6895 6.00016 18.6895 6.00016 18.6895C6.00016 18.6895 6.00016 18.6895 6.00016 18.6895H6.00017C6.00017 18.6895 6.00017 18.6895 6.00017 18.6895C6.00017 18.6895 6.00017 18.6895 6.00017 18.6895H6.00017C6.00017 18.6895 6.00017 18.6895 6.00017 18.6895C6.00017 18.6895 6.00017 18.6895 6.00017 18.6895H6.00017C6.00017 18.6895 6.00017 18.6895 6.00017 18.6895C6.00017 18.6895 6.00017 18.6895 6.00017 18.6895H6.00017C6.00017 18.6895 6.00017 18.6895 6.00017 18.6895C6.00017 18.6895 6.00017 18.6895 6.00017 18.6895H6.00017C6.00017 18.6895 6.00017 18.6895 6.00017 18.6895C6.00017 18.6895 6.00017 18.6895 6.00017 18.6895H6.00017C6.00017 18.6895 6.00017 18.6895 6.00017 18.6895C6.00017 18.6895 6.00017 18.6895 6.00017 18.6895H6.00017C6.00017 18.6895 6.00017 18.6895 6.00017 18.6895H6.00017C6.00017 18.6895 6.00017 18.6895 6.00018 18.6895C6.00018 18.6895 6.00018 18.6895 6.00018 18.6895H6.00018C6.00018 18.6895 6.00018 18.6895 6.00018 18.6895H6.00018C6.00018 18.6895 6.00018 18.6895 6.00018 18.6895C6.00018 18.6895 6.00018 18.6895 6.00018 18.6895H6.00018C6.00018 18.6895 6.00018 18.6895 6.00018 18.6895H6.00018C6.00018 18.6895 6.00018 18.6895 6.00018 18.6895H6.00018C6.00018 18.6895 6.00018 18.6895 6.00018 18.6895H6.00018C6.00018 18.6895 6.00018 18.6895 6.00018 18.6895C6.00018 18.6895 6.00018 18.6895 6.00018 18.6895C6.00018 18.6895 6.00018 18.6895 6.00018 18.6895C6.00018 18.6895 6.00018 18.6895 6.00018 18.6895C6.00018 18.6895 6.00018 18.6895 6.00018 18.6895C6.00018 18.6895 6.00018 18.6895 6.00018 18.6895C6.00018 18.6895 6.00018 18.6895 6.00019 18.6895H6.00019C6.00019 18.6895 6.00019 18.6895 6.00019 18.6895H6.00019C6.00019 18.6895 6.00019 18.6895 6.00019 18.6895H6.00019C6.00019 18.6895 6.00019 18.6895 6.00019 18.6895C6.00019 18.6895 6.00019 18.6895 6.00019 18.6895C6.00019 18.6895 6.00019 18.6895 6.00019 18.6895C6.00019 18.6895 6.00019 18.6895 6.00019 18.6895H6.00019C6.00019 18.6895 6.00019 18.6895 6.00019 18.6895V16.6895C6.00019 16.6895 6.00019 16.6895 6.00019 16.6895H6.00019C6.00019 16.6895 6.00019 16.6895 6.00019 16.6895C6.00019 16.6895 6.00019 16.6895 6.00019 16.6895C6.00019 16.6895 6.00019 16.6895 6.00019 16.6895C6.00019 16.6895 6.00019 16.6895 6.00019 16.6895H6.00019C6.00019 16.6895 6.00019 16.6895 6.00019 16.6895H6.00019C6.00019 16.6895 6.00019 16.6895 6.00019 16.6895H6.00019C6.00018 16.6895 6.00018 16.6895 6.00018 16.6895C6.00018 16.6895 6.00018 16.6895 6.00018 16.6895C6.00018 16.6895 6.00018 16.6895 6.00018 16.6895C6.00018 16.6895 6.00018 16.6895 6.00018 16.6895C6.00018 16.6895 6.00018 16.6895 6.00018 16.6895C6.00018 16.6895 6.00018 16.6895 6.00018 16.6895C6.00018 16.6895 6.00018 16.6895 6.00018 16.6895H6.00018C6.00018 16.6895 6.00018 16.6895 6.00018 16.6895H6.00018C6.00018 16.6895 6.00018 16.6895 6.00018 16.6895H6.00018C6.00018 16.6895 6.00018 16.6895 6.00018 16.6895H6.00018C6.00018 16.6895 6.00018 16.6895 6.00018 16.6895C6.00018 16.6895 6.00018 16.6895 6.00018 16.6895H6.00018C6.00018 16.6895 6.00018 16.6895 6.00018 16.6895H6.00018C6.00018 16.6895 6.00018 16.6895 6.00018 16.6895C6.00017 16.6895 6.00017 16.6895 6.00017 16.6895H6.00017C6.00017 16.6895 6.00017 16.6895 6.00017 16.6895H6.00017C6.00017 16.6895 6.00017 16.6895 6.00017 16.6895C6.00017 16.6895 6.00017 16.6895 6.00017 16.6895H6.00017C6.00017 16.6895 6.00017 16.6895 6.00017 16.6895C6.00017 16.6895 6.00017 16.6895 6.00017 16.6895H6.00017C6.00017 16.6895 6.00017 16.6895 6.00017 16.6895C6.00017 16.6895 6.00017 16.6895 6.00017 16.6895H6.00017C6.00017 16.6895 6.00017 16.6895 6.00017 16.6895C6.00017 16.6895 6.00017 16.6895 6.00017 16.6895H6.00017C6.00017 16.6895 6.00017 16.6895 6.00017 16.6895C6.00017 16.6895 6.00017 16.6895 6.00017 16.6895H6.00017C6.00017 16.6895 6.00017 16.6895 6.00017 16.6895C6.00017 16.6895 6.00017 16.6895 6.00017 16.6895H6.00016C6.00016 16.6895 6.00016 16.6895 6.00016 16.6895C6.00016 16.6895 6.00016 16.6895 6.00016 16.6895H6.00016C6.00016 16.6895 6.00016 16.6895 6.00016 16.6895C6.00016 16.6895 6.00016 16.6895 6.00016 16.6895C6.00016 16.6895 6.00016 16.6895 6.00016 16.6895H6.00016C6.00016 16.6895 6.00016 16.6895 6.00016 16.6895C6.00016 16.6895 6.00016 16.6895 6.00016 16.6895C6.00016 16.6895 6.00016 16.6895 6.00016 16.6895H6.00016C6.00016 16.6895 6.00016 16.6895 6.00016 16.6895C6.00016 16.6895 6.00016 16.6895 6.00016 16.6895H6.00016H6.00016C6.00016 16.6895 6.00016 16.6895 6.00016 16.6895C6.00016 16.6895 6.00016 16.6895 6.00016 16.6895H6.00016H6.00016C6.00016 16.6895 6.00016 16.6895 6.00016 16.6895C6.00015 16.6895 6.00015 16.6895 6.00015 16.6895C6.00015 16.6895 6.00015 16.6895 6.00015 16.6895H6.00015C6.00015 16.6895 6.00015 16.6895 6.00015 16.6895C6.00015 16.6895 6.00015 16.6895 6.00015 16.6895C6.00015 16.6895 6.00015 16.6895 6.00015 16.6895H6.00015H6.00015C6.00015 16.6895 6.00015 16.6895 6.00015 16.6895C6.00015 16.6895 6.00015 16.6895 6.00015 16.6895C6.00015 16.6895 6.00015 16.6895 6.00015 16.6895H6.00015C6.00015 16.6895 6.00015 16.6895 6.00015 16.6895C6.00015 16.6895 6.00015 16.6895 6.00015 16.6895C6.00015 16.6895 6.00015 16.6895 6.00015 16.6895C6.00015 16.6895 6.00015 16.6895 6.00015 16.6895H6.00015C6.00015 16.6895 6.00015 16.6895 6.00015 16.6895C6.00015 16.6895 6.00015 16.6895 6.00015 16.6895C6.00015 16.6895 6.00015 16.6895 6.00015 16.6895C6.00015 16.6895 6.00015 16.6895 6.00015 16.6895H6.00014H6.00014C6.00014 16.6895 6.00014 16.6895 6.00014 16.6895C6.00014 16.6895 6.00014 16.6895 6.00014 16.6895C6.00014 16.6895 6.00014 16.6895 6.00014 16.6895H6.00014H6.00014C6.00014 16.6895 6.00014 16.6895 6.00014 16.6895C6.00014 16.6895 6.00014 16.6895 6.00014 16.6895C6.00014 16.6895 6.00014 16.6895 6.00014 16.6895C6.00014 16.6895 6.00014 16.6895 6.00014 16.6895H6.00014H6.00014C6.00014 16.6895 6.00014 16.6895 6.00014 16.6895C6.00014 16.6895 6.00014 16.6895 6.00014 16.6895C6.00014 16.6895 6.00014 16.6895 6.00014 16.6895C6.00014 16.6895 6.00014 16.6895 6.00014 16.6895H6.00014H6.00014H6.00014C6.00014 16.6895 6.00014 16.6895 6.00014 16.6895C6.00014 16.6895 6.00014 16.6895 6.00013 16.6895C6.00013 16.6895 6.00013 16.6895 6.00013 16.6895C6.00013 16.6895 6.00013 16.6895 6.00013 16.6895H6.00013H6.00013C6.00013 16.6895 6.00013 16.6895 6.00013 16.6895C6.00013 16.6895 6.00013 16.6895 6.00013 16.6895C6.00013 16.6895 6.00013 16.6895 6.00013 16.6895C6.00013 16.6895 6.00013 16.6895 6.00013 16.6895C6.00013 16.6895 6.00013 16.6895 6.00013 16.6895H6.00013H6.00013H6.00013C6.00013 16.6895 6.00013 16.6895 6.00013 16.6895C6.00013 16.6895 6.00013 16.6895 6.00013 16.6895C6.00013 16.6895 6.00013 16.6895 6.00013 16.6895C6.00013 16.6895 6.00013 16.6895 6.00013 16.6895C6.00013 16.6895 6.00013 16.6895 6.00013 16.6895H6.00013H6.00013C6.00013 16.6895 6.00013 16.6895 6.00013 16.6895C6.00013 16.6895 6.00013 16.6895 6.00012 16.6895C6.00012 16.6895 6.00012 16.6895 6.00012 16.6895C6.00012 16.6895 6.00012 16.6895 6.00012 16.6895C6.00012 16.6895 6.00012 16.6895 6.00012 16.6895C6.00012 16.6895 6.00012 16.6895 6.00012 16.6895H6.00012H6.00012H6.00012C6.00012 16.6895 6.00012 16.6895 6.00012 16.6895C6.00012 16.6895 6.00012 16.6895 6.00012 16.6895C6.00012 16.6895 6.00012 16.6895 6.00012 16.6895C6.00012 16.6895 6.00012 16.6895 6.00012 16.6895C6.00012 16.6895 6.00012 16.6895 6.00012 16.6895C6.00012 16.6895 6.00012 16.6895 6.00012 16.6895H6.00012H6.00012H6.00012C6.00012 16.6895 6.00012 16.6895 6.00012 16.6895C6.00012 16.6895 6.00012 16.6895 6.00012 16.6895C6.00012 16.6895 6.00012 16.6895 6.00012 16.6895C6.00012 16.6895 6.00012 16.6895 6.00012 16.6895C6.00011 16.6895 6.00011 16.6895 6.00011 16.6895C6.00011 16.6895 6.00011 16.6895 6.00011 16.6895H6.00011H6.00011H6.00011C6.00011 16.6895 6.00011 16.6895 6.00011 16.6895C6.00011 16.6895 6.00011 16.6895 6.00011 16.6895C6.00011 16.6895 6.00011 16.6895 6.00011 16.6895C6.00011 16.6895 6.00011 16.6895 6.00011 16.6895C6.00011 16.6895 6.00011 16.6895 6.00011 16.6895C6.00011 16.6895 6.00011 16.6895 6.00011 16.6895C6.00011 16.6895 6.00011 16.6895 6.00011 16.6895H6.00011H6.00011H6.00011H6.00011C6.00011 16.6895 6.00011 16.6895 6.00011 16.6895C6.00011 16.6895 6.00011 16.6895 6.00011 16.6895C6.00011 16.6895 6.00011 16.6895 6.00011 16.6895C6.00011 16.6895 6.00011 16.6895 6.00011 16.6895C6.00011 16.6895 6.00011 16.6895 6.00011 16.6895C6.0001 16.6895 6.0001 16.6895 6.0001 16.6895C6.0001 16.6895 6.0001 16.6895 6.0001 16.6895H6.0001H6.0001H6.0001H6.0001C6.0001 16.6895 6.0001 16.6895 6.0001 16.6895C6.0001 16.6895 6.0001 16.6895 6.0001 16.6895C6.0001 16.6895 6.0001 16.6895 6.0001 16.6895C6.0001 16.6895 6.0001 16.6895 6.0001 16.6895C6.0001 16.6895 6.0001 16.6895 6.0001 16.6895C6.0001 16.6895 6.0001 16.6895 6.0001 16.6895C6.0001 16.6895 6.0001 16.6895 6.0001 16.6895H6.0001H6.0001H6.0001H6.0001C6.0001 16.6895 6.0001 16.6895 6.0001 16.6895C6.0001 16.6895 6.0001 16.6895 6.0001 16.6895C6.0001 16.6895 6.0001 16.6895 6.0001 16.6895C6.0001 16.6895 6.0001 16.6895 6.0001 16.6895C6.00009 16.6895 6.00009 16.6895 6.00009 16.6895C6.00009 16.6895 6.00009 16.6895 6.00009 16.6895C6.00009 16.6895 6.00009 16.6895 6.00009 16.6895C6.00009 16.6895 6.00009 16.6895 6.00009 16.6895H6.00009H6.00009H6.00009C6.00009 16.6895 6.00009 16.6895 6.00009 16.6895C6.00009 16.6895 6.00009 16.6895 6.00009 16.6895C6.00009 16.6895 6.00009 16.6895 6.00009 16.6895C6.00009 16.6895 6.00009 16.6895 6.00009 16.6895C6.00009 16.6895 6.00009 16.6895 6.00009 16.6895C6.00009 16.6895 6.00009 16.6895 6.00009 16.6895C6.00009 16.6895 6.00009 16.6895 6.00009 16.6895C6.00009 16.6895 6.00009 16.6895 6.00009 16.6895H6.00009H6.00009H6.00009H6.00009C6.00009 16.6895 6.00009 16.6895 6.00009 16.6895C6.00009 16.6895 6.00009 16.6895 6.00009 16.6895C6.00009 16.6895 6.00009 16.6895 6.00008 16.6895C6.00008 16.6895 6.00008 16.6895 6.00008 16.6895C6.00008 16.6895 6.00008 16.6895 6.00008 16.6895C6.00008 16.6895 6.00008 16.6895 6.00008 16.6895C6.00008 16.6895 6.00008 16.6895 6.00008 16.6895C6.00008 16.6895 6.00008 16.6895 6.00008 16.6895H6.00008H6.00008H6.00008C6.00008 16.6895 6.00008 16.6895 6.00008 16.6895C6.00008 16.6895 6.00008 16.6895 6.00008 16.6895C6.00008 16.6895 6.00008 16.6895 6.00008 16.6895C6.00008 16.6895 6.00008 16.6895 6.00008 16.6895C6.00008 16.6895 6.00008 16.6895 6.00008 16.6895C6.00008 16.6895 6.00008 16.6895 6.00008 16.6895C6.00008 16.6895 6.00008 16.6895 6.00008 16.6895C6.00008 16.6895 6.00008 16.6895 6.00008 16.6895H6.00008H6.00008H6.00008H6.00008C6.00008 16.6895 6.00008 16.6895 6.00007 16.6895C6.00007 16.6895 6.00007 16.6895 6.00007 16.6895C6.00007 16.6895 6.00007 16.6895 6.00007 16.6895C6.00007 16.6895 6.00007 16.6895 6.00007 16.6895C6.00007 16.6895 6.00007 16.6895 6.00007 16.6895C6.00007 16.6895 6.00007 16.6895 6.00007 16.6895C6.00007 16.6895 6.00007 16.6895 6.00007 16.6895H6.00007H6.00007H6.00007C6.00007 16.6895 6.00007 16.6895 6.00007 16.6895C6.00007 16.6895 6.00007 16.6895 6.00007 16.6895C6.00007 16.6895 6.00007 16.6895 6.00007 16.6895C6.00007 16.6895 6.00007 16.6895 6.00007 16.6895C6.00007 16.6895 6.00007 16.6895 6.00007 16.6895C6.00007 16.6895 6.00007 16.6895 6.00007 16.6895C6.00007 16.6895 6.00007 16.6895 6.00007 16.6895H6.00007H6.00007H6.00007C6.00007 16.6895 6.00007 16.6895 6.00007 16.6895C6.00007 16.6895 6.00007 16.6895 6.00006 16.6895C6.00006 16.6895 6.00006 16.6895 6.00006 16.6895C6.00006 16.6895 6.00006 16.6895 6.00006 16.6895C6.00006 16.6895 6.00006 16.6895 6.00006 16.6895C6.00006 16.6895 6.00006 16.6895 6.00006 16.6895H6.00006H6.00006H6.00006C6.00006 16.6895 6.00006 16.6895 6.00006 16.6895C6.00006 16.6895 6.00006 16.6895 6.00006 16.6895C6.00006 16.6895 6.00006 16.6895 6.00006 16.6895C6.00006 16.6895 6.00006 16.6895 6.00006 16.6895C6.00006 16.6895 6.00006 16.6895 6.00006 16.6895C6.00006 16.6895 6.00006 16.6895 6.00006 16.6895H6.00006H6.00006H6.00006C6.00006 16.6895 6.00006 16.6895 6.00006 16.6895C6.00006 16.6895 6.00006 16.6895 6.00006 16.6895C6.00006 16.6895 6.00006 16.6895 6.00006 16.6895C6.00006 16.6895 6.00006 16.6895 6.00006 16.6895C6.00005 16.6895 6.00005 16.6895 6.00005 16.6895C6.00005 16.6895 6.00005 16.6895 6.00005 16.6895H6.00005H6.00005C6.00005 16.6895 6.00005 16.6895 6.00005 16.6895C6.00005 16.6895 6.00005 16.6895 6.00005 16.6895C6.00005 16.6895 6.00005 16.6895 6.00005 16.6895C6.00005 16.6895 6.00005 16.6895 6.00005 16.6895C6.00005 16.6895 6.00005 16.6895 6.00005 16.6895H6.00005H6.00005H6.00005C6.00005 16.6895 6.00005 16.6895 6.00005 16.6895C6.00005 16.6895 6.00005 16.6895 6.00005 16.6895C6.00005 16.6895 6.00005 16.6895 6.00005 16.6895C6.00005 16.6895 6.00005 16.6895 6.00005 16.6895C6.00005 16.6895 6.00005 16.6895 6.00005 16.6895H6.00005H6.00005C6.00005 16.6895 6.00005 16.6895 6.00005 16.6895C6.00005 16.6895 6.00005 16.6895 6.00005 16.6895C6.00004 16.6895 6.00004 16.6895 6.00004 16.6895C6.00004 16.6895 6.00004 16.6895 6.00004 16.6895H6.00004H6.00004H6.00004C6.00004 16.6895 6.00004 16.6895 6.00004 16.6895C6.00004 16.6895 6.00004 16.6895 6.00004 16.6895C6.00004 16.6895 6.00004 16.6895 6.00004 16.6895C6.00004 16.6895 6.00004 16.6895 6.00004 16.6895H6.00004H6.00004C6.00004 16.6895 6.00004 16.6895 6.00004 16.6895C6.00004 16.6895 6.00004 16.6895 6.00004 16.6895C6.00004 16.6895 6.00004 16.6895 6.00004 16.6895C6.00004 16.6895 6.00004 16.6895 6.00004 16.6895H6.00004H6.00004C6.00004 16.6895 6.00004 16.6895 6.00004 16.6895C6.00004 16.6895 6.00004 16.6895 6.00004 16.6895C6.00004 16.6895 6.00004 16.6895 6.00004 16.6895H6.00004H6.00003C6.00003 16.6895 6.00003 16.6895 6.00003 16.6895C6.00003 16.6895 6.00003 16.6895 6.00003 16.6895C6.00003 16.6895 6.00003 16.6895 6.00003 16.6895H6.00003H6.00003C6.00003 16.6895 6.00003 16.6895 6.00003 16.6895C6.00003 16.6895 6.00003 16.6895 6.00003 16.6895C6.00003 16.6895 6.00003 16.6895 6.00003 16.6895H6.00003H6.00003C6.00003 16.6895 6.00003 16.6895 6.00003 16.6895C6.00003 16.6895 6.00003 16.6895 6.00003 16.6895C6.00003 16.6895 6.00003 16.6895 6.00003 16.6895H6.00003H6.00003C6.00003 16.6895 6.00003 16.6895 6.00003 16.6895C6.00003 16.6895 6.00003 16.6895 6.00003 16.6895C6.00003 16.6895 6.00003 16.6895 6.00003 16.6895H6.00003C6.00003 16.6895 6.00003 16.6895 6.00003 16.6895C6.00003 16.6895 6.00003 16.6895 6.00002 16.6895C6.00002 16.6895 6.00002 16.6895 6.00002 16.6895H6.00002C6.00002 16.6895 6.00002 16.6895 6.00002 16.6895C6.00002 16.6895 6.00002 16.6895 6.00002 16.6895C6.00002 16.6895 6.00002 16.6895 6.00002 16.6895H6.00002C6.00002 16.6895 6.00002 16.6895 6.00002 16.6895C6.00002 16.6895 6.00002 16.6895 6.00002 16.6895C6.00002 16.6895 6.00002 16.6895 6.00002 16.6895H6.00002C6.00002 16.6895 6.00002 16.6895 6.00002 16.6895C6.00002 16.6895 6.00002 16.6895 6.00002 16.6895C6.00002 16.6895 6.00002 16.6895 6.00002 16.6895H6.00002C6.00002 16.6895 6.00002 16.6895 6.00002 16.6895C6.00002 16.6895 6.00002 16.6895 6.00002 16.6895H6.00002C6.00002 16.6895 6.00002 16.6895 6.00002 16.6895C6.00002 16.6895 6.00002 16.6895 6.00002 16.6895H6.00002H6.00001C6.00001 16.6895 6.00001 16.6895 6.00001 16.6895C6.00001 16.6895 6.00001 16.6895 6.00001 16.6895H6.00001C6.00001 16.6895 6.00001 16.6895 6.00001 16.6895C6.00001 16.6895 6.00001 16.6895 6.00001 16.6895H6.00001C6.00001 16.6895 6.00001 16.6895 6.00001 16.6895C6.00001 16.6895 6.00001 16.6895 6.00001 16.6895H6.00001C6.00001 16.6895 6.00001 16.6895 6.00001 16.6895C6.00001 16.6895 6.00001 16.6895 6.00001 16.6895H6.00001C6.00001 16.6895 6.00001 16.6895 6.00001 16.6895C6.00001 16.6895 6.00001 16.6895 6.00001 16.6895C6.00001 16.6895 6.00001 16.6895 6.00001 16.6895C6.00001 16.6895 6.00001 16.6895 6.00001 16.6895H6.00001C6.00001 16.6895 6.00001 16.6895 6.00001 16.6895C6.00001 16.6895 6.00001 16.6895 6.00001 16.6895H6.00001C6.00001 16.6895 6.00001 16.6895 6 16.6895H6C6 16.6895 6 16.6895 6 16.6895C6 16.6895 6 16.6895 6 16.6895H6C6 16.6895 6 16.6895 6 16.6895H6C6 16.6895 6 16.6895 6 16.6895H6C6 16.6895 6 16.6895 6 16.6895C6 16.6895 6 16.6895 6 16.6895C6 16.6895 6 16.6895 6 16.6895C6 16.6895 6 16.6895 6 16.6895H6C6 16.6895 6 16.6895 6 16.6895H6C6 16.6895 6 16.6895 6 16.6895H6C6 16.6895 6 16.6895 6 16.6895H6C6 16.6895 6 16.6895 6 16.6895C6 16.6895 6 16.6895 5.99999 16.6895C5.99999 16.6895 5.99999 16.6895 5.99999 16.6895C5.99999 16.6895 5.99999 16.6895 5.99999 16.6895H5.99999C5.99999 16.6895 5.99999 16.6895 5.99999 16.6895H5.99999C5.99999 16.6895 5.99999 16.6895 5.99999 16.6895C5.99999 16.6895 5.99999 16.6895 5.99999 16.6895C5.99999 16.6895 5.99999 16.6895 5.99999 16.6895C5.99999 16.6895 5.99999 16.6895 5.99999 16.6895V18.6895ZM6.00019 18.6895H18.0002V16.6895H6.00019V18.6895ZM17.0002 17.6895V18.8895H19.0002V17.6895H17.0002ZM18.0002 17.8895H15.2002V19.8895H18.0002V17.8895ZM15.2004 17.8895C14.4274 17.8894 13.8003 18.5158 13.8002 19.2891L15.8002 19.2896C15.8001 19.6211 15.5312 19.8896 15.2 19.8895L15.2004 17.8895ZM16.6002 23.2896V19.6895H14.6002V23.2896H16.6002ZM15.6002 20.6895H22.488V18.6895H15.6002V20.6895ZM21.5032 19.8633L22.1385 23.4633L24.108 23.1158L23.4728 19.5158L21.5032 19.8633ZM23.1232 22.2896H15.6002V24.2896H23.1232V22.2896Z" fill="white" mask="url(#path-2-inside-1_4507_351)"/>
</svg>
