<svg width="24" height="24" viewBox="0 0 24 24" fill="none" xmlns="http://www.w3.org/2000/svg">
<path d="M20.8695 19.0435H16.1738C15.8858 19.0435 15.6521 18.8103 15.6521 18.5217C15.6521 18.2332 15.8858 18 16.1738 18H20.8695C21.1575 18 21.3912 18.2332 21.3912 18.5217C21.3912 18.8103 21.1575 19.0435 20.8695 19.0435Z" fill="white" stroke="white" stroke-width="0.3"/>
<path d="M18.5217 21.3915C18.2337 21.3915 18 21.1583 18 20.8697V16.1741C18 15.8856 18.2337 15.6523 18.5217 15.6523C18.8097 15.6523 19.0435 15.8856 19.0435 16.1741V20.8697C19.0435 21.1583 18.8097 21.3915 18.5217 21.3915Z" fill="white" stroke="white" stroke-width="0.3"/>
<path d="M2.6087 24.0006C1.17026 24.0006 0 22.8303 0 21.3919C0 21.1033 0.233739 20.8701 0.521739 20.8701C0.809739 20.8701 1.04348 21.1033 1.04348 21.3919C1.04348 22.2548 1.74574 22.9571 2.6087 22.9571C2.8967 22.9571 3.13043 23.1903 3.13043 23.4788C3.13043 23.7673 2.8967 24.0006 2.6087 24.0006Z" fill="white" stroke="white" stroke-width="0.3"/>
<path d="M8.34803 24.0005H2.6089C2.3209 24.0005 2.08716 23.7673 2.08716 23.4788C2.08716 23.1902 2.3209 22.957 2.6089 22.957H8.34803C8.63603 22.957 8.86977 23.1902 8.86977 23.4788C8.86977 23.7673 8.63603 24.0005 8.34803 24.0005Z" fill="white" stroke="white" stroke-width="0.3"/>
<path d="M0.521739 21.9125C0.233739 21.9125 0 21.6793 0 21.3908V15.6516C0 15.3631 0.233739 15.1299 0.521739 15.1299C0.809739 15.1299 1.04348 15.3631 1.04348 15.6516V21.3908C1.04348 21.6793 0.809739 21.9125 0.521739 21.9125Z" fill="white" stroke="white" stroke-width="0.3"/>
<path d="M0.521739 16.1734C0.233739 16.1734 0 15.9402 0 15.6517C0 14.2132 1.17026 13.043 2.6087 13.043C2.8967 13.043 3.13043 13.2762 3.13043 13.5647C3.13043 13.8532 2.8967 14.0864 2.6087 14.0864C1.74574 14.0864 1.04348 14.7887 1.04348 15.6517C1.04348 15.9402 0.809739 16.1734 0.521739 16.1734Z" fill="white" stroke="white" stroke-width="0.3"/>
<path d="M8.34803 14.0864H2.6089C2.3209 14.0864 2.08716 13.8532 2.08716 13.5647C2.08716 13.2762 2.3209 13.043 2.6089 13.043H8.34803C8.63603 13.043 8.86977 13.2762 8.86977 13.5647C8.86977 13.8532 8.63603 14.0864 8.34803 14.0864Z" fill="white" stroke="white" stroke-width="0.3"/>
<path d="M10.4346 16.1734C10.1466 16.1734 9.91288 15.9402 9.91288 15.6517C9.91288 14.7887 9.21062 14.0864 8.34767 14.0864C8.05967 14.0864 7.82593 13.8532 7.82593 13.5647C7.82593 13.2762 8.05967 13.043 8.34767 13.043C9.7861 13.043 10.9564 14.2132 10.9564 15.6517C10.9564 15.9402 10.7226 16.1734 10.4346 16.1734Z" fill="white" stroke="white" stroke-width="0.3"/>
<path d="M10.4346 21.9125C10.1466 21.9125 9.91284 21.6793 9.91284 21.3908V15.6516C9.91284 15.3631 10.1466 15.1299 10.4346 15.1299C10.7226 15.1299 10.9563 15.3631 10.9563 15.6516V21.3908C10.9563 21.6793 10.7226 21.9125 10.4346 21.9125Z" fill="white" stroke="white" stroke-width="0.3"/>
<path d="M8.34767 24.0006C8.05967 24.0006 7.82593 23.7673 7.82593 23.4788C7.82593 23.1903 8.05967 22.9571 8.34767 22.9571C9.21062 22.9571 9.91288 22.2548 9.91288 21.3919C9.91288 21.1033 10.1466 20.8701 10.4346 20.8701C10.7226 20.8701 10.9564 21.1033 10.9564 21.3919C10.9564 22.8303 9.7861 24.0006 8.34767 24.0006Z" fill="white" stroke="white" stroke-width="0.3"/>
<path d="M21.3911 24.0006C21.1031 24.0006 20.8694 23.7673 20.8694 23.4788C20.8694 23.1903 21.1031 22.9571 21.3911 22.9571C22.2541 22.9571 22.9563 22.2548 22.9563 21.3919C22.9563 21.1033 23.1901 20.8701 23.4781 20.8701C23.7661 20.8701 23.9998 21.1033 23.9998 21.3919C23.9998 22.8303 22.8296 24.0006 21.3911 24.0006Z" fill="white" stroke="white" stroke-width="0.3"/>
<path d="M23.4783 21.9125C23.1903 21.9125 22.9565 21.6793 22.9565 21.3908V15.6516C22.9565 15.3631 23.1903 15.1299 23.4783 15.1299C23.7663 15.1299 24 15.3631 24 15.6516V21.3908C24 21.6793 23.7663 21.9125 23.4783 21.9125Z" fill="white" stroke="white" stroke-width="0.3"/>
<path d="M21.3915 24.0005H15.6524C15.3644 24.0005 15.1306 23.7673 15.1306 23.4788C15.1306 23.1902 15.3644 22.957 15.6524 22.957H21.3915C21.6795 22.957 21.9132 23.1902 21.9132 23.4788C21.9132 23.7673 21.6795 24.0005 21.3915 24.0005Z" fill="white" stroke="white" stroke-width="0.3"/>
<path d="M15.6522 24.0006C14.2137 24.0006 13.0435 22.8303 13.0435 21.3919C13.0435 21.1033 13.2772 20.8701 13.5652 20.8701C13.8532 20.8701 14.0869 21.1033 14.0869 21.3919C14.0869 22.2548 14.7892 22.9571 15.6522 22.9571C15.9402 22.9571 16.1739 23.1903 16.1739 23.4788C16.1739 23.7673 15.9402 24.0006 15.6522 24.0006Z" fill="white" stroke="white" stroke-width="0.3"/>
<path d="M13.5652 21.9125C13.2772 21.9125 13.0435 21.6793 13.0435 21.3908V15.6516C13.0435 15.3631 13.2772 15.1299 13.5652 15.1299C13.8532 15.1299 14.0869 15.3631 14.0869 15.6516V21.3908C14.0869 21.6793 13.8532 21.9125 13.5652 21.9125Z" fill="white" stroke="white" stroke-width="0.3"/>
<path d="M13.5652 16.1734C13.2772 16.1734 13.0435 15.9402 13.0435 15.6517C13.0435 14.2132 14.2137 13.043 15.6522 13.043C15.9402 13.043 16.1739 13.2762 16.1739 13.5647C16.1739 13.8532 15.9402 14.0864 15.6522 14.0864C14.7892 14.0864 14.0869 14.7887 14.0869 15.6517C14.0869 15.9402 13.8532 16.1734 13.5652 16.1734Z" fill="white" stroke="white" stroke-width="0.3"/>
<path d="M21.3915 14.0864H15.6524C15.3644 14.0864 15.1306 13.8532 15.1306 13.5647C15.1306 13.2762 15.3644 13.043 15.6524 13.043H21.3915C21.6795 13.043 21.9132 13.2762 21.9132 13.5647C21.9132 13.8532 21.6795 14.0864 21.3915 14.0864Z" fill="white" stroke="white" stroke-width="0.3"/>
<path d="M23.4781 16.1734C23.1901 16.1734 22.9563 15.9402 22.9563 15.6517C22.9563 14.7887 22.2541 14.0864 21.3911 14.0864C21.1031 14.0864 20.8694 13.8532 20.8694 13.5647C20.8694 13.2762 21.1031 13.043 21.3911 13.043C22.8296 13.043 23.9998 14.2132 23.9998 15.6517C23.9998 15.9402 23.7661 16.1734 23.4781 16.1734Z" fill="white" stroke="white" stroke-width="0.3"/>
<path d="M21.3914 10.9566C21.1034 10.9566 20.8696 10.7234 20.8696 10.4349C20.8696 10.1463 21.1034 9.91313 21.3914 9.91313C22.2543 9.91313 22.9566 9.21087 22.9566 8.34791C22.9566 8.05939 23.1903 7.82617 23.4783 7.82617C23.7663 7.82617 24.0001 8.05939 24.0001 8.34791C24.0001 9.78635 22.8298 10.9566 21.3914 10.9566Z" fill="white" stroke="white" stroke-width="0.3"/>
<path d="M21.3912 10.9566H15.6521C15.3641 10.9566 15.1304 10.7233 15.1304 10.4348C15.1304 10.1463 15.3641 9.91309 15.6521 9.91309H21.3912C21.6792 9.91309 21.913 10.1463 21.913 10.4348C21.913 10.7233 21.6792 10.9566 21.3912 10.9566Z" fill="white" stroke="white" stroke-width="0.3"/>
<path d="M23.4783 8.86952C23.1903 8.86952 22.9565 8.63631 22.9565 8.34778V2.60865C22.9565 2.32013 23.1903 2.08691 23.4783 2.08691C23.7663 2.08691 24 2.32013 24 2.60865V8.34778C24 8.63631 23.7663 8.86952 23.4783 8.86952Z" fill="white" stroke="white" stroke-width="0.3"/>
<path d="M23.4783 3.13043C23.1903 3.13043 22.9566 2.89722 22.9566 2.6087C22.9566 1.74574 22.2543 1.04348 21.3914 1.04348C21.1034 1.04348 20.8696 0.810261 20.8696 0.521739C20.8696 0.233217 21.1034 0 21.3914 0C22.8298 0 24.0001 1.17026 24.0001 2.6087C24.0001 2.89722 23.7663 3.13043 23.4783 3.13043Z" fill="white" stroke="white" stroke-width="0.3"/>
<path d="M21.3912 1.04348H15.6521C15.3641 1.04348 15.1304 0.810261 15.1304 0.521739C15.1304 0.233217 15.3641 0 15.6521 0H21.3912C21.6792 0 21.913 0.233217 21.913 0.521739C21.913 0.810261 21.6792 1.04348 21.3912 1.04348Z" fill="white" stroke="white" stroke-width="0.3"/>
<path d="M13.5652 3.13043C13.2772 3.13043 13.0435 2.89722 13.0435 2.6087C13.0435 1.17026 14.2137 0 15.6522 0C15.9402 0 16.1739 0.233217 16.1739 0.521739C16.1739 0.810261 15.9402 1.04348 15.6522 1.04348C14.7892 1.04348 14.0869 1.74574 14.0869 2.6087C14.0869 2.89722 13.8532 3.13043 13.5652 3.13043Z" fill="white" stroke="white" stroke-width="0.3"/>
<path d="M13.5652 8.86952C13.2772 8.86952 13.0435 8.63631 13.0435 8.34778V2.60865C13.0435 2.32013 13.2772 2.08691 13.5652 2.08691C13.8532 2.08691 14.0869 2.32013 14.0869 2.60865V8.34778C14.0869 8.63631 13.8532 8.86952 13.5652 8.86952Z" fill="white" stroke="white" stroke-width="0.3"/>
<path d="M15.6522 10.9566C14.2137 10.9566 13.0435 9.78635 13.0435 8.34791C13.0435 8.05939 13.2772 7.82617 13.5652 7.82617C13.8532 7.82617 14.0869 8.05939 14.0869 8.34791C14.0869 9.21087 14.7892 9.91313 15.6522 9.91313C15.9402 9.91313 16.1739 10.1463 16.1739 10.4349C16.1739 10.7234 15.9402 10.9566 15.6522 10.9566Z" fill="white" stroke="white" stroke-width="0.3"/>
<path d="M2.6087 10.9566C1.17026 10.9566 0 9.78635 0 8.34791C0 8.05939 0.233739 7.82617 0.521739 7.82617C0.809739 7.82617 1.04348 8.05939 1.04348 8.34791C1.04348 9.21087 1.74574 9.91313 2.6087 9.91313C2.8967 9.91313 3.13043 10.1463 3.13043 10.4349C3.13043 10.7234 2.8967 10.9566 2.6087 10.9566Z" fill="white" stroke="white" stroke-width="0.3"/>
<path d="M0.521739 8.86952C0.233739 8.86952 0 8.63631 0 8.34778V2.60865C0 2.32013 0.233739 2.08691 0.521739 2.08691C0.809739 2.08691 1.04348 2.32013 1.04348 2.60865V8.34778C1.04348 8.63631 0.809739 8.86952 0.521739 8.86952Z" fill="white" stroke="white" stroke-width="0.3"/>
<path d="M8.34778 10.9566H2.60865C2.32065 10.9566 2.08691 10.7233 2.08691 10.4348C2.08691 10.1463 2.32065 9.91309 2.60865 9.91309H8.34778C8.63578 9.91309 8.86952 10.1463 8.86952 10.4348C8.86952 10.7233 8.63578 10.9566 8.34778 10.9566Z" fill="white" stroke="white" stroke-width="0.3"/>
<path d="M8.34791 10.9566C8.05991 10.9566 7.82617 10.7234 7.82617 10.4349C7.82617 10.1463 8.05991 9.91313 8.34791 9.91313C9.21087 9.91313 9.91313 9.21087 9.91313 8.34791C9.91313 8.05939 10.1469 7.82617 10.4349 7.82617C10.7229 7.82617 10.9566 8.05939 10.9566 8.34791C10.9566 9.78635 9.78635 10.9566 8.34791 10.9566Z" fill="white" stroke="white" stroke-width="0.3"/>
<path d="M10.4348 8.86952C10.1468 8.86952 9.91309 8.63631 9.91309 8.34778V2.60865C9.91309 2.32013 10.1468 2.08691 10.4348 2.08691C10.7228 2.08691 10.9566 2.32013 10.9566 2.60865V8.34778C10.9566 8.63631 10.7228 8.86952 10.4348 8.86952Z" fill="white" stroke="white" stroke-width="0.3"/>
<path d="M10.4349 3.13043C10.1469 3.13043 9.91313 2.89722 9.91313 2.6087C9.91313 1.74574 9.21087 1.04348 8.34791 1.04348C8.05991 1.04348 7.82617 0.810261 7.82617 0.521739C7.82617 0.233217 8.05991 0 8.34791 0C9.78635 0 10.9566 1.17026 10.9566 2.6087C10.9566 2.89722 10.7229 3.13043 10.4349 3.13043Z" fill="white" stroke="white" stroke-width="0.3"/>
<path d="M8.34778 1.04348H2.60865C2.32065 1.04348 2.08691 0.810261 2.08691 0.521739C2.08691 0.233217 2.32065 0 2.60865 0H8.34778C8.63578 0 8.86952 0.233217 8.86952 0.521739C8.86952 0.810261 8.63578 1.04348 8.34778 1.04348Z" fill="white" stroke="white" stroke-width="0.3"/>
<path d="M0.521739 3.13043C0.233739 3.13043 0 2.89722 0 2.6087C0 1.17026 1.17026 0 2.6087 0C2.8967 0 3.13043 0.233217 3.13043 0.521739C3.13043 0.810261 2.8967 1.04348 2.6087 1.04348C1.74574 1.04348 1.04348 1.74574 1.04348 2.6087C1.04348 2.89722 0.809739 3.13043 0.521739 3.13043Z" fill="white" stroke="white" stroke-width="0.3"/>
</svg>
