<svg width="24" height="24" viewBox="0 0 24 24" fill="none" xmlns="http://www.w3.org/2000/svg">
<path d="M22.2825 6.21751L17.7825 1.71751C17.7124 1.648 17.6293 1.59301 17.5379 1.55568C17.4466 1.51836 17.3487 1.49944 17.25 1.50001H8.25C7.65326 1.50001 7.08097 1.73707 6.65901 2.15902C6.23705 2.58098 6 3.15328 6 3.75001V8.25001C6 8.44893 6.07902 8.63969 6.21967 8.78034C6.36032 8.921 6.55109 9.00001 6.75 9.00001C6.94891 9.00001 7.13968 8.921 7.28033 8.78034C7.42098 8.63969 7.5 8.44893 7.5 8.25001V3.75001C7.5 3.5511 7.57902 3.36033 7.71967 3.21968C7.86032 3.07903 8.05109 3.00001 8.25 3.00001H16.5V5.25001C16.5 5.84675 16.7371 6.41905 17.159 6.841C17.581 7.26296 18.1533 7.50001 18.75 7.50001H21V20.25C21 20.4489 20.921 20.6397 20.7803 20.7803C20.6397 20.921 20.4489 21 20.25 21H14.25C14.0511 21 13.8603 21.079 13.7197 21.2197C13.579 21.3603 13.5 21.5511 13.5 21.75C13.5 21.9489 13.579 22.1397 13.7197 22.2803C13.8603 22.421 14.0511 22.5 14.25 22.5H20.25C20.8467 22.5 21.419 22.263 21.841 21.841C22.2629 21.419 22.5 20.8467 22.5 20.25V6.75001C22.5006 6.65131 22.4817 6.55346 22.4443 6.46208C22.407 6.3707 22.352 6.28759 22.2825 6.21751ZM18 5.25001V4.05751L19.9425 6.00001H18.75C18.5511 6.00001 18.3603 5.92099 18.2197 5.78034C18.079 5.63969 18 5.44892 18 5.25001Z" fill="#222328"/>
<path d="M7.5 10.5C6.31332 10.5 5.15328 10.8519 4.16658 11.5112C3.17989 12.1705 2.41085 13.1075 1.95673 14.2039C1.5026 15.3003 1.38378 16.5067 1.61529 17.6705C1.8468 18.8344 2.41825 19.9035 3.25736 20.7426C4.09648 21.5818 5.16558 22.1532 6.32946 22.3847C7.49335 22.6162 8.69975 22.4974 9.7961 22.0433C10.8925 21.5892 11.8295 20.8201 12.4888 19.8334C13.1481 18.8467 13.5 17.6867 13.5 16.5C13.5 14.9087 12.8679 13.3826 11.7426 12.2574C10.6174 11.1321 9.0913 10.5 7.5 10.5ZM7.5 21C6.60999 21 5.73996 20.7361 4.99994 20.2416C4.25992 19.7471 3.68314 19.0443 3.34254 18.2221C3.00195 17.3998 2.91284 16.495 3.08647 15.6221C3.2601 14.7492 3.68869 13.9474 4.31802 13.318C4.94736 12.6887 5.74918 12.2601 6.6221 12.0865C7.49501 11.9128 8.39981 12.0019 9.22208 12.3425C10.0443 12.6831 10.7471 13.2599 11.2416 13.9999C11.7361 14.74 12 15.61 12 16.5C12 17.6935 11.5259 18.8381 10.682 19.682C9.83807 20.5259 8.69348 21 7.5 21Z" fill="#222328"/>
<path d="M8.46745 14.4676L5.46745 17.4676C5.39716 17.5374 5.34136 17.6203 5.30329 17.7117C5.26521 17.8031 5.24561 17.9011 5.24561 18.0001C5.24561 18.0991 5.26521 18.1972 5.30329 18.2886C5.34136 18.38 5.39716 18.4629 5.46745 18.5326C5.53718 18.6029 5.62013 18.6587 5.71152 18.6968C5.80292 18.7349 5.90095 18.7545 5.99995 18.7545C6.09896 18.7545 6.19699 18.7349 6.28839 18.6968C6.37978 18.6587 6.46273 18.6029 6.53245 18.5326L9.53245 15.5326C9.60238 15.4627 9.65785 15.3797 9.6957 15.2883C9.73354 15.197 9.75302 15.099 9.75302 15.0001C9.75302 14.9012 9.73354 14.8033 9.6957 14.712C9.65785 14.6206 9.60238 14.5376 9.53245 14.4676C9.46253 14.3977 9.37951 14.3422 9.28814 14.3044C9.19677 14.2665 9.09885 14.2471 8.99995 14.2471C8.90106 14.2471 8.80313 14.2665 8.71177 14.3044C8.6204 14.3422 8.53738 14.3977 8.46745 14.4676Z" fill="#222328"/>
<path d="M6 15.75C6.41421 15.75 6.75 15.4142 6.75 15C6.75 14.5858 6.41421 14.25 6 14.25C5.58579 14.25 5.25 14.5858 5.25 15C5.25 15.4142 5.58579 15.75 6 15.75Z" fill="#222328"/>
<path d="M9 18.75C9.41421 18.75 9.75 18.4142 9.75 18C9.75 17.5858 9.41421 17.25 9 17.25C8.58579 17.25 8.25 17.5858 8.25 18C8.25 18.4142 8.58579 18.75 9 18.75Z" fill="#222328"/>
<path d="M14.25 6H9.75C9.55109 6 9.36032 6.07902 9.21967 6.21967C9.07902 6.36032 9 6.55109 9 6.75C9 6.94891 9.07902 7.13968 9.21967 7.28033C9.36032 7.42098 9.55109 7.5 9.75 7.5H14.25C14.4489 7.5 14.6397 7.42098 14.7803 7.28033C14.921 7.13968 15 6.94891 15 6.75C15 6.55109 14.921 6.36032 14.7803 6.21967C14.6397 6.07902 14.4489 6 14.25 6Z" fill="#222328"/>
<path d="M18.75 9.75H14.25C14.0511 9.75 13.8603 9.82902 13.7197 9.96967C13.579 10.1103 13.5 10.3011 13.5 10.5C13.5 10.6989 13.579 10.8897 13.7197 11.0303C13.8603 11.171 14.0511 11.25 14.25 11.25H18.75C18.9489 11.25 19.1397 11.171 19.2803 11.0303C19.421 10.8897 19.5 10.6989 19.5 10.5C19.5 10.3011 19.421 10.1103 19.2803 9.96967C19.1397 9.82902 18.9489 9.75 18.75 9.75Z" fill="#222328"/>
<path d="M18.75 13.5H15.75C15.5511 13.5 15.3603 13.579 15.2197 13.7197C15.079 13.8603 15 14.0511 15 14.25C15 14.4489 15.079 14.6397 15.2197 14.7803C15.3603 14.921 15.5511 15 15.75 15H18.75C18.9489 15 19.1397 14.921 19.2803 14.7803C19.421 14.6397 19.5 14.4489 19.5 14.25C19.5 14.0511 19.421 13.8603 19.2803 13.7197C19.1397 13.579 18.9489 13.5 18.75 13.5Z" fill="#222328"/>
<path d="M18.75 17.25H15.75C15.5511 17.25 15.3603 17.329 15.2197 17.4697C15.079 17.6103 15 17.8011 15 18C15 18.1989 15.079 18.3897 15.2197 18.5303C15.3603 18.671 15.5511 18.75 15.75 18.75H18.75C18.9489 18.75 19.1397 18.671 19.2803 18.5303C19.421 18.3897 19.5 18.1989 19.5 18C19.5 17.8011 19.421 17.6103 19.2803 17.4697C19.1397 17.329 18.9489 17.25 18.75 17.25Z" fill="#222328"/>
</svg>
