<svg width="62" height="17" viewBox="0 0 62 17" fill="none" xmlns="http://www.w3.org/2000/svg">
<path d="M5.0158 6.01374L2.94605 11.6737H7.20712L5.0158 6.01374ZM5.5625 4.67464L9.88436 15.8142H8.7887L7.4496 12.4661H2.64054L1.42332 15.8142H0.449219L4.46685 4.67432L5.5625 4.67464Z" fill="white" stroke="white" stroke-width="0.5"/>
<path d="M14.877 15.8142V4.67432H20.9036V5.40465H15.9118V9.72682H19.2599V10.4572H15.9118V15.0237H21.2686V15.8142H14.877Z" fill="white" stroke="white" stroke-width="0.5"/>
<path d="M26.319 14.5358C26.6945 14.7045 27.0814 14.8469 27.4767 14.9619C27.9925 15.1068 28.524 15.1885 29.0596 15.2053C29.8093 15.2494 30.5542 15.0583 31.1901 14.6586C31.4175 14.489 31.602 14.2686 31.7288 14.0149C31.8556 13.7611 31.9212 13.4813 31.9204 13.1976C31.9204 11.9193 30.8855 11.0063 28.8769 10.4583C26.8682 9.91033 25.8321 8.8137 25.8932 7.10927C25.8944 6.73151 25.9829 6.35914 26.1518 6.02124C26.3208 5.68334 26.5655 5.38907 26.867 5.1614C27.5753 4.60349 28.4624 4.3222 29.3628 4.36997C29.8757 4.36698 30.387 4.42835 30.8846 4.55263C31.3023 4.65777 31.7097 4.80039 32.1018 4.97874L31.7365 5.77017C31.4319 5.64829 31.1277 5.52673 30.7624 5.40484C30.3062 5.28048 29.8353 5.21903 29.3625 5.22218C28.7184 5.19496 28.0813 5.36481 27.5362 5.70907C27.3373 5.88273 27.1794 6.09846 27.0741 6.34063C26.9689 6.5828 26.9187 6.84535 26.9274 7.10927C26.9274 8.38759 27.9623 9.36041 29.9709 9.90936C31.9796 10.4583 33.0148 11.553 32.9537 13.1963C32.9681 13.5918 32.8805 13.9844 32.6992 14.3362C32.518 14.688 32.2492 14.9872 31.9188 15.205C31.1383 15.758 30.1963 16.0364 29.2406 15.9964C28.6273 15.996 28.0155 15.9348 27.4143 15.8138C26.9638 15.695 26.5331 15.5108 26.136 15.2671L26.319 14.5358Z" fill="white" stroke="white" stroke-width="0.5"/>
<path d="M39.7732 4.67432H38.7383V15.8142H39.7732V4.67432Z" fill="white" stroke="white" stroke-width="0.5"/>
<path d="M53.1036 15.7531L50.4861 11.0051C50.4861 11.0051 49.9394 11.0659 49.2078 11.0659H47.5642V15.6923H46.5293V4.67432H49.3915C50.3955 4.64087 51.3883 4.8942 52.2536 5.40465C52.6414 5.67501 52.9521 6.0417 53.1551 6.46863C53.3581 6.89555 53.4464 7.36798 53.4113 7.83941C53.4177 8.48941 53.2271 9.1261 52.8646 9.66572C52.5071 10.1774 51.9952 10.5613 51.404 10.7614L54.2661 15.7528L53.1036 15.7531ZM49.3902 5.52653H47.5031V10.2137H49.2075C49.9682 10.2469 50.7241 10.079 51.3991 9.72682C52.0687 9.3615 52.3729 8.75273 52.3729 7.83973C52.3729 6.92674 52.1903 6.25719 51.5818 5.95264C50.8924 5.64838 50.1434 5.50277 49.3902 5.52653Z" fill="white" stroke="white" stroke-width="0.5"/>
<path d="M58.3203 0V11.2724" stroke="white"/>
<path d="M55.4023 2.36475L61.5495 8.74992" stroke="white"/>
</svg>
