<svg width="137" height="36" viewBox="0 0 137 36" fill="none" xmlns="http://www.w3.org/2000/svg">
<path d="M11.0149 13.1885L6.47578 25.6014H15.8207L11.0149 13.1885ZM12.2139 10.2517L21.6922 34.6818H19.2893L16.3525 27.3392H5.80576L3.13629 34.6818H1L9.81104 10.251L12.2139 10.2517Z" fill="white" stroke="white" stroke-width="0.5"/>
<path d="M32.6387 34.6818V10.251H45.8556V11.8527H34.9083V21.3316H42.2509V22.9333H34.9083V32.9482H46.6561V34.6818H32.6387Z" fill="white" stroke="white" stroke-width="0.5"/>
<path d="M57.7363 31.8778C58.5599 32.2478 59.4083 32.56 60.2753 32.8123C61.4065 33.1301 62.5722 33.3094 63.7466 33.3462C65.391 33.443 67.0245 33.0238 68.4191 32.1472C68.9178 31.7753 69.3224 31.2918 69.6005 30.7354C69.8786 30.179 70.0226 29.5652 70.0208 28.9431C70.0208 26.1396 67.7512 24.1373 63.346 22.9356C58.9409 21.7338 56.6685 19.3288 56.8025 15.5908C56.8051 14.7623 56.9993 13.9457 57.3697 13.2046C57.7402 12.4636 58.2769 11.8182 58.9381 11.3189C60.4916 10.0954 62.437 9.47847 64.4117 9.58323C65.5365 9.57668 66.6578 9.71127 67.7491 9.98383C68.6652 10.2144 69.5587 10.5272 70.4186 10.9183L69.6174 12.654C68.9495 12.3867 68.2823 12.1201 67.4811 11.8528C66.4808 11.5801 65.4478 11.4453 64.411 11.4522C62.9984 11.3925 61.6012 11.765 60.4057 12.52C59.9695 12.9009 59.6233 13.374 59.3924 13.9051C59.1615 14.4362 59.0516 15.012 59.0706 15.5908C59.0706 18.3943 61.3402 20.5277 65.7454 21.7316C70.1506 22.9356 72.4209 25.3363 72.2869 28.9403C72.3185 29.8076 72.1263 30.6685 71.7288 31.44C71.3313 32.2116 70.7419 32.8678 70.0173 33.3455C68.3056 34.5584 66.2397 35.1688 64.1437 35.0811C62.7987 35.0802 61.457 34.946 60.1384 34.6805C59.1504 34.42 58.2058 34.0161 57.335 33.4816L57.7363 31.8778Z" fill="white" stroke="white" stroke-width="0.5"/>
<path d="M87.2403 10.251H84.9707V34.6818H87.2403V10.251Z" fill="white" stroke="white" stroke-width="0.5"/>
<path d="M116.477 34.5479L110.736 24.1352C110.736 24.1352 109.537 24.2685 107.933 24.2685H104.328V34.4146H102.059V10.2511H108.336C110.538 10.1777 112.715 10.7333 114.613 11.8527C115.463 12.4457 116.144 13.2499 116.59 14.1861C117.035 15.1224 117.228 16.1585 117.152 17.1924C117.165 18.6179 116.747 20.0142 115.953 21.1977C115.168 22.3198 114.046 23.1617 112.749 23.6006L119.026 34.5472L116.477 34.5479ZM108.333 12.12H104.194V22.3995H107.932C109.6 22.4724 111.258 22.104 112.739 21.3317C114.207 20.5305 114.874 19.1954 114.874 17.1931C114.874 15.1908 114.474 13.7224 113.139 13.0545C111.627 12.3873 109.985 12.0679 108.333 12.12Z" fill="white" stroke="white" stroke-width="0.5"/>
<path d="M127.916 0V24.7214" stroke="white" stroke-width="3"/>
<path d="M121.52 5.18652L135.001 19.1898" stroke="white" stroke-width="3"/>
</svg>
