<svg width="24" height="24" viewBox="0 0 24 24" fill="none" xmlns="http://www.w3.org/2000/svg">
<path d="M11.9993 15.9998C11.7656 16.0002 11.5392 15.9189 11.3593 15.7698L5.3593 10.7698C5.15508 10.6 5.02666 10.3561 5.00228 10.0917C4.9779 9.82728 5.05956 9.564 5.2293 9.35979C5.39904 9.15557 5.64295 9.02715 5.90738 9.00277C6.1718 8.97839 6.43508 9.06005 6.6393 9.22979L11.9993 13.7098L17.3593 9.38979C17.4616 9.30672 17.5793 9.24469 17.7056 9.20726C17.832 9.16983 17.9645 9.15773 18.0955 9.17167C18.2265 9.18561 18.3535 9.22531 18.4691 9.28848C18.5848 9.35166 18.6868 9.43706 18.7693 9.53979C18.8609 9.64261 18.9302 9.76324 18.973 9.89411C19.0158 10.025 19.0311 10.1633 19.018 10.3003C19.0048 10.4374 18.9635 10.5703 18.8967 10.6906C18.8298 10.811 18.7387 10.9162 18.6293 10.9998L12.6293 15.8298C12.4442 15.9553 12.2224 16.0152 11.9993 15.9998Z" fill="#C0C0C0"/>
</svg>
