<svg width="24" height="25" viewBox="0 0 24 25" fill="none" xmlns="http://www.w3.org/2000/svg">
<g clip-path="url(#clip0_4507_302)">
<path d="M23.5 11.5895H22.9747C22.7181 5.92377 18.1657 1.37132 12.5 1.11477V0.589493C12.5 0.313118 12.2764 0.0894775 12 0.0894775C11.7236 0.0894775 11.5 0.313118 11.5 0.589493V1.11482C5.8343 1.37137 1.28184 5.92377 1.0253 11.5895H0.500016C0.223641 11.5895 0 11.8131 0 12.0895C0 12.3659 0.223641 12.5895 0.500016 12.5895H1.02534C1.28189 18.2552 5.8343 22.8076 11.5 23.0642V23.5895C11.5 23.8659 11.7237 24.0895 12 24.0895C12.2764 24.0895 12.5001 23.8659 12.5001 23.5895V23.0642C18.1658 22.8076 22.7182 18.2552 22.9748 12.5895H23.5001C23.7765 12.5895 24.0001 12.3659 24.0001 12.0895C24.0001 11.8131 23.7764 11.5895 23.5 11.5895ZM20.5 12.5895H21.9747C21.7199 17.7041 17.6145 21.8094 12.5 22.0641V20.5895C12.5 20.3131 12.2764 20.0894 12 20.0894C11.7236 20.0894 11.5 20.3131 11.5 20.5895V22.0641C6.38541 21.8094 2.28009 17.704 2.02533 12.5895H3.50002C3.77639 12.5895 4.00003 12.3659 4.00003 12.0895C4.00003 11.8131 3.77639 11.5895 3.50002 11.5895H2.02533C2.28009 6.47488 6.38545 2.36957 11.5 2.11481V3.58949C11.5 3.86587 11.7236 4.08951 12 4.08951C12.2764 4.08951 12.5 3.86587 12.5 3.58949V2.11481C17.6146 2.36957 21.7199 6.47493 21.9747 11.5895H20.5C20.2236 11.5895 20 11.8131 20 12.0895C20 12.3659 20.2237 12.5895 20.5 12.5895Z" fill="white" stroke="white" stroke-width="0.1"/>
<path d="M12 12.0895C13.3784 12.0895 14.5 10.9679 14.5 9.58951C14.5 8.2111 13.3784 7.08948 12 7.08948C10.6216 7.08948 9.5 8.21106 9.5 9.58946C9.5 10.9679 10.6216 12.0895 12 12.0895ZM12 8.08951C12.8271 8.08951 13.5 8.76235 13.5 9.58951C13.5 10.4167 12.8271 11.0895 12 11.0895C11.1728 11.0895 10.5 10.4167 10.5 9.58951C10.5 8.76235 11.1728 8.08951 12 8.08951Z" fill="white" stroke="white" stroke-width="0.1"/>
<path d="M15.4199 13.6212C14.6216 13.1505 13.3804 12.5895 12 12.5895C10.6196 12.5895 9.37842 13.1505 8.58009 13.6212C7.91358 14.0143 7.5 14.7775 7.5 15.6129V15.9332C7.5 16.5709 7.98047 17.0895 8.57128 17.0895H15.4287C16.0195 17.0895 16.5 16.5709 16.5 15.9332V15.6129C16.5 14.7775 16.0864 14.0143 15.4199 13.6212ZM15.5 15.9332C15.5 16.0372 15.441 16.0894 15.4287 16.0894H8.57128C8.55909 16.0894 8.49998 16.0372 8.49998 15.9332V15.6129C8.49998 15.1369 8.73094 14.6935 9.08789 14.4825C9.77883 14.0753 10.8452 13.5895 12 13.5895C13.1548 13.5895 14.2212 14.0753 14.9121 14.4825C15.2691 14.6935 15.5 15.1368 15.5 15.6129V15.9332Z" fill="white" stroke="white" stroke-width="0.1"/>
</g>
<defs>
<clipPath id="clip0_4507_302">
<rect width="24" height="24" fill="white" transform="translate(0 0.0894775)"/>
</clipPath>
</defs>
</svg>
