<svg width="24" height="25" viewBox="0 0 24 25" fill="none" xmlns="http://www.w3.org/2000/svg">
<g clip-path="url(#clip0_4507_314)">
<path d="M13.4425 0.610775H13.4391L13.2231 0.605759C8.66681 0.549696 4.87438 4.09143 4.6192 8.64084C4.61048 8.78366 4.60677 10.0124 4.60602 10.3135L3.04349 14.3986C2.91595 14.7327 3.08338 15.1069 3.41746 15.2344C3.4912 15.2625 3.56943 15.277 3.64832 15.277H5.81254V17.6942C5.8034 18.8462 6.72984 19.7875 7.88184 19.7967C7.91282 19.7969 7.94381 19.7965 7.97479 19.7954C8.02166 19.7939 8.31337 19.777 9.76804 19.777H9.77451C10.1021 19.7799 10.4197 19.8903 10.6785 20.0913C11.0385 20.3693 11.2496 20.7983 11.25 21.2532V23.2926C11.2455 23.4433 11.3639 23.5692 11.5146 23.5737L11.5214 23.5739H18.8729C19.0282 23.5739 19.1541 23.4479 19.1541 23.2926C19.1541 23.2872 19.154 23.2818 19.1537 23.2764C19.1508 23.2262 18.8677 18.2246 19.1529 15.1662C19.2306 14.3339 20.0255 12.3414 20.0961 12.1662C21.3606 9.75196 21.2916 6.85645 19.9137 4.5051C18.5527 2.16323 16.1336 0.707384 13.4425 0.610775ZM19.5911 11.9176C19.5869 11.9256 19.5831 11.9339 19.5797 11.9423C19.5431 12.0326 18.6813 14.1653 18.5929 15.114C18.3444 17.7793 18.5204 21.88 18.5766 23.0114H11.8125V21.2532C11.8125 20.6263 11.5207 20.035 11.023 19.6537C10.9956 19.6325 10.965 19.6122 10.9366 19.5924C12.2234 19.14 13.1247 17.9742 13.2386 16.6149C13.2513 16.46 13.136 16.3241 12.9811 16.3114C12.8262 16.2987 12.6903 16.4139 12.6776 16.5689C12.555 18.0606 11.2851 19.2259 9.78412 19.2259C9.78056 19.2259 9.77662 19.2259 9.77329 19.2259L7.95318 19.2402C7.10601 19.2643 6.3997 18.597 6.3756 17.7499C6.37509 17.7313 6.3749 17.7128 6.37504 17.6942V14.995C6.36712 14.8367 6.23568 14.7129 6.07724 14.7145H3.64832C3.6201 14.7148 3.59362 14.7008 3.57801 14.6774C3.56202 14.6547 3.55846 14.6256 3.56863 14.5998L5.14954 10.4664C5.16177 10.4345 5.16815 10.4007 5.16829 10.3665C5.16974 9.74357 5.17424 8.77902 5.18066 8.67318C5.41659 4.45963 8.90362 1.1647 13.1237 1.1676C13.1535 1.1676 13.4243 1.17281 13.4243 1.17281C14.6834 1.21035 15.91 1.58174 16.9785 2.24892C20.2332 4.30049 21.3696 8.50579 19.5913 11.9174L19.5911 11.9176Z" fill="white" stroke="white" stroke-width="0.2"/>
<path d="M18.2832 7.34756L17.25 7.1654C17.1813 6.93463 17.0938 6.70987 16.9883 6.4934L17.6269 5.6062C17.7074 5.49435 17.695 5.3406 17.5976 5.2431L16.2582 3.90248C16.1614 3.80554 16.0087 3.79256 15.8969 3.87168L15.0084 4.50041C14.7913 4.39382 14.5659 4.30513 14.3344 4.23524L14.1523 3.1822C14.129 3.04729 14.0119 2.94876 13.875 2.94885H11.9738C11.837 2.94885 11.7201 3.0472 11.6967 3.18192L11.5134 4.23571C11.2812 4.30799 11.0552 4.39907 10.8377 4.50806L9.94739 3.87613C9.83573 3.79687 9.6832 3.80957 9.58617 3.90618L8.2417 5.2446C8.1443 5.34159 8.13127 5.49482 8.21091 5.60685L8.84044 6.49279C8.73141 6.70917 8.63981 6.93388 8.56655 7.16484L7.49944 7.34737C7.36439 7.37048 7.26562 7.48752 7.26562 7.62454V9.52021C7.26562 9.65723 7.3643 9.77427 7.49934 9.79743L8.56673 9.98024C8.64089 10.2115 8.73352 10.4365 8.84363 10.6529L8.2125 11.5398C8.13281 11.6518 8.1457 11.8049 8.24302 11.902L9.58664 13.2426C9.68348 13.3393 9.83583 13.3522 9.94758 13.2733L10.8382 12.6445C11.0558 12.7512 11.2817 12.8404 11.5136 12.9111L11.6964 13.9657C11.7199 14.1006 11.8369 14.1989 11.9738 14.1989H13.875C14.0118 14.1989 14.1287 14.1005 14.1521 13.9657L14.3354 12.9103C14.5674 12.8374 14.7934 12.7461 15.011 12.6374L15.9016 13.269C16.0133 13.3482 16.1658 13.3355 16.2628 13.2389L17.6072 11.9003C17.7046 11.8033 17.7177 11.6501 17.638 11.5381L17.0071 10.6504C17.1069 10.4337 17.1886 10.209 17.2514 9.97884L18.2831 9.79734C18.4176 9.77366 18.5157 9.65681 18.5156 9.52021V7.62454C18.5156 7.48804 18.4177 7.37127 18.2832 7.34756ZM17.9531 9.2841L16.9806 9.4552C16.8741 9.4739 16.7878 9.55204 16.7586 9.6561C16.6626 9.99759 16.5777 10.2791 16.4333 10.5348C16.3798 10.6298 16.3859 10.7471 16.449 10.836L17.0415 11.6698L16.0337 12.6731L15.1951 12.0782C15.1065 12.0154 14.9895 12.0092 14.8948 12.0623C14.6161 12.2166 14.3199 12.3366 14.0125 12.4197C13.908 12.4488 13.8295 12.5355 13.811 12.6425L13.6385 13.6364H12.2104L12.038 12.6426C12.0195 12.5357 11.941 12.449 11.8365 12.4198C11.5294 12.3393 11.2334 12.2218 10.9547 12.0698C10.86 12.0166 10.7433 12.0227 10.6547 12.0853L9.81656 12.6771L8.80908 11.6719L9.40313 10.8371C9.46636 10.7482 9.47255 10.6308 9.41892 10.5358C9.26339 10.2583 9.14175 9.96309 9.05653 9.65657C9.02714 9.55209 8.94028 9.47381 8.83327 9.45548L7.82812 9.28307V7.86173L8.83317 7.68979C8.94023 7.67151 9.02714 7.59318 9.05653 7.48865C9.14067 7.18246 9.26119 6.88748 9.4155 6.60998C9.46908 6.51501 9.46298 6.39768 9.3998 6.30881L8.80744 5.47542L9.81525 4.47229L10.6538 5.0676C10.7425 5.13051 10.8594 5.13674 10.9543 5.08354C11.2329 4.92956 11.5291 4.80984 11.8365 4.72692C11.941 4.69776 12.0195 4.61113 12.0381 4.50421L12.2103 3.51135H13.6383L13.8098 4.50356C13.8283 4.61057 13.9067 4.69734 14.0114 4.72654C14.318 4.80665 14.6138 4.92365 14.8923 5.07496C14.987 5.12802 15.1037 5.12193 15.1923 5.05926L16.028 4.46802L17.0307 5.47157L16.4297 6.30637C16.3656 6.39534 16.3591 6.51346 16.413 6.60895C16.5637 6.88677 16.6797 7.18204 16.7585 7.48813C16.7877 7.5922 16.874 7.67024 16.9804 7.68904L17.9531 7.86051V9.2841Z" fill="white" stroke="white" stroke-width="0.2"/>
<path d="M14.7307 8.57235C14.7332 7.57373 13.9257 6.76218 12.9271 6.75965C11.9285 6.75712 11.1169 7.56463 11.1144 8.56326C11.1119 9.56188 11.9194 10.3734 12.918 10.376H12.9225C13.9194 10.3761 14.7283 9.56924 14.7307 8.57235ZM11.6769 8.57235C11.6744 7.88442 12.2301 7.32468 12.918 7.32215C13.6059 7.31962 14.1657 7.87532 14.1682 8.56326C14.1707 9.2512 13.615 9.81093 12.9271 9.81346C12.9256 9.81346 12.924 9.81346 12.9225 9.81346C12.2362 9.81393 11.6789 9.25874 11.6769 8.57235Z" fill="white" stroke="white" stroke-width="0.2"/>
<path d="M12.9226 5.30079C11.5484 5.29742 10.3188 6.15392 9.84561 7.44415C9.79095 7.58979 9.86473 7.75212 10.0104 7.80678C10.156 7.86143 10.3183 7.78765 10.373 7.64201C10.8821 6.23717 12.4336 5.51107 13.8385 6.02013C15.2433 6.5292 15.9694 8.08076 15.4603 9.4856C14.9513 10.8904 13.3997 11.6165 11.9949 11.1075C11.2175 10.8258 10.6116 10.204 10.35 9.41956C10.3113 9.30589 10.2043 9.22967 10.0842 9.23009H10.0835C9.92848 9.22943 9.8023 9.35459 9.80164 9.5096C9.8015 9.53904 9.806 9.56829 9.81495 9.59632C10.3796 11.3136 12.2294 12.2481 13.9467 11.6835C15.6641 11.1189 16.5986 9.26904 16.034 7.55173C15.5922 6.20801 14.3373 5.30004 12.9228 5.30079H12.9226Z" fill="white" stroke="white" stroke-width="0.2"/>
</g>
<defs>
<clipPath id="clip0_4507_314">
<rect width="24" height="24" fill="white" transform="translate(0 0.0894775)"/>
</clipPath>
</defs>
</svg>
