<svg width="24" height="24" viewBox="0 0 24 24" fill="none" xmlns="http://www.w3.org/2000/svg">
<path d="M11.5309 5C10.3525 5 9.22342 5.26493 8.17499 5.78745C7.92739 5.91089 7.82695 6.21117 7.95065 6.45821C8.0743 6.70519 8.37537 6.80533 8.62302 6.68199C12.8322 4.49778 18.1263 7.75982 18.0466 12.4996C18.0466 16.0834 15.1237 18.9991 11.5309 18.9991C6.78002 19.0782 3.50878 13.7978 5.69871 9.59915C5.82246 9.35217 5.72202 9.05184 5.47437 8.92845C5.22667 8.80495 4.9257 8.9052 4.802 9.15223C2.27495 13.9975 6.04826 20.0904 11.531 19.999C21.4906 19.6224 21.4888 5.37558 11.5309 5Z" fill="white"/>
<path d="M7.21936 9.92664L7.93639 15.2711C7.97054 15.5253 8.17115 15.7139 8.40763 15.7139H14.5926C14.829 15.7139 15.0297 15.5253 15.0638 15.2711L15.7808 9.92664C15.8097 9.71124 15.7115 9.49927 15.535 9.39625C15.3587 9.29324 15.1417 9.32123 14.9923 9.4662L13.1257 11.2788L11.9313 8.50943C11.7658 8.11527 11.2345 8.11543 11.069 8.50943L9.87465 11.2788L8.00801 9.4662C7.85868 9.32118 7.64178 9.29318 7.46535 9.39625C7.28869 9.49927 7.19045 9.71124 7.21936 9.92664ZM9.71694 12.5135C9.82908 12.6225 9.98208 12.6675 10.1296 12.6347C10.2771 12.6019 10.4015 12.4954 10.4654 12.3473L11.5001 9.94826L12.5348 12.3473C12.5986 12.4954 12.7231 12.6019 12.8706 12.6347C13.0181 12.6674 13.171 12.6225 13.2833 12.5135L14.6492 11.1871L14.1808 14.679H8.81938L8.35086 11.1871L9.71694 12.5135Z" fill="white"/>
<path d="M6.67847 8.21401C6.81563 8.21401 6.95279 8.16167 7.05739 8.057C7.26654 7.84782 7.26654 7.50864 7.05739 7.29946C6.8482 7.09028 6.50917 7.09028 6.29992 7.29946L6.2996 7.29978C6.09046 7.50896 6.09062 7.84798 6.29976 8.05716C6.40436 8.16178 6.54136 8.21401 6.67847 8.21401Z" fill="white"/>
</svg>
