<svg version="1.2" xmlns="http://www.w3.org/2000/svg" viewBox="0 0 24 24" width="24" height="24">
	<title>Group-svg</title>
	<style>
		.s0 { fill: #ffffff;stroke: #ffffff;stroke-width: .5 } 
	</style>
	<path id="Layer" fill-rule="evenodd" class="s0" d="m19.2 11.8v5.5c0 1.1-0.9 2.1-2.1 2.1h-5.4c-1.2 0-2.2-1-2.2-2.1v-0.4c-1.2-0.1-2.2-0.8-2.2-2.1v-0.3h-0.4c-1.2 0-2.1-1-2.1-2.2v-5.4c0-1.2 0.9-2.1 2.1-2.1h5.4c1.2 0 2.2 0.9 2.2 2.1v0.3h0.4c1.1 0 2.1 1 2.1 2.1v0.4h0.1c1.2 0 2.1 0.9 2.1 2.1zm-9.7-4.6h4.4v-0.3c0-0.8-0.7-1.5-1.5-1.5h-5.4c-0.9 0-1.5 0.7-1.5 1.5v5.4c0 0.9 0.6 1.5 1.5 1.5h0.3v-4.5c0-1.1 1-2.1 2.2-2.1zm2.2 2.5h4.7v-0.4c0-0.8-0.7-1.5-1.5-1.5h-5.4c-0.9 0-1.5 0.7-1.5 1.5v5.5c0 1 0.7 1.4 1.6 1.4v-4.4c0-1.2 0.9-2.1 2.1-2.1zm-1.5 8.1c0 0.5 0.5 1 1 1h6.4c0.6 0 1-0.5 1-1v-6.5c0-0.5-0.4-1-1-1h-6.4c-0.5 0-1 0.5-1 1z"/>
	<path id="Layer" fill-rule="evenodd" class="s0" d="m0.9 6c0-2.8 2.3-5 5-5h12.2c2.7 0 5 2.2 5 5v12.2c0 2.7-2.3 5-5 5h-12.2c-2.7 0-5-2.3-5-5zm0.7 12.5c0 2.2 1.8 4 4 4h12.8c2.2 0 4-1.8 4-4v-12.9c0-2.2-1.8-4-4-4h-12.8c-2.2 0-4 1.8-4 4z"/>
</svg>