<svg width="28" height="28" viewBox="0 0 28 28" fill="none" xmlns="http://www.w3.org/2000/svg">
<path d="M19.9807 11.1856H19.8572V10.7696C19.8572 9.39157 18.7327 8.26057 17.3482 8.26057H16.9192V7.92257C16.9192 6.54457 15.7882 5.41357 14.4102 5.41357H8.02072C6.64272 5.41357 5.51172 6.54457 5.51172 7.92257V14.3056C5.51172 15.6836 6.64272 16.8146 8.02072 16.8146H8.45622V17.1526C8.45622 18.7451 9.60022 19.5576 11.0822 19.6486V20.0711C11.0822 21.4491 12.2132 22.5801 13.5912 22.5801H19.9807C21.3587 22.5801 22.4897 21.4556 22.4897 20.0711V13.6881C22.4832 12.3101 21.3587 11.1856 19.9807 11.1856ZM8.52122 10.7696V16.0606H8.08572C7.12372 16.0606 6.33722 15.2741 6.33722 14.3121V7.92907C6.33722 6.96707 7.12372 6.18057 8.08572 6.18057H14.4687C15.4307 6.18057 16.2172 6.96707 16.2172 7.92907V8.26707H11.0237C9.65222 8.26057 8.52122 9.39157 8.52122 10.7696ZM11.1537 13.6881V18.8881C10.0877 18.8101 9.28172 18.3096 9.28172 17.1461V10.7631C9.28172 9.80107 10.0682 9.01457 11.0302 9.01457H17.4132C18.3752 9.01457 19.1617 9.80107 19.1617 10.7631V11.1791H13.6562C12.2782 11.1856 11.1537 12.3101 11.1537 13.6881ZM21.7942 20.0776C21.7942 21.0396 21.0077 21.8261 20.0457 21.8261H13.6627C12.7007 21.8261 11.9142 21.0396 11.9142 20.0776V13.6946C11.9142 12.7326 12.7007 11.9461 13.6627 11.9461H20.0457C21.0077 11.9461 21.7942 12.7326 21.7942 13.6946V20.0776Z" fill="#EF3737" stroke="#EF3737" stroke-width="0.5"/>
<path d="M21.5725 1H6.4275C3.444 1 1 3.444 1 6.4275V21.5725C1 24.556 3.444 27 6.4275 27H21.5725C24.556 27 27 24.556 27 21.5725V6.4275C27 3.444 24.556 1 21.5725 1ZM26.246 21.5725C26.246 24.14 24.1465 26.2395 21.579 26.2395H6.434C3.8665 26.2395 1.767 24.14 1.767 21.5725V6.4275C1.767 3.86 3.8665 1.7605 6.434 1.7605H21.579C24.1465 1.7605 26.246 3.86 26.246 6.4275V21.5725Z" fill="#EF3737" stroke="#EF3737" stroke-width="0.5"/>
</svg>
