<svg width="24" height="24" viewBox="0 0 24 24" fill="none" xmlns="http://www.w3.org/2000/svg">
<path d="M14.8511 13.4129L12.6202 11.7398V8.3316C12.6202 7.98891 12.3432 7.71191 12.0005 7.71191C11.6579 7.71191 11.3809 7.98891 11.3809 8.3316V12.0497C11.3809 12.2449 11.4726 12.4289 11.6287 12.5454L14.1074 14.4044C14.219 14.4881 14.3491 14.5284 14.4786 14.5284C14.6676 14.5284 14.8535 14.4435 14.975 14.2799C15.1808 14.0066 15.125 13.618 14.8511 13.4129Z" fill="#C0C0C0"/>
<path d="M12 4C7.58853 4 4 7.58853 4 12C4 16.4115 7.58853 20 12 20C16.4115 20 20 16.4115 20 12C20 7.58853 16.4115 4 12 4ZM12 18.7607C8.27266 18.7607 5.23934 15.7273 5.23934 12C5.23934 8.27266 8.27266 5.23934 12 5.23934C15.728 5.23934 18.7607 8.27266 18.7607 12C18.7607 15.7273 15.7273 18.7607 12 18.7607Z" fill="#C0C0C0"/>
</svg>
