<svg width="24" height="24" viewBox="0 0 24 24" fill="none" xmlns="http://www.w3.org/2000/svg">
<g clip-path="url(#clip0_4681_29092)">
<path d="M20.4802 3.51206C19.3668 2.39629 18.044 1.51148 16.5877 0.908436C15.1315 0.305396 13.5704 -0.00398749 11.9942 -0.00194306C5.36616 -0.00194306 -0.00683594 5.37106 -0.00683594 11.9991C-0.00683594 15.3131 1.33716 18.3141 3.50916 20.4861C4.62249 21.6018 5.94529 22.4866 7.40158 23.0897C8.85787 23.6927 10.419 24.0021 11.9952 24.0001C18.6232 24.0001 23.9962 18.6271 23.9962 11.9991C23.9962 8.68506 22.6522 5.68406 20.4802 3.51206ZM18.9382 18.9391C18.0274 19.8522 16.9452 20.5763 15.7536 21.0699C14.5621 21.5634 13.2848 21.8167 11.9952 21.8151C6.57216 21.8151 2.17616 17.4191 2.17616 11.9961C2.17455 10.7064 2.42779 9.42908 2.92135 8.23757C3.41491 7.04607 4.13905 5.96383 5.05216 5.05306C5.96272 4.13993 7.04478 3.41577 8.23612 2.92221C9.42747 2.42864 10.7046 2.17541 11.9942 2.17706C17.4162 2.17706 21.8122 6.57306 21.8122 11.9951C21.8139 13.2846 21.5607 14.5618 21.0671 15.7531C20.5735 16.9445 19.8493 18.0265 18.9362 18.9371L18.9382 18.9391Z" fill="#1AB394"/>
<path d="M13.5371 12L17.3921 8.14499C17.5822 7.93772 17.685 7.66501 17.6789 7.38379C17.6728 7.10257 17.5583 6.83457 17.3593 6.63574C17.1604 6.4369 16.8923 6.3226 16.6111 6.31668C16.3298 6.31077 16.0572 6.4137 15.8501 6.60399L15.8511 6.60299L11.9961 10.458L8.14105 6.60299C7.93378 6.41283 7.66107 6.31008 7.37985 6.31617C7.09863 6.32227 6.83063 6.43675 6.6318 6.63572C6.43296 6.83468 6.31866 7.10275 6.31274 7.38398C6.30683 7.6652 6.40976 7.93784 6.60005 8.14499L6.59905 8.14399L10.4541 11.999L6.59905 15.854C6.49059 15.9535 6.40339 16.0739 6.34269 16.208C6.28199 16.3421 6.24905 16.4871 6.24586 16.6343C6.24267 16.7814 6.26929 16.9277 6.32412 17.0643C6.37895 17.2009 6.46085 17.325 6.5649 17.4291C6.66895 17.5332 6.79299 17.6152 6.92956 17.6701C7.06612 17.7251 7.21239 17.7518 7.35955 17.7487C7.50671 17.7456 7.65172 17.7127 7.78586 17.6521C7.91999 17.5915 8.04048 17.5044 8.14005 17.396L8.14105 17.395L11.9961 13.54L15.8511 17.395C15.9506 17.5035 16.071 17.5907 16.2051 17.6514C16.3392 17.7121 16.4842 17.745 16.6313 17.7482C16.7785 17.7514 16.9248 17.7248 17.0614 17.6699C17.198 17.6151 17.3221 17.5332 17.4262 17.4291C17.5303 17.3251 17.6123 17.2011 17.6672 17.0645C17.7221 16.9279 17.7488 16.7817 17.7457 16.6345C17.7426 16.4873 17.7098 16.3423 17.6492 16.2082C17.5886 16.0741 17.5015 15.9536 17.3931 15.854L17.3921 15.853L13.5371 12Z" fill="#1AB394"/>
</g>
<defs>
<clipPath id="clip0_4681_29092">
<rect width="24" height="24" fill="white"/>
</clipPath>
</defs>
</svg>
