<svg width="24" height="25" viewBox="0 0 24 25" fill="none" xmlns="http://www.w3.org/2000/svg">
<path d="M9.24992 8.08954H1.74993C0.784971 8.08954 0 7.30457 0 6.33942V1.83942C0 0.874451 0.784971 0.0894775 1.74993 0.0894775H9.24992C10.2151 0.0894775 11 0.874451 11 1.83942V6.33942C11 7.30457 10.2151 8.08954 9.24992 8.08954ZM1.74993 1.58948C1.61206 1.58948 1.5 1.70154 1.5 1.83942V6.33942C1.5 6.47748 1.61206 6.58954 1.74993 6.58954H9.24992C9.38798 6.58954 9.50004 6.47748 9.50004 6.33942V1.83942C9.50004 1.70154 9.38798 1.58948 9.24992 1.58948H1.74993Z" fill="white"/>
<path d="M9.24992 24.0894H1.74993C0.784971 24.0894 0 23.3044 0 22.3395V11.8395C0 10.8743 0.784971 10.0894 1.74993 10.0894H9.24992C10.2151 10.0894 11 10.8743 11 11.8395V22.3395C11 23.3044 10.2151 24.0894 9.24992 24.0894ZM1.74993 11.5894C1.61206 11.5894 1.5 11.7014 1.5 11.8395V22.3395C1.5 22.4774 1.61206 22.5894 1.74993 22.5894H9.24992C9.38798 22.5894 9.50004 22.4774 9.50004 22.3395V11.8395C9.50004 11.7014 9.38798 11.5894 9.24992 11.5894H1.74993Z" fill="white"/>
<path d="M22.2502 24.0894H14.7502C13.7851 24.0894 13.0001 23.3044 13.0001 22.3395V17.8395C13.0001 16.8743 13.7851 16.0894 14.7502 16.0894H22.2502C23.2152 16.0894 24.0002 16.8743 24.0002 17.8395V22.3395C24.0002 23.3044 23.2152 24.0894 22.2502 24.0894ZM14.7502 17.5894C14.6122 17.5894 14.5001 17.7014 14.5001 17.8395V22.3395C14.5001 22.4774 14.6122 22.5894 14.7502 22.5894H22.2502C22.3881 22.5894 22.5002 22.4774 22.5002 22.3395V17.8395C22.5002 17.7014 22.3881 17.5894 22.2502 17.5894H14.7502Z" fill="white"/>
<path d="M22.2502 14.0895H14.7502C13.7851 14.0895 13.0001 13.3046 13.0001 12.3394V1.83942C13.0001 0.874451 13.7851 0.0894775 14.7502 0.0894775H22.2502C23.2152 0.0894775 24.0002 0.874451 24.0002 1.83942V12.3394C24.0002 13.3046 23.2152 14.0895 22.2502 14.0895ZM14.7502 1.58948C14.6122 1.58948 14.5001 1.70154 14.5001 1.83942V12.3394C14.5001 12.4775 14.6122 12.5895 14.7502 12.5895H22.2502C22.3881 12.5895 22.5002 12.4775 22.5002 12.3394V1.83942C22.5002 1.70154 22.3881 1.58948 22.2502 1.58948H14.7502Z" fill="white"/>
</svg>
