<svg width="24" height="24" viewBox="0 0 24 24" fill="none" xmlns="http://www.w3.org/2000/svg">
<path d="M12 15C13.1935 15 14.3381 15.4741 15.182 16.318C16.0259 17.1619 16.5 18.3065 16.5 19.5C16.5 19.6989 16.421 19.8897 16.2803 20.0303C16.1397 20.171 15.9489 20.25 15.75 20.25H8.25C8.05109 20.25 7.86032 20.171 7.71967 20.0303C7.57902 19.8897 7.5 19.6989 7.5 19.5C7.5 18.3065 7.97411 17.1619 8.81802 16.318C9.66193 15.4741 10.8065 15 12 15ZM11.3086 9H12.6914C12.9946 9 13.2948 8.94029 13.5749 8.82427C13.855 8.70825 14.1095 8.5382 14.3238 8.32383C14.5382 8.10945 14.7083 7.85496 14.8243 7.57486C14.9403 7.29477 15 6.99457 15 6.6914C15 6.50803 14.9272 6.33217 14.7975 6.20251C14.6678 6.07285 14.492 6 14.3086 6H9.6914C9.50803 6 9.33217 6.07284 9.20251 6.20251C9.07284 6.33217 9 6.50803 9 6.6914C9 6.99457 9.05971 7.29477 9.17573 7.57486C9.29175 7.85496 9.4618 8.10945 9.67617 8.32383C9.89054 8.5382 10.145 8.70825 10.4251 8.82427C10.7052 8.94029 11.0054 9 11.3086 9H11.3086ZM21 21.75C21.0001 21.8485 20.9807 21.9461 20.943 22.0371C20.9054 22.1281 20.8501 22.2108 20.7805 22.2805C20.7108 22.3501 20.6281 22.4054 20.5371 22.443C20.4461 22.4807 20.3485 22.5001 20.25 22.5H3.75C3.55109 22.5 3.36032 22.421 3.21967 22.2803C3.07902 22.1397 3 21.9489 3 21.75C3 21.5511 3.07902 21.3603 3.21967 21.2197C3.36032 21.079 3.55109 21 3.75 21H5.25V19.8003C5.25 16.6172 6.73242 14.0178 9.11938 13.0159C9.32173 12.934 9.49501 12.7936 9.61702 12.6126C9.73904 12.4316 9.80422 12.2183 9.80422 12C9.80422 11.7817 9.73904 11.5684 9.61702 11.3874C9.49501 11.2064 9.32173 11.066 9.11938 10.9841C6.73242 9.98218 5.25 7.38281 5.25 4.19971V3H3.75C3.55109 3 3.36032 2.92098 3.21967 2.78033C3.07902 2.63968 3 2.44891 3 2.25C3 2.05109 3.07902 1.86032 3.21967 1.71967C3.36032 1.57902 3.55109 1.5 3.75 1.5H20.25C20.4489 1.5 20.6397 1.57902 20.7803 1.71967C20.921 1.86032 21 2.05109 21 2.25C21 2.44891 20.921 2.63968 20.7803 2.78033C20.6397 2.92098 20.4489 3 20.25 3H18.75V4.19971C18.75 7.38281 17.2676 9.98221 14.8806 10.9841C14.6783 11.066 14.505 11.2064 14.383 11.3874C14.261 11.5684 14.1958 11.7817 14.1958 12C14.1958 12.2183 14.261 12.4316 14.383 12.6126C14.505 12.7936 14.6783 12.934 14.8806 13.0159C17.2676 14.0178 18.75 16.6172 18.75 19.8003V21H20.25C20.3485 20.9999 20.4461 21.0193 20.5371 21.057C20.6281 21.0946 20.7108 21.1499 20.7805 21.2195C20.8501 21.2892 20.9054 21.3719 20.943 21.4629C20.9807 21.5539 21.0001 21.6515 21 21.75ZM17.25 21V19.8003C17.25 17.2324 16.1199 15.1626 14.3005 14.3987C13.8257 14.2026 13.4197 13.87 13.134 13.443C12.8483 13.016 12.6958 12.5138 12.6958 12C12.6958 11.4862 12.8483 10.984 13.134 10.557C13.4197 10.13 13.8257 9.79739 14.3005 9.60132C16.1199 8.8374 17.25 6.76758 17.25 4.19971V3H6.75V4.19971C6.75 6.76758 7.88013 8.8374 9.69946 9.60132C10.1743 9.79739 10.5803 10.13 10.866 10.557C11.1517 10.984 11.3042 11.4862 11.3042 12C11.3042 12.5138 11.1517 13.016 10.866 13.443C10.5803 13.87 10.1743 14.2026 9.69946 14.3987C7.88013 15.1626 6.75 17.2324 6.75 19.8003V21H17.25Z" fill="#EF3737"/>
</svg>
