<svg version="1.2" xmlns="http://www.w3.org/2000/svg" viewBox="0 0 24 24" width="24" height="24"><style>.a{fill:none;stroke:#fff;stroke-linecap:round;stroke-linejoin:round}</style><path class="a" d="m4.6 11.6h1.3q0 0 0.1 0 0 0 0-0.1v-3.6c0-0.5 0.2-0.9 0.5-1.3 0.4-0.3 0.8-0.5 1.3-0.5h3.6q0.1 0 0.1 0 0-0.1 0-0.1v-1.3c0-1.3 1-2.3 2.3-2.4q0.5 0 0.9 0.2 0.5 0.2 0.8 0.5 0.3 0.3 0.5 0.8 0.2 0.4 0.2 0.9v1.3q0 0 0 0.1 0 0 0.1 0h3.6c0.5 0 1 0.2 1.3 0.5 0.4 0.4 0.5 0.9 0.6 1.3v3.3q-0.1 0.1-0.1 0.1 0 0 0 0h-1.3c-1.4 0-2.5 1.2-2.5 2.6-0.1 1.4 1.1 2.7 2.5 2.7h1.3q0 0 0 0 0 0 0.1 0.1v3.3c-0.1 0.5-0.2 0.9-0.6 1.3-0.3 0.3-0.8 0.5-1.3 0.5h-3.3q0 0-0.1 0 0 0 0-0.1v-0.9c0-1.5-1.2-2.7-2.6-2.7-1.4 0-2.6 0.9-2.6 2.3v1.3q-0.1 0.1-0.1 0.1 0 0 0 0h-3.4c-0.5 0-0.9-0.2-1.3-0.5-0.3-0.3-0.5-0.8-0.5-1.3v-3.6q0-0.1 0-0.1-0.1 0-0.1 0h-1.3c-1.3 0-2.3-1.1-2.3-2.4 0-1.3 1-2.3 2.3-2.3z"/></svg>