<svg width="24" height="24" viewBox="0 0 24 24" fill="none" xmlns="http://www.w3.org/2000/svg">
<path d="M21.4286 9.57171H2.5715C2.34417 9.57171 2.12615 9.4814 1.96541 9.32066C1.80466 9.15991 1.71436 8.94189 1.71436 8.71456C1.71436 8.48724 1.80466 8.26922 1.96541 8.10847C2.12615 7.94773 2.34417 7.85742 2.5715 7.85742H21.4286C21.656 7.85742 21.874 7.94773 22.0347 8.10847C22.1955 8.26922 22.2858 8.48724 22.2858 8.71456C22.2858 8.94189 22.1955 9.15991 22.0347 9.32066C21.874 9.4814 21.656 9.57171 21.4286 9.57171Z" fill="white"/>
<path d="M18 16.4291H5.99997C5.77264 16.4291 5.55462 16.3388 5.39387 16.1781C5.23313 16.0173 5.14282 15.7993 5.14282 15.572C5.14282 15.3447 5.23313 15.1266 5.39387 14.9659C5.55462 14.8051 5.77264 14.7148 5.99997 14.7148H18C18.2273 14.7148 18.4453 14.8051 18.6061 14.9659C18.7668 15.1266 18.8571 15.3447 18.8571 15.572C18.8571 15.7993 18.7668 16.0173 18.6061 16.1781C18.4453 16.3388 18.2273 16.4291 18 16.4291Z" fill="white"/>
<path d="M14.5713 23.2856H9.42843C9.2011 23.2856 8.98309 23.1953 8.82234 23.0345C8.6616 22.8738 8.57129 22.6558 8.57129 22.4284C8.57129 22.2011 8.6616 21.9831 8.82234 21.8223C8.98309 21.6616 9.2011 21.5713 9.42843 21.5713H14.5713C14.7986 21.5713 15.0166 21.6616 15.1774 21.8223C15.3381 21.9831 15.4284 22.2011 15.4284 22.4284C15.4284 22.6558 15.3381 22.8738 15.1774 23.0345C15.0166 23.1953 14.7986 23.2856 14.5713 23.2856Z" fill="white"/>
<path d="M23.1429 2.71429H0.857143C0.629814 2.71429 0.411797 2.62398 0.251051 2.46323C0.0903058 2.30249 0 2.08447 0 1.85714C0 1.62981 0.0903058 1.4118 0.251051 1.25105C0.411797 1.09031 0.629814 1 0.857143 1H23.1429C23.3702 1 23.5882 1.09031 23.7489 1.25105C23.9097 1.4118 24 1.62981 24 1.85714C24 2.08447 23.9097 2.30249 23.7489 2.46323C23.5882 2.62398 23.3702 2.71429 23.1429 2.71429Z" fill="white"/>
</svg>
