<svg width="24" height="25" viewBox="0 0 24 25" fill="none" xmlns="http://www.w3.org/2000/svg">
<path d="M17 21.0895V19.0895C17 18.0286 16.5786 17.0112 15.8284 16.2611C15.0783 15.5109 14.0609 15.0895 13 15.0895H5C3.93913 15.0895 2.92172 15.5109 2.17157 16.2611C1.42143 17.0112 1 18.0286 1 19.0895V21.0895" stroke="white" stroke-width="1.5" stroke-linecap="round" stroke-linejoin="round"/>
<path d="M9 11.0895C11.2091 11.0895 13 9.29862 13 7.08948C13 4.88034 11.2091 3.08948 9 3.08948C6.79086 3.08948 5 4.88034 5 7.08948C5 9.29862 6.79086 11.0895 9 11.0895Z" stroke="white" stroke-width="1.5" stroke-linecap="round" stroke-linejoin="round"/>
<path d="M23 21.0895V19.0895C22.9993 18.2032 22.7044 17.3423 22.1614 16.6418C21.6184 15.9413 20.8581 15.4411 20 15.2195M16 3.21948C16.8604 3.43978 17.623 3.94018 18.1676 4.64179C18.7122 5.3434 19.0078 6.20631 19.0078 7.09448C19.0078 7.98265 18.7122 8.84556 18.1676 9.54717C17.623 10.2488 16.8604 10.7492 16 10.9695" stroke="white" stroke-width="1.5" stroke-linecap="round" stroke-linejoin="round"/>
</svg>
