<svg width="26" height="26" viewBox="0 0 26 26" fill="none" xmlns="http://www.w3.org/2000/svg">
<path d="M25.6735 6.23021L13.2644 0.0619033C13.0981 -0.0206344 12.9019 -0.0206344 12.7359 0.0619033L0.326773 6.23021C0.126455 6.32978 0 6.53304 0 6.75569V19.0923C0 19.3149 0.126455 19.5182 0.326477 19.6178L12.7356 25.7861C12.8189 25.8275 12.9093 25.8481 13 25.8481C13.0907 25.8481 13.1811 25.8275 13.2644 25.7861L25.6735 19.6178C25.8735 19.5182 26 19.3149 26 19.0923V6.75569C26 6.53304 25.8735 6.32978 25.6735 6.23021ZM13 1.24416L24.0878 6.75569L21.7159 7.93471L10.6284 2.42319L13 1.24416ZM16.9886 10.2845L5.90082 4.77302L9.30682 3.07997L20.3946 8.59149L16.9886 10.2845ZM17.4318 11.3778L20.9773 9.61543V13.9852L19.8433 13.1801C19.7148 13.0888 19.5541 13.0526 19.3984 13.0794C19.2427 13.1067 19.1041 13.1945 19.014 13.3238L17.4318 15.5963V11.3778ZM4.57955 5.4298L15.6671 10.9413L13 12.2672L1.91218 6.75569L4.57955 5.4298ZM1.18182 7.70619L12.4091 13.287V24.3098L1.18182 18.729V7.70619ZM13.5909 24.3101V13.287L16.25 11.9653V17.4768C16.25 17.7338 16.4178 17.9608 16.6645 18.0375C16.723 18.0557 16.7821 18.0642 16.8409 18.0642C17.0312 18.0642 17.2144 17.9726 17.3269 17.8113L19.6448 14.4831L21.2252 15.6051C21.4054 15.7329 21.6423 15.7502 21.8388 15.6492C22.0353 15.5487 22.1591 15.347 22.1591 15.127V9.02797L24.8182 7.70619V18.729L13.5909 24.3101Z" fill="#1AB394"/>
</svg>
