<svg width="24" height="25" viewBox="0 0 24 25" fill="none" xmlns="http://www.w3.org/2000/svg">
<path d="M23.6986 5.87412L12.2441 0.146833C12.0905 0.0701963 11.9095 0.0701963 11.7562 0.146833L0.301636 5.87412C0.116727 5.96658 0 6.1553 0 6.36203V17.8166C0 18.0233 0.116727 18.2121 0.301364 18.3045L11.7559 24.0318C11.8328 24.0703 11.9163 24.0894 12 24.0894C12.0837 24.0894 12.1672 24.0703 12.2441 24.0318L23.6986 18.3045C23.8833 18.2121 24 18.0233 24 17.8166V6.36203C24 6.1553 23.8833 5.96658 23.6986 5.87412ZM12 1.24456L22.2349 6.36203L20.0455 7.45676L9.81082 2.33929L12 1.24456ZM15.6818 9.63859L5.44691 4.52112L8.59091 2.94911L18.8258 8.06658L15.6818 9.63859ZM16.0909 10.6537L19.3636 9.01731V13.0747L18.3169 12.3271C18.1983 12.2423 18.0499 12.2088 17.9062 12.2336C17.7625 12.259 17.6345 12.3405 17.5514 12.4605L16.0909 14.5706V10.6537ZM4.22727 5.13094L14.4619 10.2484L12 11.4795L1.76509 6.36203L4.22727 5.13094ZM1.09091 7.24458L11.4545 12.4264V22.6611L1.09091 17.4792V7.24458ZM12.5455 22.6614V12.4264L15 11.1991V16.3166C15 16.5552 15.1549 16.7661 15.3826 16.8372C15.4366 16.8542 15.4912 16.8621 15.5455 16.8621C15.7211 16.8621 15.8902 16.777 15.9941 16.6272L18.1336 13.537L19.5925 14.5788C19.7588 14.6974 19.9775 14.7135 20.1589 14.6197C20.3403 14.5264 20.4545 14.3391 20.4545 14.1348V8.47186L22.9091 7.24458V17.4792L12.5455 22.6614Z" fill="white"/>
</svg>
