<svg width="24" height="24" viewBox="0 0 24 24" fill="none" xmlns="http://www.w3.org/2000/svg">
<path d="M6.70593 3C5.65334 3 4.80005 3.86345 4.80005 4.92857V11.6429C4.80005 12.708 5.65334 13.5714 6.70593 13.5714H17.2942C18.3468 13.5714 19.2 12.708 19.2 11.6429V4.92857C19.2 3.86345 18.3468 3 17.2942 3H6.70593ZM6.07064 4.92857C6.07064 4.57353 6.35507 4.28571 6.70593 4.28571H17.2942C17.645 4.28571 17.9295 4.57353 17.9295 4.92857V11.6429C17.9295 11.9979 17.645 12.2857 17.2942 12.2857H6.70593C6.35507 12.2857 6.07064 11.9979 6.07064 11.6429V4.92857ZM6.00005 14.8571C5.64919 14.8571 5.36475 15.145 5.36475 15.5C5.36475 15.855 5.64919 16.1429 6.00005 16.1429H17.8589C18.2097 16.1429 18.4942 15.855 18.4942 15.5C18.4942 15.145 18.2097 14.8571 17.8589 14.8571H6.00005ZM6.00005 19.7143C5.64919 19.7143 5.36475 20.0021 5.36475 20.3571C5.36475 20.7122 5.64919 21 6.00005 21H12.4942C12.845 21 13.1295 20.7122 13.1295 20.3571C13.1295 20.0021 12.845 19.7143 12.4942 19.7143H6.00005Z" fill="white"/>
<path d="M5.36475 17.7857C5.36475 17.4307 5.64919 17.1429 6.00005 17.1429H17.8589C18.2097 17.1429 18.4942 17.4307 18.4942 17.7857C18.4942 18.1408 18.2097 18.4286 17.8589 18.4286H6.00005C5.64919 18.4286 5.36475 18.1408 5.36475 17.7857Z" fill="white"/>
</svg>
