<svg width="24" height="24" viewBox="0 0 24 24" fill="none" xmlns="http://www.w3.org/2000/svg">
<g clip-path="url(#clip0_3260_18760)">
<path d="M22.5384 10.271H21.3283C21.2593 10.0215 21.111 9.80116 20.9058 9.64339C20.7005 9.48562 20.4495 9.39896 20.1906 9.39652H18.8988V6.23746C18.9002 6.17836 18.886 6.11994 18.8574 6.06819C18.8288 6.01643 18.787 5.97321 18.7362 5.94295L9.62317 0.679369C9.57181 0.649515 9.51346 0.633789 9.45406 0.633789C9.39465 0.633789 9.3363 0.649515 9.28494 0.679369L0.169071 5.94295C0.117491 5.97285 0.0747035 6.01581 0.0450214 6.06752C0.0153393 6.11922 -0.000188969 6.17784 1.7356e-06 6.23746V16.7647C3.25209e-06 16.8244 0.0157178 16.883 0.0455661 16.9347C0.0754143 16.9864 0.118345 17.0293 0.170042 17.0592L9.28684 22.3228C9.33853 22.3526 9.39718 22.3683 9.45688 22.3683C9.51812 22.3684 9.57834 22.3527 9.63177 22.3228L14.4292 19.5556V21.556C14.4287 21.7464 14.4659 21.9351 14.5389 22.111C14.6118 22.287 14.7188 22.4467 14.8539 22.581C14.989 22.7152 15.1493 22.8214 15.3257 22.8933C15.502 22.9652 15.6909 23.0014 15.8813 22.9998H22.5384C22.7294 23.0015 22.9188 22.9655 23.0957 22.8938C23.2727 22.8221 23.4337 22.7161 23.5696 22.5819C23.7054 22.4477 23.8134 22.288 23.8873 22.1119C23.9611 21.9359 23.9994 21.7469 24 21.556V11.7373C23.9998 11.3493 23.8459 10.9772 23.572 10.7024C23.298 10.4276 22.9264 10.2725 22.5384 10.271ZM20.2027 10.0767C20.3336 10.0767 20.4592 10.1287 20.5518 10.2213C20.6443 10.3138 20.6964 10.4394 20.6964 10.5703V10.6033C20.6964 10.7342 20.6443 10.8598 20.5518 10.9523C20.4592 11.0449 20.3336 11.0969 20.2027 11.0969H18.2264C18.0955 11.0969 17.97 11.0449 17.8774 10.9523C17.7848 10.8598 17.7328 10.7342 17.7328 10.6033V10.5703C17.7328 10.4394 17.7848 10.3138 17.8774 10.2213C17.97 10.1287 18.0955 10.0767 18.2264 10.0767H20.2027ZM9.45688 1.36658L13.2451 3.55368L4.80904 8.42423L1.02088 6.23712L9.45688 1.36658ZM9.1336 21.4392L0.680164 16.5683V6.82575L9.1336 11.6966V21.4392ZM9.45688 11.1076L5.4892 8.81687L13.9252 3.94638L17.8931 6.23712L9.45688 11.1076ZM14.4292 11.7373V18.7703L9.81377 21.4392V11.6966L18.2186 6.82575V9.39652H18.2292C17.9703 9.39895 17.7192 9.4856 17.514 9.64338C17.3087 9.80115 17.1604 10.0215 17.0915 10.271H15.8813C15.4943 10.2729 15.1239 10.4284 14.8516 10.7034C14.5792 10.9784 14.4273 11.3503 14.4292 11.7373ZM23.3198 21.556C23.3194 21.6576 23.2987 21.7582 23.2591 21.8518C23.2194 21.9454 23.1615 22.0302 23.0888 22.1012C23.0161 22.1723 22.93 22.2281 22.8356 22.2656C22.7411 22.3031 22.6401 22.3215 22.5384 22.3196H15.8813C15.7802 22.3213 15.6797 22.3028 15.5858 22.2651C15.492 22.2274 15.4065 22.1714 15.3346 22.1003C15.2627 22.0291 15.2057 21.9443 15.167 21.8509C15.1283 21.7574 15.1087 21.6571 15.1093 21.556V11.7373C15.1083 11.635 15.1275 11.5335 15.1657 11.4385C15.204 11.3436 15.2606 11.2572 15.3323 11.1842C15.404 11.1111 15.4894 11.053 15.5836 11.013C15.6778 10.973 15.779 10.952 15.8813 10.9512H17.1048C17.1777 11.1919 17.3267 11.4025 17.5294 11.5514C17.7321 11.7003 17.9776 11.7795 18.2292 11.7771H20.1906C20.4421 11.7795 20.6876 11.7003 20.8904 11.5514C21.0931 11.4025 21.242 11.1919 21.315 10.9512H22.5384C22.7461 10.9525 22.9448 11.0359 23.0912 11.1832C23.2376 11.3305 23.3198 11.5297 23.3198 11.7373V21.556Z" fill="white" stroke="white" stroke-width="0.5"/>
</g>
<defs>
<clipPath id="clip0_3260_18760">
<rect width="24" height="24" fill="white"/>
</clipPath>
</defs>
</svg>
