<svg width="24" height="24" viewBox="0 0 24 24" fill="none" xmlns="http://www.w3.org/2000/svg">
<g clip-path="url(#clip0_4435_15640)">
<path d="M10.5263 9.47375H8C7.76746 9.47375 7.57895 9.66227 7.57895 9.89481V21.2632H10.9474V9.89481C10.9474 9.66227 10.7589 9.47375 10.5263 9.47375Z" fill="#C8192E"/>
<path d="M16.421 9.47375H13.8947C13.6622 9.47375 13.4737 9.66227 13.4737 9.89481V21.2632H16.8421V9.89481C16.8421 9.66227 16.6536 9.47375 16.421 9.47375Z" fill="#C8192E"/>
<path d="M4.63157 4.84216H2.10526C1.87272 4.84216 1.6842 5.03067 1.6842 5.26322V21.2632H5.05263V5.26322C5.05263 5.03067 4.86411 4.84216 4.63157 4.84216Z" fill="#C8192E"/>
<path d="M23.1579 22.1053H1.26316C0.798074 22.1053 0.421051 22.4824 0.421051 22.9475V23.7896H24V22.9475C24 22.4824 23.623 22.1053 23.1579 22.1053Z" fill="#C8192E"/>
<path d="M22.3158 7.36841H19.7895C19.5569 7.36841 19.3684 7.55692 19.3684 7.78946V21.2631H22.7368V7.78946C22.7368 7.55692 22.5483 7.36841 22.3158 7.36841Z" fill="#C8192E"/>
<path d="M0.421053 1.89478C8.34105 1.89478 11.1579 5.51793 11.9634 6.94741H10.5263C10.2938 6.94741 10.1053 7.13592 10.1053 7.36846C10.1053 7.601 10.2938 7.78951 10.5263 7.78951H14.7368C14.9694 7.78951 15.1579 7.601 15.1579 7.36846C15.1579 7.13592 14.9694 6.94741 14.7368 6.94741H13.2211C13.7175 5.71836 15.3764 2.73688 19.7895 2.73688C19.8037 2.73494 19.8177 2.73213 19.8316 2.72846C20.0437 3.78988 21.0262 4.51745 22.1033 4.41086C23.1805 4.30426 24.0013 3.39824 24.0013 2.31583C24.0013 1.23342 23.1805 0.327394 22.1033 0.2208C21.0262 0.114205 20.0437 0.84178 19.8316 1.9032C19.8177 1.89953 19.8037 1.89671 19.7895 1.89478C15.2257 1.89478 13.2855 4.7912 12.576 6.33099C11.5297 4.61478 8.39832 1.05267 0.421053 1.05267C0.188512 1.05267 0 1.24118 0 1.47372C0 1.70626 0.188512 1.89478 0.421053 1.89478ZM21.8947 1.05267C22.1273 1.05267 22.3158 1.24118 22.3158 1.47372C22.3158 1.70626 22.1273 1.89478 21.8947 1.89478C21.6622 1.89478 21.4737 2.08329 21.4737 2.31583C21.4737 2.54837 21.2852 2.73688 21.0526 2.73688C20.8201 2.73688 20.6316 2.54837 20.6316 2.31583C20.6316 1.61821 21.1971 1.05267 21.8947 1.05267Z" fill="#C8192E"/>
</g>
<defs>
<clipPath id="clip0_4435_15640">
<rect width="24" height="24" fill="white"/>
</clipPath>
</defs>
</svg>
