<svg width="21" height="21" viewBox="0 0 21 21" fill="none" xmlns="http://www.w3.org/2000/svg">
<path d="M10.5 0C4.70156 0 0 4.70156 0 10.5C0 16.2984 4.70156 21 10.5 21C16.2984 21 21 16.2984 21 10.5C21 4.70156 16.2984 0 10.5 0ZM11.0227 15.5906L11.0273 16.3336C11.0273 16.4367 10.943 16.5234 10.8398 16.5234H10.1742C10.0711 16.5234 9.98672 16.4391 9.98672 16.3359V15.6C7.90547 15.4453 6.92578 14.2594 6.82031 12.9703C6.81094 12.8602 6.89766 12.7664 7.00781 12.7664H8.09063C8.18203 12.7664 8.26172 12.832 8.27578 12.9211C8.39531 13.6641 8.97422 14.2195 10.0125 14.3578V11.0133L9.43359 10.8656C8.20781 10.5727 7.04062 9.80859 7.04062 8.22422C7.04062 6.51562 8.33906 5.59687 9.99844 5.43516V4.66172C9.99844 4.55859 10.0828 4.47422 10.1859 4.47422H10.8445C10.9477 4.47422 11.032 4.55859 11.032 4.66172V5.42813C12.6375 5.58984 13.8422 6.52734 13.9828 7.9875C13.9945 8.09766 13.9078 8.19375 13.7953 8.19375H12.743C12.6492 8.19375 12.5695 8.12344 12.5578 8.03203C12.4641 7.34766 11.9156 6.78984 11.0227 6.66797V9.81562L11.618 9.95391C13.1367 10.3289 14.1703 11.0555 14.1703 12.682C14.1703 14.4469 12.8578 15.4313 11.0227 15.5906ZM8.49844 8.11641C8.49844 8.71172 8.86641 9.17344 9.65859 9.45938C9.76875 9.50391 9.87891 9.53906 10.0102 9.57656V6.67031C9.14531 6.78047 8.49844 7.26562 8.49844 8.11641ZM11.2289 11.2852C11.1633 11.2711 11.0977 11.2547 11.0227 11.2336V14.3672C12.0211 14.2781 12.7102 13.7297 12.7102 12.8109C12.7102 12.0914 12.3375 11.6227 11.2289 11.2852Z" fill="#2E71B1"/>
</svg>
