<svg width="24" height="25" viewBox="0 0 24 25" fill="none" xmlns="http://www.w3.org/2000/svg">
<path d="M12 24.0895C8.79469 24.0895 5.78119 22.8413 3.51469 20.5748C1.24819 18.3083 0 15.2948 0 12.0895C0 8.88416 1.24823 5.87071 3.51469 3.60417C5.78114 1.33762 8.79469 0.0894775 12 0.0894775C15.2053 0.0894775 18.2188 1.33767 20.4853 3.60417C22.7518 5.87067 24 8.88416 24 12.0895C24 15.2948 22.7518 18.3082 20.4853 20.5748C18.2189 22.8413 15.2053 24.0895 12 24.0895ZM12 1.58948C6.21028 1.58948 1.5 6.29976 1.5 12.0895C1.5 17.8792 6.21028 22.5895 12 22.5895C17.7897 22.5895 22.5 17.8792 22.5 12.0895C22.5 6.29976 17.7897 1.58948 12 1.58948Z" fill="white"/>
<path d="M12 11.3395C10.9661 11.3395 10.125 10.4984 10.125 9.46448C10.125 8.4306 10.9661 7.58948 12 7.58948C13.0339 7.58948 13.875 8.4306 13.875 9.46448C13.875 9.87866 14.2108 10.2145 14.625 10.2145C15.0392 10.2145 15.375 9.87866 15.375 9.46448C15.375 7.86131 14.251 6.5166 12.75 6.17451V5.33948C12.75 4.92529 12.4142 4.58948 12 4.58948C11.5858 4.58948 11.25 4.92529 11.25 5.33948V6.17451C9.74897 6.5166 8.625 7.86131 8.625 9.46448C8.625 11.3255 10.139 12.8395 12 12.8395C13.0339 12.8395 13.875 13.6806 13.875 14.7145C13.875 15.7484 13.0339 16.5895 12 16.5895C10.9661 16.5895 10.125 15.7484 10.125 14.7145C10.125 14.3003 9.78923 13.9645 9.375 13.9645C8.96077 13.9645 8.625 14.3003 8.625 14.7145C8.625 16.3176 9.74897 17.6624 11.25 18.0044V18.8395C11.25 19.2537 11.5858 19.5895 12 19.5895C12.4142 19.5895 12.75 19.2537 12.75 18.8395V18.0044C14.251 17.6624 15.375 16.3176 15.375 14.7145C15.375 12.8535 13.861 11.3395 12 11.3395Z" fill="white"/>
</svg>
