<svg width="24" height="24" viewBox="0 0 24 24" fill="none" xmlns="http://www.w3.org/2000/svg">
<g clip-path="url(#clip0_4435_15653)">
<path d="M4.2353 0H19.7647C20.5444 0 21.1765 0.632063 21.1765 1.41178V22.5883C21.1765 23.368 20.5444 24 19.7647 24H4.2353C3.45563 24 2.82352 23.368 2.82352 22.5883V1.41178C2.82352 0.632063 3.45558 0 4.2353 0ZM7.7647 12.7059H16.2353C16.6252 12.7059 16.9412 12.3899 16.9412 12C16.9412 11.6101 16.6252 11.2941 16.2353 11.2941H7.7647C7.37485 11.2941 7.05881 11.6101 7.05881 12C7.05881 12.3899 7.37485 12.7059 7.7647 12.7059ZM10.2353 9.17649H13.7647C14.1546 9.17649 14.4706 8.86045 14.4706 8.47059C14.4706 8.08073 14.1546 7.7647 13.7647 7.7647H10.2353C9.84544 7.7647 9.52941 8.08073 9.52941 8.47059C9.52941 8.86045 9.84544 9.17649 10.2353 9.17649ZM10.2353 16.2353H13.7647C14.1546 16.2353 14.4706 15.9193 14.4706 15.5294C14.4706 15.1395 14.1546 14.8235 13.7647 14.8235H10.2353C9.84544 14.8235 9.52941 15.1395 9.52941 15.5294C9.52941 15.9193 9.84544 16.2353 10.2353 16.2353Z" fill="#FFBE55"/>
</g>
<defs>
<clipPath id="clip0_4435_15653">
<rect width="24" height="24" fill="white"/>
</clipPath>
</defs>
</svg>
