<svg width="20" height="25" viewBox="0 0 20 25" fill="none" xmlns="http://www.w3.org/2000/svg">
<path d="M14.239 3.12085H1.73554C1.27541 3.12137 0.834269 3.30439 0.508907 3.62976C0.183544 3.95512 0.000524966 4.39625 0 4.85639V22.3541C0.000524966 22.8142 0.183544 23.2554 0.508907 23.5807C0.834269 23.9061 1.27541 24.0891 1.73554 24.0896H14.239C14.6991 24.0891 15.1402 23.9061 15.4656 23.5807C15.791 23.2554 15.974 22.8142 15.9745 22.3541V4.85639C15.974 4.39625 15.791 3.95512 15.4656 3.62976C15.1402 3.30439 14.6991 3.12137 14.239 3.12085ZM14.9828 22.3541C14.9826 22.5513 14.9041 22.7404 14.7647 22.8798C14.6252 23.0192 14.4362 23.0977 14.239 23.0979H1.73554C1.53834 23.0977 1.34928 23.0192 1.20984 22.8798C1.0704 22.7404 0.991963 22.5513 0.991736 22.3541V4.85639C0.991959 4.65919 1.07039 4.47013 1.20984 4.33069C1.34928 4.19124 1.53834 4.11281 1.73554 4.11259H14.239C14.4362 4.1128 14.6252 4.19124 14.7647 4.33068C14.9041 4.47012 14.9826 4.65919 14.9828 4.85639V22.3541Z" fill="white"/>
<path d="M7.50003 9.73294C7.25195 9.8383 7.04062 10.0148 6.89268 10.2401C6.74474 10.4653 6.66682 10.7294 6.66874 10.9989C6.66874 11.7504 7.26027 12.3618 7.98736 12.3618C8.16759 12.3618 8.31425 12.5283 8.31425 12.7329C8.31425 12.9375 8.16759 13.104 7.98736 13.104C7.80712 13.104 7.66047 12.9376 7.66047 12.7329C7.66047 12.6014 7.60823 12.4753 7.51523 12.3823C7.42224 12.2893 7.29612 12.237 7.1646 12.237C7.03309 12.237 6.90697 12.2893 6.81397 12.3823C6.72098 12.4753 6.66874 12.6014 6.66874 12.7329C6.66681 13.0024 6.74474 13.2665 6.89268 13.4918C7.04062 13.7171 7.25195 13.8935 7.50003 13.9989C7.52097 14.1129 7.58119 14.2159 7.67022 14.2901C7.75926 14.3642 7.87148 14.4049 7.98736 14.4049C8.10324 14.4049 8.21546 14.3642 8.30449 14.2901C8.39353 14.2159 8.45375 14.1129 8.47468 13.9989C8.72276 13.8935 8.9341 13.7171 9.08204 13.4918C9.22998 13.2665 9.3079 13.0024 9.30598 12.7329C9.30598 11.9814 8.71445 11.37 7.98736 11.37C7.80712 11.37 7.66047 11.2036 7.66047 10.9989C7.66047 10.7943 7.80712 10.6278 7.98736 10.6278C8.16759 10.6278 8.31425 10.7943 8.31425 10.9989C8.31425 11.1304 8.36649 11.2566 8.45948 11.3495C8.55248 11.4425 8.6786 11.4948 8.81012 11.4948C8.94163 11.4948 9.06775 11.4425 9.16075 11.3495C9.25374 11.2566 9.30598 11.1304 9.30598 10.9989C9.3079 10.7294 9.22998 10.4653 9.08204 10.24C8.9341 10.0147 8.72277 9.8383 8.47469 9.73293C8.45377 9.61895 8.39355 9.5159 8.30452 9.44171C8.21548 9.36753 8.10325 9.3269 7.98736 9.3269C7.87147 9.3269 7.75924 9.36753 7.6702 9.44171C7.58117 9.5159 7.52095 9.61895 7.50003 9.73293V9.73294Z" fill="white"/>
<path d="M11.0377 8.69275C10.9876 8.73433 10.9461 8.78538 10.9157 8.84298C10.8854 8.90057 10.8666 8.96359 10.8606 9.02843C10.8545 9.09327 10.8613 9.15866 10.8806 9.22087C10.8998 9.28309 10.9311 9.3409 10.9727 9.39101C11.3358 9.82943 11.598 10.3423 11.7407 10.8934C11.8835 11.4444 11.9033 12.0201 11.7988 12.5797C11.6943 13.1392 11.468 13.6689 11.136 14.1313C10.8039 14.5937 10.3743 14.9773 9.87744 15.2551C9.92136 15.1847 9.94446 15.1032 9.94408 15.0201C9.9437 14.9371 9.91985 14.8558 9.87528 14.7857C9.8307 14.7156 9.76723 14.6596 9.69217 14.624C9.61712 14.5884 9.53354 14.5748 9.45107 14.5847C9.39362 14.5916 9.33809 14.6097 9.28765 14.6381C9.23721 14.6664 9.19285 14.7044 9.15711 14.7499L8.2593 15.8927C8.18711 15.9846 8.15438 16.1014 8.1683 16.2175C8.18223 16.3335 8.24168 16.4392 8.33357 16.5114L9.47634 17.4092C9.52184 17.4451 9.57396 17.4716 9.62972 17.4873C9.68548 17.503 9.74379 17.5076 9.80132 17.5007C9.85884 17.4939 9.91445 17.4757 9.96495 17.4474C10.0155 17.419 10.0599 17.3809 10.0957 17.3354C10.1314 17.2898 10.1579 17.2376 10.1735 17.1818C10.1891 17.1261 10.1935 17.0677 10.1866 17.0102C10.1796 16.9527 10.1614 16.8971 10.1329 16.8467C10.1044 16.7962 10.0663 16.7519 10.0207 16.7162L9.66559 16.4374C10.397 16.1687 11.0533 15.7284 11.5794 15.1535C12.1054 14.5786 12.4858 13.8858 12.6887 13.1334C12.8915 12.3811 12.9108 11.591 12.745 10.8296C12.5792 10.0682 12.2332 9.35764 11.7359 8.75769C11.6519 8.65649 11.5312 8.5928 11.4002 8.58062C11.2693 8.56845 11.1389 8.60878 11.0377 8.69275Z" fill="white"/>
<path d="M5.00149 14.3401C4.63843 13.9017 4.37623 13.3888 4.23347 12.8378C4.09072 12.2867 4.07089 11.711 4.1754 11.1515C4.27992 10.5919 4.50621 10.0622 4.83825 9.59985C5.17028 9.1375 5.59994 8.75382 6.09678 8.47601C6.05285 8.5465 6.02975 8.62797 6.03014 8.71103C6.03052 8.79409 6.05437 8.87534 6.09894 8.94543C6.14351 9.01551 6.20699 9.07157 6.28204 9.10714C6.3571 9.14271 6.44068 9.15634 6.52315 9.14646C6.5806 9.13957 6.63612 9.12142 6.68656 9.09307C6.737 9.06471 6.78136 9.02669 6.8171 8.9812L7.71491 7.83842C7.7871 7.74653 7.81984 7.62972 7.80591 7.5137C7.79198 7.39767 7.73253 7.29193 7.64064 7.21974L6.49787 6.32193C6.45237 6.28618 6.40028 6.25974 6.34456 6.24413C6.28885 6.22851 6.2306 6.22403 6.17315 6.23092C6.08661 6.24131 6.0051 6.27713 5.93893 6.33385C5.87275 6.39057 5.82489 6.46564 5.80138 6.54956C5.77787 6.63349 5.77979 6.7225 5.80688 6.80534C5.83396 6.88818 5.88501 6.96113 5.95356 7.01495L6.30866 7.29377C5.5772 7.56246 4.92089 8.00275 4.39485 8.57765C3.86881 9.15255 3.4884 9.84529 3.28556 10.5977C3.08272 11.3501 3.06339 12.1401 3.22917 12.9016C3.39496 13.663 3.74103 14.3735 4.23832 14.9734C4.27973 15.0241 4.33075 15.066 4.38845 15.0969C4.44614 15.1277 4.50937 15.1468 4.57449 15.1531C4.6396 15.1594 4.70532 15.1527 4.76785 15.1335C4.83038 15.1143 4.8885 15.0829 4.93884 15.0411C4.98918 14.9994 5.03076 14.948 5.06118 14.8901C5.0916 14.8322 5.11026 14.7688 5.11608 14.7037C5.12191 14.6385 5.11478 14.5729 5.09511 14.5105C5.07544 14.4481 5.04362 14.3902 5.00149 14.3401V14.3401Z" fill="white"/>
<path d="M9.93134 18.4387H6.04321C5.71536 18.4391 5.40105 18.5695 5.16923 18.8013C4.93741 19.0331 4.80701 19.3474 4.80664 19.6753V20.2413C4.80701 20.5692 4.93741 20.8835 5.16923 21.1153C5.40105 21.3471 5.71537 21.4775 6.04321 21.4779H9.93134C10.2592 21.4775 10.5735 21.3471 10.8053 21.1153C11.0371 20.8835 11.1675 20.5692 11.1679 20.2413V19.6753C11.1675 19.3474 11.0371 19.0331 10.8053 18.8013C10.5735 18.5695 10.2592 18.4391 9.93134 18.4387ZM10.1762 20.2413C10.1761 20.3062 10.1503 20.3685 10.1044 20.4144C10.0585 20.4603 9.99625 20.4861 9.93134 20.4862H6.04321C5.9783 20.4861 5.91607 20.4603 5.87017 20.4144C5.82427 20.3685 5.79845 20.3062 5.79838 20.2413V19.6753C5.79845 19.6104 5.82427 19.5481 5.87017 19.5022C5.91607 19.4563 5.9783 19.4305 6.04321 19.4305H9.93134C9.99625 19.4305 10.0585 19.4563 10.1044 19.5022C10.1503 19.5481 10.1761 19.6104 10.1762 19.6753V20.2413Z" fill="white"/>
<path d="M17.2704 0.0894775H4.76691C4.30678 0.0900025 3.86564 0.273022 3.54028 0.598384C3.21492 0.923747 3.0319 1.36488 3.03137 1.82501V2.08651C3.03137 2.21802 3.08362 2.34414 3.17661 2.43714C3.2696 2.53013 3.39573 2.58237 3.52724 2.58237C3.65875 2.58237 3.78488 2.53013 3.87787 2.43714C3.97086 2.34414 4.02311 2.21802 4.02311 2.08651V1.82501C4.02333 1.62781 4.10177 1.43876 4.24121 1.29931C4.38065 1.15987 4.56971 1.08144 4.76691 1.08121H17.2704C17.4676 1.08143 17.6566 1.15987 17.7961 1.29931C17.9355 1.43875 18.014 1.62781 18.0142 1.82501V19.3228C18.014 19.52 17.9355 19.709 17.7961 19.8485C17.6566 19.9879 17.4676 20.0663 17.2704 20.0666H16.9944C16.8629 20.0666 16.7368 20.1188 16.6438 20.2118C16.5508 20.3048 16.4985 20.4309 16.4985 20.5624C16.4985 20.6939 16.5508 20.8201 16.6438 20.9131C16.7368 21.0061 16.8629 21.0583 16.9944 21.0583H17.2704C17.7305 21.0578 18.1716 20.8747 18.497 20.5494C18.8224 20.224 19.0054 19.7829 19.0059 19.3228V1.82501C19.0054 1.36488 18.8224 0.923747 18.497 0.598384C18.1716 0.273022 17.7305 0.0900025 17.2704 0.0894775Z" fill="white"/>
</svg>
