<svg version="1.2" xmlns="http://www.w3.org/2000/svg" viewBox="0 0 24 24" width="24" height="24"><style>.a{fill:#fff}</style><path fill-rule="evenodd" class="a" d="m4.5 3.8q0.3 0 0.5 0.3 0.2 0.2 0.3 0.5v1.5q-0.1 0.3-0.3 0.5-0.2 0.2-0.5 0.2h-1.5q-0.3 0-0.5-0.2-0.2-0.2-0.3-0.5v-1.5q0.1-0.3 0.3-0.5 0.2-0.3 0.5-0.3zm0 0.8h-1.5v1.5h1.5z"/><path fill-rule="evenodd" class="a" d="m7.5 5.3q0-0.3 0.2-0.5 0.2-0.2 0.6-0.2h13.4q0.4 0 0.6 0.2 0.2 0.2 0.2 0.5 0 0.3-0.2 0.6-0.2 0.2-0.6 0.2h-13.5q-0.3 0-0.5-0.2-0.2-0.3-0.2-0.6zm14.3 5.3q0.3 0 0.5 0.2 0.2 0.2 0.2 0.5 0 0.3-0.2 0.6-0.2 0.2-0.6 0.2h-13.5q-0.3 0-0.5-0.2-0.2-0.3-0.2-0.6 0-0.3 0.2-0.5 0.2-0.2 0.5-0.2zm0 6q0.4 0 0.6 0.2 0.2 0.2 0.2 0.5 0 0.3-0.2 0.6-0.2 0.2-0.6 0.2h-13.5q-0.3 0-0.5-0.2-0.2-0.3-0.2-0.6 0-0.3 0.2-0.5 0.2-0.2 0.5-0.2z"/><path fill-rule="evenodd" class="a" d="m2.3 10.6q0-0.3 0.2-0.5 0.2-0.3 0.5-0.3h1.5q0.3 0 0.5 0.3 0.2 0.2 0.3 0.5v1.5q-0.1 0.3-0.3 0.5-0.2 0.2-0.5 0.2h-1.5q-0.3 0-0.5-0.2-0.2-0.2-0.2-0.5zm0.7 1.5h1.5v-1.5h-1.5zm1.5 3.7q0.3 0 0.5 0.3 0.2 0.2 0.3 0.5v1.5q-0.1 0.3-0.3 0.5-0.2 0.2-0.5 0.2h-1.5q-0.3 0-0.5-0.2-0.2-0.2-0.2-0.5v-1.5q0-0.3 0.2-0.5 0.2-0.3 0.5-0.3zm0 0.8h-1.5v1.5h1.5z"/></svg>