<svg width="24" height="24" viewBox="0 0 24 24" fill="none" xmlns="http://www.w3.org/2000/svg">
<g clip-path="url(#clip0_3292_18722)">
<path d="M6.11227 0.236949C6.07098 0.164948 6.01142 0.105121 5.93961 0.0635156C5.86779 0.0219101 5.78626 0 5.70326 0C5.62026 0 5.53874 0.0219101 5.46692 0.0635156C5.3951 0.105121 5.33554 0.164948 5.29425 0.236949L0.0631687 9.43083C0.0217072 9.50264 -8.16913e-05 9.58412 2.30154e-07 9.66704C8.21516e-05 9.74996 0.0220319 9.8314 0.0636352 9.90313C0.105239 9.97486 0.165024 10.0343 0.236959 10.0756C0.308895 10.1168 0.390436 10.1384 0.473357 10.1381H10.9332C11.0171 10.1405 11.1001 10.1205 11.1737 10.0801C11.2473 10.0397 11.3088 9.98045 11.3518 9.90836C11.3948 9.83626 11.4178 9.75399 11.4184 9.67004C11.419 9.5861 11.3972 9.50351 11.3551 9.43083L6.11227 0.236949ZM1.28195 9.19509L5.69737 1.41565L10.1222 9.19509H1.28195Z" fill="white" stroke="white" stroke-width="0.3"/>
<path d="M15.5983 10.1376H21.2561C21.7563 10.1376 22.236 9.93894 22.5897 9.58526C22.9433 9.23158 23.142 8.75188 23.142 8.25171V2.59393C23.142 2.09375 22.9433 1.61406 22.5897 1.26038C22.236 0.906703 21.7563 0.708008 21.2561 0.708008H15.5983C15.0981 0.708008 14.6185 0.906703 14.2648 1.26038C13.9111 1.61406 13.7124 2.09375 13.7124 2.59393V8.25171C13.7124 8.75188 13.9111 9.23158 14.2648 9.58526C14.6185 9.93894 15.0981 10.1376 15.5983 10.1376ZM14.6554 2.59393C14.6554 2.34384 14.7547 2.104 14.9316 1.92716C15.1084 1.75032 15.3482 1.65097 15.5983 1.65097H21.2561C21.5062 1.65097 21.746 1.75032 21.9229 1.92716C22.0997 2.104 22.1991 2.34384 22.1991 2.59393V8.25171C22.1991 8.5018 22.0997 8.74164 21.9229 8.91848C21.746 9.09532 21.5062 9.19467 21.2561 9.19467H15.5983C15.3482 9.19467 15.1084 9.09532 14.9316 8.91848C14.7547 8.74164 14.6554 8.5018 14.6554 8.25171V2.59393Z" fill="white" stroke="white" stroke-width="0.3"/>
<path d="M23.4746 16.4057L19.7027 12.6338C19.5353 12.4663 19.3364 12.3334 19.1176 12.2428C18.8988 12.1521 18.6642 12.1055 18.4274 12.1055C18.1905 12.1055 17.956 12.1521 17.7371 12.2428C17.5183 12.3334 17.3195 12.4663 17.152 12.6338L13.3802 16.4057C13.043 16.7445 12.8538 17.203 12.8538 17.681C12.8538 18.159 13.043 18.6176 13.3802 18.9564L17.152 22.7282C17.3195 22.8957 17.5183 23.0286 17.7371 23.1193C17.956 23.2099 18.1905 23.2566 18.4274 23.2566C18.6642 23.2566 18.8988 23.2099 19.1176 23.1193C19.3364 23.0286 19.5353 22.8957 19.7027 22.7282L23.4746 18.9564C23.8112 18.6173 24 18.1588 24 17.681C24 17.2032 23.8112 16.7448 23.4746 16.4057ZM22.8074 18.2916L19.0356 22.0634C18.8739 22.2241 18.6553 22.3143 18.4274 22.3143C18.1995 22.3143 17.9808 22.2241 17.8192 22.0634L14.0473 18.2916C13.9672 18.2119 13.9036 18.1171 13.8602 18.0127C13.8169 17.9083 13.7945 17.7964 13.7945 17.6834C13.7945 17.5704 13.8169 17.4584 13.8602 17.3541C13.9036 17.2497 13.9672 17.1549 14.0473 17.0752L17.8192 13.3033C17.9826 13.146 18.2006 13.0581 18.4274 13.0581C18.6542 13.0581 18.8722 13.146 19.0356 13.3033L22.8074 17.0752C22.9687 17.2365 23.0592 17.4553 23.0592 17.6834C23.0592 17.9115 22.9687 18.1303 22.8074 18.2916Z" fill="white" stroke="white" stroke-width="0.3"/>
<path d="M5.69728 12.4961C4.67153 12.4961 3.66881 12.8003 2.81593 13.3701C1.96305 13.94 1.29831 14.75 0.905772 15.6977C0.513233 16.6453 0.410528 17.6881 0.610642 18.6942C0.810756 19.7002 1.3047 20.6243 2.03002 21.3496C2.75533 22.075 3.67944 22.5689 4.68549 22.769C5.69153 22.9691 6.73432 22.8664 7.68199 22.4739C8.62966 22.0814 9.43965 21.4166 10.0095 20.5637C10.5794 19.7109 10.8836 18.7081 10.8836 17.6824C10.8836 17.0013 10.7494 16.3269 10.4888 15.6977C10.2282 15.0684 9.84614 14.4967 9.36454 14.0151C8.88295 13.5335 8.31122 13.1515 7.68199 12.8909C7.05276 12.6302 6.37835 12.4961 5.69728 12.4961ZM5.69728 21.9257C4.85803 21.9257 4.03762 21.6768 3.33981 21.2106C2.642 20.7443 2.09812 20.0816 1.77696 19.3062C1.45579 18.5309 1.37176 17.6777 1.53549 16.8546C1.69922 16.0314 2.10335 15.2753 2.69679 14.6819C3.29023 14.0885 4.04632 13.6843 4.86945 13.5206C5.69257 13.3569 6.54577 13.4409 7.32113 13.7621C8.0965 14.0832 8.75922 14.6271 9.22548 15.3249C9.69175 16.0227 9.94061 16.8431 9.94061 17.6824C9.94061 18.8078 9.49355 19.8871 8.69777 20.6829C7.90199 21.4787 6.82268 21.9257 5.69728 21.9257Z" fill="white" stroke="white" stroke-width="0.3"/>
</g>
<defs>
<clipPath id="clip0_3292_18722">
<rect width="24" height="24" fill="white"/>
</clipPath>
</defs>
</svg>
