<svg width="24" height="24" viewBox="0 0 24 24" fill="none" xmlns="http://www.w3.org/2000/svg">
<path d="M12.0001 15.6969C14.0407 15.6969 15.6949 14.0427 15.6949 12.0021C15.6949 9.96149 14.0407 8.30725 12.0001 8.30725C9.95946 8.30725 8.30522 9.96149 8.30522 12.0021C8.30522 14.0427 9.95946 15.6969 12.0001 15.6969Z" fill="#2E71B1"/>
<path d="M23.6319 10.9786C20.7918 7.54657 16.4926 4.24292 12.0001 4.24292C7.50668 4.24292 3.20649 7.54888 0.368245 10.9786C-0.122708 11.5716 -0.122708 12.4325 0.368245 13.0256C1.08181 13.8878 2.57776 15.5524 4.57575 17.0068C9.60762 20.6698 14.3815 20.6779 19.4244 17.0068C21.4224 15.5524 22.9183 13.8878 23.6319 13.0256C24.1214 12.4337 24.124 11.5736 23.6319 10.9786ZM12.0001 6.82931C14.8525 6.82931 17.1729 9.14967 17.1729 12.0021C17.1729 14.8545 14.8525 17.1749 12.0001 17.1749C9.14766 17.1749 6.82729 14.8545 6.82729 12.0021C6.82729 9.14967 9.14766 6.82931 12.0001 6.82931Z" fill="#2E71B1"/>
</svg>
